G04 (created by PCBNEW-RS274X (2011-oct-27)-testing) date Wed 04 Jan 2012 07:42:13 AM EST*
G01*
G70*
G90*
%MOIN*%
G04 Gerber Fmt 3.4, Leading zero omitted, Abs format*
%FSLAX34Y34*%
G04 APERTURE LIST*
%ADD10C,0.006000*%
%ADD11O,0.080000X0.120000*%
%ADD12C,0.175000*%
%ADD13R,0.075000X0.075000*%
%ADD14C,0.075000*%
G04 APERTURE END LIST*
G54D10*
G54D11*
X46000Y-31000D03*
X47000Y-31000D03*
X48000Y-31000D03*
X49000Y-31000D03*
X50000Y-31000D03*
X51000Y-31000D03*
X52000Y-31000D03*
X53000Y-31000D03*
X48000Y-50000D03*
X46000Y-50000D03*
X45000Y-50000D03*
X49000Y-50000D03*
X50000Y-50000D03*
X51000Y-50000D03*
X44000Y-50000D03*
X43000Y-50000D03*
X42000Y-50000D03*
X39000Y-50000D03*
X40000Y-50000D03*
X41000Y-50000D03*
X37000Y-50000D03*
X36000Y-50000D03*
X35000Y-50000D03*
X33000Y-50000D03*
X32000Y-50000D03*
X44000Y-31000D03*
X43000Y-31000D03*
X42000Y-31000D03*
X41000Y-31000D03*
X40000Y-31000D03*
X39000Y-31000D03*
X38000Y-31000D03*
X37000Y-31000D03*
X35400Y-31000D03*
X34400Y-31000D03*
X33400Y-31000D03*
X32400Y-31000D03*
X31400Y-31000D03*
X30400Y-31000D03*
X29400Y-31000D03*
X28400Y-31000D03*
X34000Y-50000D03*
G54D12*
X57000Y-50000D03*
X54500Y-31000D03*
X25000Y-31000D03*
X24500Y-50000D03*
G54D13*
X20500Y-45500D03*
G54D14*
X20500Y-44500D03*
X20500Y-43500D03*
X20500Y-42500D03*
X20500Y-41500D03*
X20500Y-40500D03*
X20500Y-39500D03*
X20500Y-38500D03*
G54D13*
X57000Y-32500D03*
G54D14*
X57000Y-33500D03*
X57000Y-34500D03*
X57000Y-35500D03*
X57000Y-36500D03*
X57000Y-37500D03*
G54D13*
X57000Y-40000D03*
G54D14*
X57000Y-41000D03*
X57000Y-42000D03*
X57000Y-43000D03*
X57000Y-44000D03*
X57000Y-45000D03*
G54D13*
X20500Y-31000D03*
G54D14*
X21500Y-31000D03*
X22500Y-31000D03*
M02*
