G04 (created by PCBNEW-RS274X (2011-oct-27)-testing) date Wed 04 Jan 2012 07:42:13 AM EST*
G01*
G70*
G90*
%MOIN*%
G04 Gerber Fmt 3.4, Leading zero omitted, Abs format*
%FSLAX34Y34*%
G04 APERTURE LIST*
%ADD10C,0.006000*%
%ADD11C,0.010000*%
%ADD12C,0.015000*%
%ADD13C,0.005000*%
%ADD14C,0.012000*%
%ADD15C,0.003500*%
%ADD16C,0.001300*%
%ADD17C,0.010700*%
%ADD18C,0.010600*%
G04 APERTURE END LIST*
G54D10*
G54D11*
X41060Y-47952D02*
X40893Y-47714D01*
X40774Y-47952D02*
X40774Y-47452D01*
X40965Y-47452D01*
X41012Y-47476D01*
X41036Y-47500D01*
X41060Y-47548D01*
X41060Y-47619D01*
X41036Y-47667D01*
X41012Y-47690D01*
X40965Y-47714D01*
X40774Y-47714D01*
X41465Y-47929D02*
X41417Y-47952D01*
X41322Y-47952D01*
X41274Y-47929D01*
X41250Y-47881D01*
X41250Y-47690D01*
X41274Y-47643D01*
X41322Y-47619D01*
X41417Y-47619D01*
X41465Y-47643D01*
X41488Y-47690D01*
X41488Y-47738D01*
X41250Y-47786D01*
X41655Y-47619D02*
X41774Y-47952D01*
X41894Y-47619D01*
X42632Y-47690D02*
X42703Y-47714D01*
X42727Y-47738D01*
X42751Y-47786D01*
X42751Y-47857D01*
X42727Y-47905D01*
X42703Y-47929D01*
X42656Y-47952D01*
X42465Y-47952D01*
X42465Y-47452D01*
X42632Y-47452D01*
X42679Y-47476D01*
X42703Y-47500D01*
X42727Y-47548D01*
X42727Y-47595D01*
X42703Y-47643D01*
X42679Y-47667D01*
X42632Y-47690D01*
X42465Y-47690D01*
X39703Y-48752D02*
X39417Y-48752D01*
X39560Y-48752D02*
X39560Y-48252D01*
X39512Y-48324D01*
X39465Y-48371D01*
X39417Y-48395D01*
X39893Y-48300D02*
X39917Y-48276D01*
X39965Y-48252D01*
X40084Y-48252D01*
X40131Y-48276D01*
X40155Y-48300D01*
X40179Y-48348D01*
X40179Y-48395D01*
X40155Y-48467D01*
X39869Y-48752D01*
X40179Y-48752D01*
X40750Y-48229D02*
X40322Y-48871D01*
X40869Y-48252D02*
X41179Y-48252D01*
X41012Y-48443D01*
X41084Y-48443D01*
X41131Y-48467D01*
X41155Y-48490D01*
X41179Y-48538D01*
X41179Y-48657D01*
X41155Y-48705D01*
X41131Y-48729D01*
X41084Y-48752D01*
X40941Y-48752D01*
X40893Y-48729D01*
X40869Y-48705D01*
X41655Y-48752D02*
X41369Y-48752D01*
X41512Y-48752D02*
X41512Y-48252D01*
X41464Y-48324D01*
X41417Y-48371D01*
X41369Y-48395D01*
X42226Y-48229D02*
X41798Y-48871D01*
X42369Y-48300D02*
X42393Y-48276D01*
X42441Y-48252D01*
X42560Y-48252D01*
X42607Y-48276D01*
X42631Y-48300D01*
X42655Y-48348D01*
X42655Y-48395D01*
X42631Y-48467D01*
X42345Y-48752D01*
X42655Y-48752D01*
X42964Y-48252D02*
X43012Y-48252D01*
X43060Y-48276D01*
X43083Y-48300D01*
X43107Y-48348D01*
X43131Y-48443D01*
X43131Y-48562D01*
X43107Y-48657D01*
X43083Y-48705D01*
X43060Y-48729D01*
X43012Y-48752D01*
X42964Y-48752D01*
X42917Y-48729D01*
X42893Y-48705D01*
X42869Y-48657D01*
X42845Y-48562D01*
X42845Y-48443D01*
X42869Y-48348D01*
X42893Y-48300D01*
X42917Y-48276D01*
X42964Y-48252D01*
X43607Y-48752D02*
X43321Y-48752D01*
X43464Y-48752D02*
X43464Y-48252D01*
X43416Y-48324D01*
X43369Y-48371D01*
X43321Y-48395D01*
X44083Y-48752D02*
X43797Y-48752D01*
X43940Y-48752D02*
X43940Y-48252D01*
X43892Y-48324D01*
X43845Y-48371D01*
X43797Y-48395D01*
X38524Y-45702D02*
X38643Y-46202D01*
X38739Y-45845D01*
X38834Y-46202D01*
X38953Y-45702D01*
X39143Y-46202D02*
X39143Y-45702D01*
X39357Y-46202D02*
X39357Y-45940D01*
X39334Y-45893D01*
X39286Y-45869D01*
X39214Y-45869D01*
X39167Y-45893D01*
X39143Y-45917D01*
X39595Y-46202D02*
X39595Y-45869D01*
X39595Y-45702D02*
X39571Y-45726D01*
X39595Y-45750D01*
X39619Y-45726D01*
X39595Y-45702D01*
X39595Y-45750D01*
X39762Y-45869D02*
X39952Y-45869D01*
X39833Y-45702D02*
X39833Y-46131D01*
X39857Y-46179D01*
X39904Y-46202D01*
X39952Y-46202D01*
X40310Y-46179D02*
X40262Y-46202D01*
X40167Y-46202D01*
X40119Y-46179D01*
X40095Y-46131D01*
X40095Y-45940D01*
X40119Y-45893D01*
X40167Y-45869D01*
X40262Y-45869D01*
X40310Y-45893D01*
X40333Y-45940D01*
X40333Y-45988D01*
X40095Y-46036D01*
X40905Y-46179D02*
X40977Y-46202D01*
X41096Y-46202D01*
X41143Y-46179D01*
X41167Y-46155D01*
X41191Y-46107D01*
X41191Y-46060D01*
X41167Y-46012D01*
X41143Y-45988D01*
X41096Y-45964D01*
X41000Y-45940D01*
X40953Y-45917D01*
X40929Y-45893D01*
X40905Y-45845D01*
X40905Y-45798D01*
X40929Y-45750D01*
X40953Y-45726D01*
X41000Y-45702D01*
X41120Y-45702D01*
X41191Y-45726D01*
X41334Y-45869D02*
X41524Y-45869D01*
X41405Y-45702D02*
X41405Y-46131D01*
X41429Y-46179D01*
X41476Y-46202D01*
X41524Y-46202D01*
X41905Y-46202D02*
X41905Y-45940D01*
X41882Y-45893D01*
X41834Y-45869D01*
X41739Y-45869D01*
X41691Y-45893D01*
X41905Y-46179D02*
X41858Y-46202D01*
X41739Y-46202D01*
X41691Y-46179D01*
X41667Y-46131D01*
X41667Y-46083D01*
X41691Y-46036D01*
X41739Y-46012D01*
X41858Y-46012D01*
X41905Y-45988D01*
X42143Y-46202D02*
X42143Y-45869D01*
X42143Y-45964D02*
X42167Y-45917D01*
X42191Y-45893D01*
X42238Y-45869D01*
X42286Y-45869D01*
X43001Y-45940D02*
X43072Y-45964D01*
X43096Y-45988D01*
X43120Y-46036D01*
X43120Y-46107D01*
X43096Y-46155D01*
X43072Y-46179D01*
X43025Y-46202D01*
X42834Y-46202D01*
X42834Y-45702D01*
X43001Y-45702D01*
X43048Y-45726D01*
X43072Y-45750D01*
X43096Y-45798D01*
X43096Y-45845D01*
X43072Y-45893D01*
X43048Y-45917D01*
X43001Y-45940D01*
X42834Y-45940D01*
X43548Y-46202D02*
X43548Y-45940D01*
X43525Y-45893D01*
X43477Y-45869D01*
X43382Y-45869D01*
X43334Y-45893D01*
X43548Y-46179D02*
X43501Y-46202D01*
X43382Y-46202D01*
X43334Y-46179D01*
X43310Y-46131D01*
X43310Y-46083D01*
X43334Y-46036D01*
X43382Y-46012D01*
X43501Y-46012D01*
X43548Y-45988D01*
X43857Y-46202D02*
X43810Y-46179D01*
X43786Y-46131D01*
X43786Y-45702D01*
X44119Y-46202D02*
X44072Y-46179D01*
X44048Y-46131D01*
X44048Y-45702D01*
X44381Y-46202D02*
X44334Y-46179D01*
X44310Y-46155D01*
X44286Y-46107D01*
X44286Y-45964D01*
X44310Y-45917D01*
X44334Y-45893D01*
X44381Y-45869D01*
X44453Y-45869D01*
X44501Y-45893D01*
X44524Y-45917D01*
X44548Y-45964D01*
X44548Y-46107D01*
X44524Y-46155D01*
X44501Y-46179D01*
X44453Y-46202D01*
X44381Y-46202D01*
X44833Y-46202D02*
X44786Y-46179D01*
X44762Y-46155D01*
X44738Y-46107D01*
X44738Y-45964D01*
X44762Y-45917D01*
X44786Y-45893D01*
X44833Y-45869D01*
X44905Y-45869D01*
X44953Y-45893D01*
X44976Y-45917D01*
X45000Y-45964D01*
X45000Y-46107D01*
X44976Y-46155D01*
X44953Y-46179D01*
X44905Y-46202D01*
X44833Y-46202D01*
X45214Y-45869D02*
X45214Y-46202D01*
X45214Y-45917D02*
X45238Y-45893D01*
X45285Y-45869D01*
X45357Y-45869D01*
X45405Y-45893D01*
X45428Y-45940D01*
X45428Y-46202D01*
X35857Y-47002D02*
X35857Y-46502D01*
X36071Y-47002D02*
X36071Y-46740D01*
X36048Y-46693D01*
X36000Y-46669D01*
X35928Y-46669D01*
X35881Y-46693D01*
X35857Y-46717D01*
X36238Y-46669D02*
X36428Y-46669D01*
X36309Y-46502D02*
X36309Y-46931D01*
X36333Y-46979D01*
X36380Y-47002D01*
X36428Y-47002D01*
X36524Y-46669D02*
X36714Y-46669D01*
X36595Y-46502D02*
X36595Y-46931D01*
X36619Y-46979D01*
X36666Y-47002D01*
X36714Y-47002D01*
X36881Y-46669D02*
X36881Y-47169D01*
X36881Y-46693D02*
X36929Y-46669D01*
X37024Y-46669D01*
X37072Y-46693D01*
X37095Y-46717D01*
X37119Y-46764D01*
X37119Y-46907D01*
X37095Y-46955D01*
X37072Y-46979D01*
X37024Y-47002D01*
X36929Y-47002D01*
X36881Y-46979D01*
X37333Y-46955D02*
X37357Y-46979D01*
X37333Y-47002D01*
X37309Y-46979D01*
X37333Y-46955D01*
X37333Y-47002D01*
X37333Y-46693D02*
X37357Y-46717D01*
X37333Y-46740D01*
X37309Y-46717D01*
X37333Y-46693D01*
X37333Y-46740D01*
X37928Y-46479D02*
X37500Y-47121D01*
X38452Y-46479D02*
X38024Y-47121D01*
X38571Y-46669D02*
X38667Y-47002D01*
X38762Y-46764D01*
X38857Y-47002D01*
X38952Y-46669D01*
X39095Y-46669D02*
X39191Y-47002D01*
X39286Y-46764D01*
X39381Y-47002D01*
X39476Y-46669D01*
X39619Y-46669D02*
X39715Y-47002D01*
X39810Y-46764D01*
X39905Y-47002D01*
X40000Y-46669D01*
X40191Y-46955D02*
X40215Y-46979D01*
X40191Y-47002D01*
X40167Y-46979D01*
X40191Y-46955D01*
X40191Y-47002D01*
X40381Y-46669D02*
X40477Y-47002D01*
X40572Y-46764D01*
X40667Y-47002D01*
X40762Y-46669D01*
X40953Y-47002D02*
X40953Y-46502D01*
X41167Y-47002D02*
X41167Y-46740D01*
X41144Y-46693D01*
X41096Y-46669D01*
X41024Y-46669D01*
X40977Y-46693D01*
X40953Y-46717D01*
X41405Y-47002D02*
X41405Y-46669D01*
X41405Y-46502D02*
X41381Y-46526D01*
X41405Y-46550D01*
X41429Y-46526D01*
X41405Y-46502D01*
X41405Y-46550D01*
X41572Y-46669D02*
X41762Y-46669D01*
X41643Y-46502D02*
X41643Y-46931D01*
X41667Y-46979D01*
X41714Y-47002D01*
X41762Y-47002D01*
X42120Y-46979D02*
X42072Y-47002D01*
X41977Y-47002D01*
X41929Y-46979D01*
X41905Y-46931D01*
X41905Y-46740D01*
X41929Y-46693D01*
X41977Y-46669D01*
X42072Y-46669D01*
X42120Y-46693D01*
X42143Y-46740D01*
X42143Y-46788D01*
X41905Y-46836D01*
X42334Y-46979D02*
X42382Y-47002D01*
X42477Y-47002D01*
X42525Y-46979D01*
X42549Y-46931D01*
X42549Y-46907D01*
X42525Y-46860D01*
X42477Y-46836D01*
X42406Y-46836D01*
X42358Y-46812D01*
X42334Y-46764D01*
X42334Y-46740D01*
X42358Y-46693D01*
X42406Y-46669D01*
X42477Y-46669D01*
X42525Y-46693D01*
X42692Y-46669D02*
X42882Y-46669D01*
X42763Y-46502D02*
X42763Y-46931D01*
X42787Y-46979D01*
X42834Y-47002D01*
X42882Y-47002D01*
X43263Y-47002D02*
X43263Y-46740D01*
X43240Y-46693D01*
X43192Y-46669D01*
X43097Y-46669D01*
X43049Y-46693D01*
X43263Y-46979D02*
X43216Y-47002D01*
X43097Y-47002D01*
X43049Y-46979D01*
X43025Y-46931D01*
X43025Y-46883D01*
X43049Y-46836D01*
X43097Y-46812D01*
X43216Y-46812D01*
X43263Y-46788D01*
X43501Y-47002D02*
X43501Y-46669D01*
X43501Y-46764D02*
X43525Y-46717D01*
X43549Y-46693D01*
X43596Y-46669D01*
X43644Y-46669D01*
X43811Y-47002D02*
X43811Y-46502D01*
X43811Y-46693D02*
X43859Y-46669D01*
X43954Y-46669D01*
X44002Y-46693D01*
X44025Y-46717D01*
X44049Y-46764D01*
X44049Y-46907D01*
X44025Y-46955D01*
X44002Y-46979D01*
X43954Y-47002D01*
X43859Y-47002D01*
X43811Y-46979D01*
X44477Y-47002D02*
X44477Y-46740D01*
X44454Y-46693D01*
X44406Y-46669D01*
X44311Y-46669D01*
X44263Y-46693D01*
X44477Y-46979D02*
X44430Y-47002D01*
X44311Y-47002D01*
X44263Y-46979D01*
X44239Y-46931D01*
X44239Y-46883D01*
X44263Y-46836D01*
X44311Y-46812D01*
X44430Y-46812D01*
X44477Y-46788D01*
X44786Y-47002D02*
X44739Y-46979D01*
X44715Y-46931D01*
X44715Y-46502D01*
X45048Y-47002D02*
X45001Y-46979D01*
X44977Y-46931D01*
X44977Y-46502D01*
X45310Y-47002D02*
X45263Y-46979D01*
X45239Y-46955D01*
X45215Y-46907D01*
X45215Y-46764D01*
X45239Y-46717D01*
X45263Y-46693D01*
X45310Y-46669D01*
X45382Y-46669D01*
X45430Y-46693D01*
X45453Y-46717D01*
X45477Y-46764D01*
X45477Y-46907D01*
X45453Y-46955D01*
X45430Y-46979D01*
X45382Y-47002D01*
X45310Y-47002D01*
X45762Y-47002D02*
X45715Y-46979D01*
X45691Y-46955D01*
X45667Y-46907D01*
X45667Y-46764D01*
X45691Y-46717D01*
X45715Y-46693D01*
X45762Y-46669D01*
X45834Y-46669D01*
X45882Y-46693D01*
X45905Y-46717D01*
X45929Y-46764D01*
X45929Y-46907D01*
X45905Y-46955D01*
X45882Y-46979D01*
X45834Y-47002D01*
X45762Y-47002D01*
X46143Y-46669D02*
X46143Y-47002D01*
X46143Y-46717D02*
X46167Y-46693D01*
X46214Y-46669D01*
X46286Y-46669D01*
X46334Y-46693D01*
X46357Y-46740D01*
X46357Y-47002D01*
X46595Y-46955D02*
X46619Y-46979D01*
X46595Y-47002D01*
X46571Y-46979D01*
X46595Y-46955D01*
X46595Y-47002D01*
X47047Y-46979D02*
X47000Y-47002D01*
X46904Y-47002D01*
X46857Y-46979D01*
X46833Y-46955D01*
X46809Y-46907D01*
X46809Y-46764D01*
X46833Y-46717D01*
X46857Y-46693D01*
X46904Y-46669D01*
X47000Y-46669D01*
X47047Y-46693D01*
X47333Y-47002D02*
X47286Y-46979D01*
X47262Y-46955D01*
X47238Y-46907D01*
X47238Y-46764D01*
X47262Y-46717D01*
X47286Y-46693D01*
X47333Y-46669D01*
X47405Y-46669D01*
X47453Y-46693D01*
X47476Y-46717D01*
X47500Y-46764D01*
X47500Y-46907D01*
X47476Y-46955D01*
X47453Y-46979D01*
X47405Y-47002D01*
X47333Y-47002D01*
X47714Y-47002D02*
X47714Y-46669D01*
X47714Y-46717D02*
X47738Y-46693D01*
X47785Y-46669D01*
X47857Y-46669D01*
X47905Y-46693D01*
X47928Y-46740D01*
X47928Y-47002D01*
X47928Y-46740D02*
X47952Y-46693D01*
X48000Y-46669D01*
X48071Y-46669D01*
X48119Y-46693D01*
X48143Y-46740D01*
X48143Y-47002D01*
X19965Y-32202D02*
X19679Y-32202D01*
X19822Y-32202D02*
X19822Y-31702D01*
X19774Y-31774D01*
X19727Y-31821D01*
X19679Y-31845D01*
X20155Y-31750D02*
X20179Y-31726D01*
X20227Y-31702D01*
X20346Y-31702D01*
X20393Y-31726D01*
X20417Y-31750D01*
X20441Y-31798D01*
X20441Y-31845D01*
X20417Y-31917D01*
X20131Y-32202D01*
X20441Y-32202D01*
X20607Y-31869D02*
X20726Y-32202D01*
X20846Y-31869D01*
X22226Y-32452D02*
X22226Y-31952D01*
X22821Y-31929D02*
X22393Y-32571D01*
X23083Y-31952D02*
X23179Y-31952D01*
X23226Y-31976D01*
X23274Y-32024D01*
X23298Y-32119D01*
X23298Y-32286D01*
X23274Y-32381D01*
X23226Y-32429D01*
X23179Y-32452D01*
X23083Y-32452D01*
X23036Y-32429D01*
X22988Y-32381D01*
X22964Y-32286D01*
X22964Y-32119D01*
X22988Y-32024D01*
X23036Y-31976D01*
X23083Y-31952D01*
X21691Y-45702D02*
X21405Y-45702D01*
X21548Y-45702D02*
X21548Y-45202D01*
X21500Y-45274D01*
X21453Y-45321D01*
X21405Y-45345D01*
X21881Y-45250D02*
X21905Y-45226D01*
X21953Y-45202D01*
X22072Y-45202D01*
X22119Y-45226D01*
X22143Y-45250D01*
X22167Y-45298D01*
X22167Y-45345D01*
X22143Y-45417D01*
X21857Y-45702D01*
X22167Y-45702D01*
X22310Y-45202D02*
X22476Y-45702D01*
X22643Y-45202D01*
X21262Y-44202D02*
X21572Y-44202D01*
X21405Y-44393D01*
X21477Y-44393D01*
X21524Y-44417D01*
X21548Y-44440D01*
X21572Y-44488D01*
X21572Y-44607D01*
X21548Y-44655D01*
X21524Y-44679D01*
X21477Y-44702D01*
X21334Y-44702D01*
X21286Y-44679D01*
X21262Y-44655D01*
X21786Y-44655D02*
X21810Y-44679D01*
X21786Y-44702D01*
X21762Y-44679D01*
X21786Y-44655D01*
X21786Y-44702D01*
X21976Y-44202D02*
X22286Y-44202D01*
X22119Y-44393D01*
X22191Y-44393D01*
X22238Y-44417D01*
X22262Y-44440D01*
X22286Y-44488D01*
X22286Y-44607D01*
X22262Y-44655D01*
X22238Y-44679D01*
X22191Y-44702D01*
X22048Y-44702D01*
X22000Y-44679D01*
X21976Y-44655D01*
X22429Y-44202D02*
X22595Y-44702D01*
X22762Y-44202D01*
X21655Y-43202D02*
X21417Y-43202D01*
X21393Y-43440D01*
X21417Y-43417D01*
X21465Y-43393D01*
X21584Y-43393D01*
X21631Y-43417D01*
X21655Y-43440D01*
X21679Y-43488D01*
X21679Y-43607D01*
X21655Y-43655D01*
X21631Y-43679D01*
X21584Y-43702D01*
X21465Y-43702D01*
X21417Y-43679D01*
X21393Y-43655D01*
X21822Y-43202D02*
X21988Y-43702D01*
X22155Y-43202D01*
X21405Y-40679D02*
X21477Y-40702D01*
X21596Y-40702D01*
X21643Y-40679D01*
X21667Y-40655D01*
X21691Y-40607D01*
X21691Y-40560D01*
X21667Y-40512D01*
X21643Y-40488D01*
X21596Y-40464D01*
X21500Y-40440D01*
X21453Y-40417D01*
X21429Y-40393D01*
X21405Y-40345D01*
X21405Y-40298D01*
X21429Y-40250D01*
X21453Y-40226D01*
X21500Y-40202D01*
X21620Y-40202D01*
X21691Y-40226D01*
X22191Y-40655D02*
X22167Y-40679D01*
X22096Y-40702D01*
X22048Y-40702D01*
X21976Y-40679D01*
X21929Y-40631D01*
X21905Y-40583D01*
X21881Y-40488D01*
X21881Y-40417D01*
X21905Y-40321D01*
X21929Y-40274D01*
X21976Y-40226D01*
X22048Y-40202D01*
X22096Y-40202D01*
X22167Y-40226D01*
X22191Y-40250D01*
X22643Y-40702D02*
X22405Y-40702D01*
X22405Y-40202D01*
X21393Y-41679D02*
X21465Y-41702D01*
X21584Y-41702D01*
X21631Y-41679D01*
X21655Y-41655D01*
X21679Y-41607D01*
X21679Y-41560D01*
X21655Y-41512D01*
X21631Y-41488D01*
X21584Y-41464D01*
X21488Y-41440D01*
X21441Y-41417D01*
X21417Y-41393D01*
X21393Y-41345D01*
X21393Y-41298D01*
X21417Y-41250D01*
X21441Y-41226D01*
X21488Y-41202D01*
X21608Y-41202D01*
X21679Y-41226D01*
X21893Y-41702D02*
X21893Y-41202D01*
X22012Y-41202D01*
X22084Y-41226D01*
X22131Y-41274D01*
X22155Y-41321D01*
X22179Y-41417D01*
X22179Y-41488D01*
X22155Y-41583D01*
X22131Y-41631D01*
X22084Y-41679D01*
X22012Y-41702D01*
X21893Y-41702D01*
X22369Y-41560D02*
X22607Y-41560D01*
X22322Y-41702D02*
X22488Y-41202D01*
X22655Y-41702D01*
X55429Y-34202D02*
X55191Y-34202D01*
X55167Y-34440D01*
X55191Y-34417D01*
X55239Y-34393D01*
X55358Y-34393D01*
X55405Y-34417D01*
X55429Y-34440D01*
X55453Y-34488D01*
X55453Y-34607D01*
X55429Y-34655D01*
X55405Y-34679D01*
X55358Y-34702D01*
X55239Y-34702D01*
X55191Y-34679D01*
X55167Y-34655D01*
X55619Y-34369D02*
X55738Y-34702D01*
X55858Y-34369D01*
X55036Y-33202D02*
X55346Y-33202D01*
X55179Y-33393D01*
X55251Y-33393D01*
X55298Y-33417D01*
X55322Y-33440D01*
X55346Y-33488D01*
X55346Y-33607D01*
X55322Y-33655D01*
X55298Y-33679D01*
X55251Y-33702D01*
X55108Y-33702D01*
X55060Y-33679D01*
X55036Y-33655D01*
X55560Y-33655D02*
X55584Y-33679D01*
X55560Y-33702D01*
X55536Y-33679D01*
X55560Y-33655D01*
X55560Y-33702D01*
X55750Y-33202D02*
X56060Y-33202D01*
X55893Y-33393D01*
X55965Y-33393D01*
X56012Y-33417D01*
X56036Y-33440D01*
X56060Y-33488D01*
X56060Y-33607D01*
X56036Y-33655D01*
X56012Y-33679D01*
X55965Y-33702D01*
X55822Y-33702D01*
X55774Y-33679D01*
X55750Y-33655D01*
X56226Y-33369D02*
X56345Y-33702D01*
X56465Y-33369D01*
X54215Y-32702D02*
X53929Y-32702D01*
X54072Y-32702D02*
X54072Y-32202D01*
X54024Y-32274D01*
X53977Y-32321D01*
X53929Y-32345D01*
X54405Y-32250D02*
X54429Y-32226D01*
X54477Y-32202D01*
X54596Y-32202D01*
X54643Y-32226D01*
X54667Y-32250D01*
X54691Y-32298D01*
X54691Y-32345D01*
X54667Y-32417D01*
X54381Y-32702D01*
X54691Y-32702D01*
X54857Y-32369D02*
X54976Y-32702D01*
X55096Y-32369D01*
X52214Y-36952D02*
X52214Y-37357D01*
X52238Y-37405D01*
X52262Y-37429D01*
X52309Y-37452D01*
X52405Y-37452D01*
X52452Y-37429D01*
X52476Y-37405D01*
X52500Y-37357D01*
X52500Y-36952D01*
X52714Y-37310D02*
X52952Y-37310D01*
X52667Y-37452D02*
X52833Y-36952D01*
X53000Y-37452D01*
X53453Y-37452D02*
X53286Y-37214D01*
X53167Y-37452D02*
X53167Y-36952D01*
X53358Y-36952D01*
X53405Y-36976D01*
X53429Y-37000D01*
X53453Y-37048D01*
X53453Y-37119D01*
X53429Y-37167D01*
X53405Y-37190D01*
X53358Y-37214D01*
X53167Y-37214D01*
X53596Y-36952D02*
X53881Y-36952D01*
X53738Y-37452D02*
X53738Y-36952D01*
X54024Y-37000D02*
X54048Y-36976D01*
X54096Y-36952D01*
X54215Y-36952D01*
X54262Y-36976D01*
X54286Y-37000D01*
X54310Y-37048D01*
X54310Y-37095D01*
X54286Y-37167D01*
X54000Y-37452D01*
X54310Y-37452D01*
X52143Y-38252D02*
X51976Y-38014D01*
X51857Y-38252D02*
X51857Y-37752D01*
X52048Y-37752D01*
X52095Y-37776D01*
X52119Y-37800D01*
X52143Y-37848D01*
X52143Y-37919D01*
X52119Y-37967D01*
X52095Y-37990D01*
X52048Y-38014D01*
X51857Y-38014D01*
X52309Y-37752D02*
X52643Y-38252D01*
X52643Y-37752D02*
X52309Y-38252D01*
X52833Y-38062D02*
X53214Y-38062D01*
X53547Y-37752D02*
X53643Y-37752D01*
X53690Y-37776D01*
X53738Y-37824D01*
X53762Y-37919D01*
X53762Y-38086D01*
X53738Y-38181D01*
X53690Y-38229D01*
X53643Y-38252D01*
X53547Y-38252D01*
X53500Y-38229D01*
X53452Y-38181D01*
X53428Y-38086D01*
X53428Y-37919D01*
X53452Y-37824D01*
X53500Y-37776D01*
X53547Y-37752D01*
X53976Y-37752D02*
X53976Y-38157D01*
X54000Y-38205D01*
X54024Y-38229D01*
X54071Y-38252D01*
X54167Y-38252D01*
X54214Y-38229D01*
X54238Y-38205D01*
X54262Y-38157D01*
X54262Y-37752D01*
X54429Y-37752D02*
X54714Y-37752D01*
X54571Y-38252D02*
X54571Y-37752D01*
X52250Y-39052D02*
X52012Y-39052D01*
X52012Y-38552D01*
X52417Y-38790D02*
X52584Y-38790D01*
X52655Y-39052D02*
X52417Y-39052D01*
X52417Y-38552D01*
X52655Y-38552D01*
X53131Y-38576D02*
X53083Y-38552D01*
X53012Y-38552D01*
X52940Y-38576D01*
X52893Y-38624D01*
X52869Y-38671D01*
X52845Y-38767D01*
X52845Y-38838D01*
X52869Y-38933D01*
X52893Y-38981D01*
X52940Y-39029D01*
X53012Y-39052D01*
X53060Y-39052D01*
X53131Y-39029D01*
X53155Y-39005D01*
X53155Y-38838D01*
X53060Y-38838D01*
X53345Y-38910D02*
X53583Y-38910D01*
X53298Y-39052D02*
X53464Y-38552D01*
X53631Y-39052D01*
X54084Y-39005D02*
X54060Y-39029D01*
X53989Y-39052D01*
X53941Y-39052D01*
X53869Y-39029D01*
X53822Y-38981D01*
X53798Y-38933D01*
X53774Y-38838D01*
X53774Y-38767D01*
X53798Y-38671D01*
X53822Y-38624D01*
X53869Y-38576D01*
X53941Y-38552D01*
X53989Y-38552D01*
X54060Y-38576D01*
X54084Y-38600D01*
X54393Y-38814D02*
X54393Y-39052D01*
X54227Y-38552D02*
X54393Y-38814D01*
X54560Y-38552D01*
X52214Y-34702D02*
X52214Y-35107D01*
X52238Y-35155D01*
X52262Y-35179D01*
X52309Y-35202D01*
X52405Y-35202D01*
X52452Y-35179D01*
X52476Y-35155D01*
X52500Y-35107D01*
X52500Y-34702D01*
X52714Y-35060D02*
X52952Y-35060D01*
X52667Y-35202D02*
X52833Y-34702D01*
X53000Y-35202D01*
X53453Y-35202D02*
X53286Y-34964D01*
X53167Y-35202D02*
X53167Y-34702D01*
X53358Y-34702D01*
X53405Y-34726D01*
X53429Y-34750D01*
X53453Y-34798D01*
X53453Y-34869D01*
X53429Y-34917D01*
X53405Y-34940D01*
X53358Y-34964D01*
X53167Y-34964D01*
X53596Y-34702D02*
X53881Y-34702D01*
X53738Y-35202D02*
X53738Y-34702D01*
X54024Y-34750D02*
X54048Y-34726D01*
X54096Y-34702D01*
X54215Y-34702D01*
X54262Y-34726D01*
X54286Y-34750D01*
X54310Y-34798D01*
X54310Y-34845D01*
X54286Y-34917D01*
X54000Y-35202D01*
X54310Y-35202D01*
X52179Y-35502D02*
X52464Y-35502D01*
X52321Y-36002D02*
X52321Y-35502D01*
X52583Y-35502D02*
X52917Y-36002D01*
X52917Y-35502D02*
X52583Y-36002D01*
X53107Y-35812D02*
X53488Y-35812D01*
X53726Y-36002D02*
X53726Y-35502D01*
X53964Y-36002D02*
X53964Y-35502D01*
X54250Y-36002D01*
X54250Y-35502D01*
X52250Y-36802D02*
X52012Y-36802D01*
X52012Y-36302D01*
X52417Y-36540D02*
X52584Y-36540D01*
X52655Y-36802D02*
X52417Y-36802D01*
X52417Y-36302D01*
X52655Y-36302D01*
X53131Y-36326D02*
X53083Y-36302D01*
X53012Y-36302D01*
X52940Y-36326D01*
X52893Y-36374D01*
X52869Y-36421D01*
X52845Y-36517D01*
X52845Y-36588D01*
X52869Y-36683D01*
X52893Y-36731D01*
X52940Y-36779D01*
X53012Y-36802D01*
X53060Y-36802D01*
X53131Y-36779D01*
X53155Y-36755D01*
X53155Y-36588D01*
X53060Y-36588D01*
X53345Y-36660D02*
X53583Y-36660D01*
X53298Y-36802D02*
X53464Y-36302D01*
X53631Y-36802D01*
X54084Y-36755D02*
X54060Y-36779D01*
X53989Y-36802D01*
X53941Y-36802D01*
X53869Y-36779D01*
X53822Y-36731D01*
X53798Y-36683D01*
X53774Y-36588D01*
X53774Y-36517D01*
X53798Y-36421D01*
X53822Y-36374D01*
X53869Y-36326D01*
X53941Y-36302D01*
X53989Y-36302D01*
X54060Y-36326D01*
X54084Y-36350D01*
X54393Y-36564D02*
X54393Y-36802D01*
X54227Y-36302D02*
X54393Y-36564D01*
X54560Y-36302D01*
X52464Y-44202D02*
X52464Y-44607D01*
X52488Y-44655D01*
X52512Y-44679D01*
X52559Y-44702D01*
X52655Y-44702D01*
X52702Y-44679D01*
X52726Y-44655D01*
X52750Y-44607D01*
X52750Y-44202D01*
X52964Y-44560D02*
X53202Y-44560D01*
X52917Y-44702D02*
X53083Y-44202D01*
X53250Y-44702D01*
X53703Y-44702D02*
X53536Y-44464D01*
X53417Y-44702D02*
X53417Y-44202D01*
X53608Y-44202D01*
X53655Y-44226D01*
X53679Y-44250D01*
X53703Y-44298D01*
X53703Y-44369D01*
X53679Y-44417D01*
X53655Y-44440D01*
X53608Y-44464D01*
X53417Y-44464D01*
X53846Y-44202D02*
X54131Y-44202D01*
X53988Y-44702D02*
X53988Y-44202D01*
X54250Y-44202D02*
X54560Y-44202D01*
X54393Y-44393D01*
X54465Y-44393D01*
X54512Y-44417D01*
X54536Y-44440D01*
X54560Y-44488D01*
X54560Y-44607D01*
X54536Y-44655D01*
X54512Y-44679D01*
X54465Y-44702D01*
X54322Y-44702D01*
X54274Y-44679D01*
X54250Y-44655D01*
X52393Y-45502D02*
X52226Y-45264D01*
X52107Y-45502D02*
X52107Y-45002D01*
X52298Y-45002D01*
X52345Y-45026D01*
X52369Y-45050D01*
X52393Y-45098D01*
X52393Y-45169D01*
X52369Y-45217D01*
X52345Y-45240D01*
X52298Y-45264D01*
X52107Y-45264D01*
X52559Y-45002D02*
X52893Y-45502D01*
X52893Y-45002D02*
X52559Y-45502D01*
X53083Y-45312D02*
X53464Y-45312D01*
X53797Y-45002D02*
X53893Y-45002D01*
X53940Y-45026D01*
X53988Y-45074D01*
X54012Y-45169D01*
X54012Y-45336D01*
X53988Y-45431D01*
X53940Y-45479D01*
X53893Y-45502D01*
X53797Y-45502D01*
X53750Y-45479D01*
X53702Y-45431D01*
X53678Y-45336D01*
X53678Y-45169D01*
X53702Y-45074D01*
X53750Y-45026D01*
X53797Y-45002D01*
X54226Y-45002D02*
X54226Y-45407D01*
X54250Y-45455D01*
X54274Y-45479D01*
X54321Y-45502D01*
X54417Y-45502D01*
X54464Y-45479D01*
X54488Y-45455D01*
X54512Y-45407D01*
X54512Y-45002D01*
X54679Y-45002D02*
X54964Y-45002D01*
X54821Y-45502D02*
X54821Y-45002D01*
X52500Y-46302D02*
X52262Y-46302D01*
X52262Y-45802D01*
X52667Y-46040D02*
X52834Y-46040D01*
X52905Y-46302D02*
X52667Y-46302D01*
X52667Y-45802D01*
X52905Y-45802D01*
X53381Y-45826D02*
X53333Y-45802D01*
X53262Y-45802D01*
X53190Y-45826D01*
X53143Y-45874D01*
X53119Y-45921D01*
X53095Y-46017D01*
X53095Y-46088D01*
X53119Y-46183D01*
X53143Y-46231D01*
X53190Y-46279D01*
X53262Y-46302D01*
X53310Y-46302D01*
X53381Y-46279D01*
X53405Y-46255D01*
X53405Y-46088D01*
X53310Y-46088D01*
X53595Y-46160D02*
X53833Y-46160D01*
X53548Y-46302D02*
X53714Y-45802D01*
X53881Y-46302D01*
X54334Y-46255D02*
X54310Y-46279D01*
X54239Y-46302D01*
X54191Y-46302D01*
X54119Y-46279D01*
X54072Y-46231D01*
X54048Y-46183D01*
X54024Y-46088D01*
X54024Y-46017D01*
X54048Y-45921D01*
X54072Y-45874D01*
X54119Y-45826D01*
X54191Y-45802D01*
X54239Y-45802D01*
X54310Y-45826D01*
X54334Y-45850D01*
X54643Y-46064D02*
X54643Y-46302D01*
X54477Y-45802D02*
X54643Y-46064D01*
X54810Y-45802D01*
X52464Y-41952D02*
X52464Y-42357D01*
X52488Y-42405D01*
X52512Y-42429D01*
X52559Y-42452D01*
X52655Y-42452D01*
X52702Y-42429D01*
X52726Y-42405D01*
X52750Y-42357D01*
X52750Y-41952D01*
X52964Y-42310D02*
X53202Y-42310D01*
X52917Y-42452D02*
X53083Y-41952D01*
X53250Y-42452D01*
X53703Y-42452D02*
X53536Y-42214D01*
X53417Y-42452D02*
X53417Y-41952D01*
X53608Y-41952D01*
X53655Y-41976D01*
X53679Y-42000D01*
X53703Y-42048D01*
X53703Y-42119D01*
X53679Y-42167D01*
X53655Y-42190D01*
X53608Y-42214D01*
X53417Y-42214D01*
X53846Y-41952D02*
X54131Y-41952D01*
X53988Y-42452D02*
X53988Y-41952D01*
X54250Y-41952D02*
X54560Y-41952D01*
X54393Y-42143D01*
X54465Y-42143D01*
X54512Y-42167D01*
X54536Y-42190D01*
X54560Y-42238D01*
X54560Y-42357D01*
X54536Y-42405D01*
X54512Y-42429D01*
X54465Y-42452D01*
X54322Y-42452D01*
X54274Y-42429D01*
X54250Y-42405D01*
X52429Y-42752D02*
X52714Y-42752D01*
X52571Y-43252D02*
X52571Y-42752D01*
X52833Y-42752D02*
X53167Y-43252D01*
X53167Y-42752D02*
X52833Y-43252D01*
X53357Y-43062D02*
X53738Y-43062D01*
X53976Y-43252D02*
X53976Y-42752D01*
X54214Y-43252D02*
X54214Y-42752D01*
X54500Y-43252D01*
X54500Y-42752D01*
X52500Y-44052D02*
X52262Y-44052D01*
X52262Y-43552D01*
X52667Y-43790D02*
X52834Y-43790D01*
X52905Y-44052D02*
X52667Y-44052D01*
X52667Y-43552D01*
X52905Y-43552D01*
X53381Y-43576D02*
X53333Y-43552D01*
X53262Y-43552D01*
X53190Y-43576D01*
X53143Y-43624D01*
X53119Y-43671D01*
X53095Y-43767D01*
X53095Y-43838D01*
X53119Y-43933D01*
X53143Y-43981D01*
X53190Y-44029D01*
X53262Y-44052D01*
X53310Y-44052D01*
X53381Y-44029D01*
X53405Y-44005D01*
X53405Y-43838D01*
X53310Y-43838D01*
X53595Y-43910D02*
X53833Y-43910D01*
X53548Y-44052D02*
X53714Y-43552D01*
X53881Y-44052D01*
X54334Y-44005D02*
X54310Y-44029D01*
X54239Y-44052D01*
X54191Y-44052D01*
X54119Y-44029D01*
X54072Y-43981D01*
X54048Y-43933D01*
X54024Y-43838D01*
X54024Y-43767D01*
X54048Y-43671D01*
X54072Y-43624D01*
X54119Y-43576D01*
X54191Y-43552D01*
X54239Y-43552D01*
X54310Y-43576D01*
X54334Y-43600D01*
X54643Y-43814D02*
X54643Y-44052D01*
X54477Y-43552D02*
X54643Y-43814D01*
X54810Y-43552D01*
X54965Y-40202D02*
X54679Y-40202D01*
X54822Y-40202D02*
X54822Y-39702D01*
X54774Y-39774D01*
X54727Y-39821D01*
X54679Y-39845D01*
X55155Y-39750D02*
X55179Y-39726D01*
X55227Y-39702D01*
X55346Y-39702D01*
X55393Y-39726D01*
X55417Y-39750D01*
X55441Y-39798D01*
X55441Y-39845D01*
X55417Y-39917D01*
X55131Y-40202D01*
X55441Y-40202D01*
X55607Y-39869D02*
X55726Y-40202D01*
X55846Y-39869D01*
X54786Y-40702D02*
X55096Y-40702D01*
X54929Y-40893D01*
X55001Y-40893D01*
X55048Y-40917D01*
X55072Y-40940D01*
X55096Y-40988D01*
X55096Y-41107D01*
X55072Y-41155D01*
X55048Y-41179D01*
X55001Y-41202D01*
X54858Y-41202D01*
X54810Y-41179D01*
X54786Y-41155D01*
X55310Y-41155D02*
X55334Y-41179D01*
X55310Y-41202D01*
X55286Y-41179D01*
X55310Y-41155D01*
X55310Y-41202D01*
X55500Y-40702D02*
X55810Y-40702D01*
X55643Y-40893D01*
X55715Y-40893D01*
X55762Y-40917D01*
X55786Y-40940D01*
X55810Y-40988D01*
X55810Y-41107D01*
X55786Y-41155D01*
X55762Y-41179D01*
X55715Y-41202D01*
X55572Y-41202D01*
X55524Y-41179D01*
X55500Y-41155D01*
X55976Y-40869D02*
X56095Y-41202D01*
X56215Y-40869D01*
X55929Y-41452D02*
X55691Y-41452D01*
X55667Y-41690D01*
X55691Y-41667D01*
X55739Y-41643D01*
X55858Y-41643D01*
X55905Y-41667D01*
X55929Y-41690D01*
X55953Y-41738D01*
X55953Y-41857D01*
X55929Y-41905D01*
X55905Y-41929D01*
X55858Y-41952D01*
X55739Y-41952D01*
X55691Y-41929D01*
X55667Y-41905D01*
X56119Y-41619D02*
X56238Y-41952D01*
X56358Y-41619D01*
X56012Y-42417D02*
X56489Y-42417D01*
X56108Y-42560D02*
X56393Y-42560D01*
X56251Y-42202D02*
X56251Y-42417D01*
X56298Y-42702D02*
X56203Y-42702D01*
X55762Y-35167D02*
X56239Y-35167D01*
X55858Y-35310D02*
X56143Y-35310D01*
X56001Y-34952D02*
X56001Y-35167D01*
X56048Y-35452D02*
X55953Y-35452D01*
X21262Y-31917D02*
X21739Y-31917D01*
X21358Y-32060D02*
X21643Y-32060D01*
X21501Y-31702D02*
X21501Y-31917D01*
X21548Y-32202D02*
X21453Y-32202D01*
X21262Y-39417D02*
X21739Y-39417D01*
X21358Y-39560D02*
X21643Y-39560D01*
X21501Y-39202D02*
X21501Y-39417D01*
X21548Y-39702D02*
X21453Y-39702D01*
X21262Y-42417D02*
X21739Y-42417D01*
X21358Y-42560D02*
X21643Y-42560D01*
X21501Y-42202D02*
X21501Y-42417D01*
X21548Y-42702D02*
X21453Y-42702D01*
X29560Y-38012D02*
X29941Y-38012D01*
X29751Y-38202D02*
X29751Y-37821D01*
X29512Y-38717D02*
X29989Y-38717D01*
X29608Y-38860D02*
X29893Y-38860D01*
X29751Y-38502D02*
X29751Y-38717D01*
X29798Y-39002D02*
X29703Y-39002D01*
X31310Y-36512D02*
X31691Y-36512D01*
X31501Y-36702D02*
X31501Y-36321D01*
X31262Y-37217D02*
X31739Y-37217D01*
X31358Y-37360D02*
X31643Y-37360D01*
X31501Y-37002D02*
X31501Y-37217D01*
X31548Y-37502D02*
X31453Y-37502D01*
X31310Y-34262D02*
X31691Y-34262D01*
X31501Y-34452D02*
X31501Y-34071D01*
X31262Y-34967D02*
X31739Y-34967D01*
X31358Y-35110D02*
X31643Y-35110D01*
X31501Y-34752D02*
X31501Y-34967D01*
X31548Y-35252D02*
X31453Y-35252D01*
X31393Y-38560D02*
X31631Y-38560D01*
X31346Y-38702D02*
X31512Y-38202D01*
X31679Y-38702D01*
X31822Y-38250D02*
X31846Y-38226D01*
X31894Y-38202D01*
X32013Y-38202D01*
X32060Y-38226D01*
X32084Y-38250D01*
X32108Y-38298D01*
X32108Y-38345D01*
X32084Y-38417D01*
X31798Y-38702D01*
X32108Y-38702D01*
X30393Y-35810D02*
X30631Y-35810D01*
X30346Y-35952D02*
X30512Y-35452D01*
X30679Y-35952D01*
X31108Y-35952D02*
X30822Y-35952D01*
X30965Y-35952D02*
X30965Y-35452D01*
X30917Y-35524D01*
X30870Y-35571D01*
X30822Y-35595D01*
X30393Y-33810D02*
X30631Y-33810D01*
X30346Y-33952D02*
X30512Y-33452D01*
X30679Y-33952D01*
X30941Y-33452D02*
X30989Y-33452D01*
X31037Y-33476D01*
X31060Y-33500D01*
X31084Y-33548D01*
X31108Y-33643D01*
X31108Y-33762D01*
X31084Y-33857D01*
X31060Y-33905D01*
X31037Y-33929D01*
X30989Y-33952D01*
X30941Y-33952D01*
X30894Y-33929D01*
X30870Y-33905D01*
X30846Y-33857D01*
X30822Y-33762D01*
X30822Y-33643D01*
X30846Y-33548D01*
X30870Y-33500D01*
X30894Y-33476D01*
X30941Y-33452D01*
G54D12*
X58000Y-35000D02*
X58000Y-50000D01*
G54D13*
X31250Y-48750D02*
X31226Y-48992D01*
X31155Y-49226D01*
X31041Y-49441D01*
X30886Y-49630D01*
X30698Y-49786D01*
X30484Y-49902D01*
X30251Y-49974D01*
X30008Y-49999D01*
X29766Y-49977D01*
X29532Y-49908D01*
X29316Y-49795D01*
X29126Y-49643D01*
X28969Y-49456D01*
X28852Y-49242D01*
X28778Y-49009D01*
X28751Y-48767D01*
X28771Y-48525D01*
X28838Y-48290D01*
X28950Y-48073D01*
X29101Y-47882D01*
X29287Y-47724D01*
X29500Y-47605D01*
X29732Y-47530D01*
X29974Y-47501D01*
X30217Y-47519D01*
X30452Y-47585D01*
X30669Y-47695D01*
X30862Y-47845D01*
X31021Y-48030D01*
X31141Y-48242D01*
X31218Y-48474D01*
X31249Y-48716D01*
X31250Y-48750D01*
X28250Y-48750D02*
X28226Y-48992D01*
X28155Y-49226D01*
X28041Y-49441D01*
X27886Y-49630D01*
X27698Y-49786D01*
X27484Y-49902D01*
X27251Y-49974D01*
X27008Y-49999D01*
X26766Y-49977D01*
X26532Y-49908D01*
X26316Y-49795D01*
X26126Y-49643D01*
X25969Y-49456D01*
X25852Y-49242D01*
X25778Y-49009D01*
X25751Y-48767D01*
X25771Y-48525D01*
X25838Y-48290D01*
X25950Y-48073D01*
X26101Y-47882D01*
X26287Y-47724D01*
X26500Y-47605D01*
X26732Y-47530D01*
X26974Y-47501D01*
X27217Y-47519D01*
X27452Y-47585D01*
X27669Y-47695D01*
X27862Y-47845D01*
X28021Y-48030D01*
X28141Y-48242D01*
X28218Y-48474D01*
X28249Y-48716D01*
X28250Y-48750D01*
X19000Y-46000D02*
X23750Y-46000D01*
X23750Y-46000D02*
X23750Y-51000D01*
X19000Y-33500D02*
X22750Y-33500D01*
X22750Y-33500D02*
X22750Y-38500D01*
X22750Y-38500D02*
X19000Y-38500D01*
X43550Y-38500D02*
X43550Y-41500D01*
X43550Y-41500D02*
X45550Y-41500D01*
X45550Y-41500D02*
X45550Y-38500D01*
X45550Y-38500D02*
X43550Y-38500D01*
X49000Y-40000D02*
X48984Y-40155D01*
X48939Y-40304D01*
X48866Y-40442D01*
X48767Y-40563D01*
X48647Y-40663D01*
X48510Y-40737D01*
X48360Y-40783D01*
X48205Y-40799D01*
X48051Y-40785D01*
X47901Y-40741D01*
X47762Y-40669D01*
X47641Y-40571D01*
X47540Y-40451D01*
X47465Y-40315D01*
X47418Y-40166D01*
X47401Y-40011D01*
X47414Y-39856D01*
X47457Y-39706D01*
X47528Y-39567D01*
X47625Y-39445D01*
X47744Y-39344D01*
X47880Y-39267D01*
X48029Y-39219D01*
X48184Y-39201D01*
X48338Y-39213D01*
X48489Y-39255D01*
X48628Y-39325D01*
X48751Y-39421D01*
X48853Y-39539D01*
X48930Y-39675D01*
X48980Y-39823D01*
X48999Y-39978D01*
X49000Y-40000D01*
G54D12*
X58000Y-51000D02*
X19000Y-51000D01*
X57500Y-30000D02*
X19000Y-30000D01*
X58000Y-35000D02*
X58000Y-30500D01*
X58000Y-30500D02*
X57500Y-30000D01*
X19000Y-51000D02*
X19000Y-30000D01*
X58000Y-50000D02*
X58000Y-51000D01*
G54D10*
X55900Y-37000D02*
X55900Y-38000D01*
X55800Y-36900D02*
X55200Y-36900D01*
X55800Y-38100D02*
X55200Y-38100D01*
X55100Y-38000D02*
X55100Y-37000D01*
X55200Y-36900D02*
X55192Y-36901D01*
X55183Y-36902D01*
X55175Y-36904D01*
X55166Y-36907D01*
X55158Y-36910D01*
X55151Y-36914D01*
X55143Y-36919D01*
X55136Y-36924D01*
X55130Y-36930D01*
X55124Y-36936D01*
X55119Y-36943D01*
X55114Y-36951D01*
X55110Y-36958D01*
X55107Y-36966D01*
X55104Y-36975D01*
X55102Y-36983D01*
X55101Y-36992D01*
X55100Y-37000D01*
X55100Y-38000D02*
X55101Y-38008D01*
X55102Y-38017D01*
X55104Y-38025D01*
X55107Y-38034D01*
X55110Y-38042D01*
X55114Y-38049D01*
X55119Y-38057D01*
X55124Y-38064D01*
X55130Y-38070D01*
X55136Y-38076D01*
X55143Y-38081D01*
X55151Y-38086D01*
X55158Y-38090D01*
X55166Y-38093D01*
X55175Y-38096D01*
X55183Y-38098D01*
X55192Y-38099D01*
X55200Y-38100D01*
X55800Y-38100D02*
X55808Y-38099D01*
X55817Y-38098D01*
X55825Y-38096D01*
X55834Y-38093D01*
X55842Y-38090D01*
X55850Y-38086D01*
X55857Y-38081D01*
X55864Y-38076D01*
X55870Y-38070D01*
X55876Y-38064D01*
X55881Y-38057D01*
X55886Y-38049D01*
X55890Y-38042D01*
X55893Y-38034D01*
X55896Y-38025D01*
X55898Y-38017D01*
X55899Y-38008D01*
X55900Y-38000D01*
X55900Y-37000D02*
X55899Y-36992D01*
X55898Y-36983D01*
X55896Y-36975D01*
X55893Y-36966D01*
X55890Y-36958D01*
X55886Y-36951D01*
X55881Y-36943D01*
X55876Y-36936D01*
X55870Y-36930D01*
X55864Y-36924D01*
X55857Y-36919D01*
X55850Y-36914D01*
X55842Y-36910D01*
X55834Y-36907D01*
X55825Y-36904D01*
X55817Y-36902D01*
X55808Y-36901D01*
X55800Y-36900D01*
X55900Y-35500D02*
X55900Y-36500D01*
X55800Y-35400D02*
X55200Y-35400D01*
X55800Y-36600D02*
X55200Y-36600D01*
X55100Y-36500D02*
X55100Y-35500D01*
X55200Y-35400D02*
X55192Y-35401D01*
X55183Y-35402D01*
X55175Y-35404D01*
X55166Y-35407D01*
X55158Y-35410D01*
X55151Y-35414D01*
X55143Y-35419D01*
X55136Y-35424D01*
X55130Y-35430D01*
X55124Y-35436D01*
X55119Y-35443D01*
X55114Y-35451D01*
X55110Y-35458D01*
X55107Y-35466D01*
X55104Y-35475D01*
X55102Y-35483D01*
X55101Y-35492D01*
X55100Y-35500D01*
X55100Y-36500D02*
X55101Y-36508D01*
X55102Y-36517D01*
X55104Y-36525D01*
X55107Y-36534D01*
X55110Y-36542D01*
X55114Y-36549D01*
X55119Y-36557D01*
X55124Y-36564D01*
X55130Y-36570D01*
X55136Y-36576D01*
X55143Y-36581D01*
X55151Y-36586D01*
X55158Y-36590D01*
X55166Y-36593D01*
X55175Y-36596D01*
X55183Y-36598D01*
X55192Y-36599D01*
X55200Y-36600D01*
X55800Y-36600D02*
X55808Y-36599D01*
X55817Y-36598D01*
X55825Y-36596D01*
X55834Y-36593D01*
X55842Y-36590D01*
X55850Y-36586D01*
X55857Y-36581D01*
X55864Y-36576D01*
X55870Y-36570D01*
X55876Y-36564D01*
X55881Y-36557D01*
X55886Y-36549D01*
X55890Y-36542D01*
X55893Y-36534D01*
X55896Y-36525D01*
X55898Y-36517D01*
X55899Y-36508D01*
X55900Y-36500D01*
X55900Y-35500D02*
X55899Y-35492D01*
X55898Y-35483D01*
X55896Y-35475D01*
X55893Y-35466D01*
X55890Y-35458D01*
X55886Y-35451D01*
X55881Y-35443D01*
X55876Y-35436D01*
X55870Y-35430D01*
X55864Y-35424D01*
X55857Y-35419D01*
X55850Y-35414D01*
X55842Y-35410D01*
X55834Y-35407D01*
X55825Y-35404D01*
X55817Y-35402D01*
X55808Y-35401D01*
X55800Y-35400D01*
X55900Y-44500D02*
X55900Y-45500D01*
X55800Y-44400D02*
X55200Y-44400D01*
X55800Y-45600D02*
X55200Y-45600D01*
X55100Y-45500D02*
X55100Y-44500D01*
X55200Y-44400D02*
X55192Y-44401D01*
X55183Y-44402D01*
X55175Y-44404D01*
X55166Y-44407D01*
X55158Y-44410D01*
X55151Y-44414D01*
X55143Y-44419D01*
X55136Y-44424D01*
X55130Y-44430D01*
X55124Y-44436D01*
X55119Y-44443D01*
X55114Y-44451D01*
X55110Y-44458D01*
X55107Y-44466D01*
X55104Y-44475D01*
X55102Y-44483D01*
X55101Y-44492D01*
X55100Y-44500D01*
X55100Y-45500D02*
X55101Y-45508D01*
X55102Y-45517D01*
X55104Y-45525D01*
X55107Y-45534D01*
X55110Y-45542D01*
X55114Y-45549D01*
X55119Y-45557D01*
X55124Y-45564D01*
X55130Y-45570D01*
X55136Y-45576D01*
X55143Y-45581D01*
X55151Y-45586D01*
X55158Y-45590D01*
X55166Y-45593D01*
X55175Y-45596D01*
X55183Y-45598D01*
X55192Y-45599D01*
X55200Y-45600D01*
X55800Y-45600D02*
X55808Y-45599D01*
X55817Y-45598D01*
X55825Y-45596D01*
X55834Y-45593D01*
X55842Y-45590D01*
X55850Y-45586D01*
X55857Y-45581D01*
X55864Y-45576D01*
X55870Y-45570D01*
X55876Y-45564D01*
X55881Y-45557D01*
X55886Y-45549D01*
X55890Y-45542D01*
X55893Y-45534D01*
X55896Y-45525D01*
X55898Y-45517D01*
X55899Y-45508D01*
X55900Y-45500D01*
X55900Y-44500D02*
X55899Y-44492D01*
X55898Y-44483D01*
X55896Y-44475D01*
X55893Y-44466D01*
X55890Y-44458D01*
X55886Y-44451D01*
X55881Y-44443D01*
X55876Y-44436D01*
X55870Y-44430D01*
X55864Y-44424D01*
X55857Y-44419D01*
X55850Y-44414D01*
X55842Y-44410D01*
X55834Y-44407D01*
X55825Y-44404D01*
X55817Y-44402D01*
X55808Y-44401D01*
X55800Y-44400D01*
X55900Y-42500D02*
X55900Y-43500D01*
X55800Y-42400D02*
X55200Y-42400D01*
X55800Y-43600D02*
X55200Y-43600D01*
X55100Y-43500D02*
X55100Y-42500D01*
X55200Y-42400D02*
X55192Y-42401D01*
X55183Y-42402D01*
X55175Y-42404D01*
X55166Y-42407D01*
X55158Y-42410D01*
X55151Y-42414D01*
X55143Y-42419D01*
X55136Y-42424D01*
X55130Y-42430D01*
X55124Y-42436D01*
X55119Y-42443D01*
X55114Y-42451D01*
X55110Y-42458D01*
X55107Y-42466D01*
X55104Y-42475D01*
X55102Y-42483D01*
X55101Y-42492D01*
X55100Y-42500D01*
X55100Y-43500D02*
X55101Y-43508D01*
X55102Y-43517D01*
X55104Y-43525D01*
X55107Y-43534D01*
X55110Y-43542D01*
X55114Y-43549D01*
X55119Y-43557D01*
X55124Y-43564D01*
X55130Y-43570D01*
X55136Y-43576D01*
X55143Y-43581D01*
X55151Y-43586D01*
X55158Y-43590D01*
X55166Y-43593D01*
X55175Y-43596D01*
X55183Y-43598D01*
X55192Y-43599D01*
X55200Y-43600D01*
X55800Y-43600D02*
X55808Y-43599D01*
X55817Y-43598D01*
X55825Y-43596D01*
X55834Y-43593D01*
X55842Y-43590D01*
X55850Y-43586D01*
X55857Y-43581D01*
X55864Y-43576D01*
X55870Y-43570D01*
X55876Y-43564D01*
X55881Y-43557D01*
X55886Y-43549D01*
X55890Y-43542D01*
X55893Y-43534D01*
X55896Y-43525D01*
X55898Y-43517D01*
X55899Y-43508D01*
X55900Y-43500D01*
X55900Y-42500D02*
X55899Y-42492D01*
X55898Y-42483D01*
X55896Y-42475D01*
X55893Y-42466D01*
X55890Y-42458D01*
X55886Y-42451D01*
X55881Y-42443D01*
X55876Y-42436D01*
X55870Y-42430D01*
X55864Y-42424D01*
X55857Y-42419D01*
X55850Y-42414D01*
X55842Y-42410D01*
X55834Y-42407D01*
X55825Y-42404D01*
X55817Y-42402D01*
X55808Y-42401D01*
X55800Y-42400D01*
X31150Y-36250D02*
X31150Y-37250D01*
X31050Y-36150D02*
X30450Y-36150D01*
X31050Y-37350D02*
X30450Y-37350D01*
X30350Y-37250D02*
X30350Y-36250D01*
X30450Y-36150D02*
X30442Y-36151D01*
X30433Y-36152D01*
X30425Y-36154D01*
X30416Y-36157D01*
X30408Y-36160D01*
X30401Y-36164D01*
X30393Y-36169D01*
X30386Y-36174D01*
X30380Y-36180D01*
X30374Y-36186D01*
X30369Y-36193D01*
X30364Y-36201D01*
X30360Y-36208D01*
X30357Y-36216D01*
X30354Y-36225D01*
X30352Y-36233D01*
X30351Y-36242D01*
X30350Y-36250D01*
X30350Y-37250D02*
X30351Y-37258D01*
X30352Y-37267D01*
X30354Y-37275D01*
X30357Y-37284D01*
X30360Y-37292D01*
X30364Y-37299D01*
X30369Y-37307D01*
X30374Y-37314D01*
X30380Y-37320D01*
X30386Y-37326D01*
X30393Y-37331D01*
X30401Y-37336D01*
X30408Y-37340D01*
X30416Y-37343D01*
X30425Y-37346D01*
X30433Y-37348D01*
X30442Y-37349D01*
X30450Y-37350D01*
X31050Y-37350D02*
X31058Y-37349D01*
X31067Y-37348D01*
X31075Y-37346D01*
X31084Y-37343D01*
X31092Y-37340D01*
X31100Y-37336D01*
X31107Y-37331D01*
X31114Y-37326D01*
X31120Y-37320D01*
X31126Y-37314D01*
X31131Y-37307D01*
X31136Y-37299D01*
X31140Y-37292D01*
X31143Y-37284D01*
X31146Y-37275D01*
X31148Y-37267D01*
X31149Y-37258D01*
X31150Y-37250D01*
X31150Y-36250D02*
X31149Y-36242D01*
X31148Y-36233D01*
X31146Y-36225D01*
X31143Y-36216D01*
X31140Y-36208D01*
X31136Y-36201D01*
X31131Y-36193D01*
X31126Y-36186D01*
X31120Y-36180D01*
X31114Y-36174D01*
X31107Y-36169D01*
X31100Y-36164D01*
X31092Y-36160D01*
X31084Y-36157D01*
X31075Y-36154D01*
X31067Y-36152D01*
X31058Y-36151D01*
X31050Y-36150D01*
X31150Y-34250D02*
X31150Y-35250D01*
X31050Y-34150D02*
X30450Y-34150D01*
X31050Y-35350D02*
X30450Y-35350D01*
X30350Y-35250D02*
X30350Y-34250D01*
X30450Y-34150D02*
X30442Y-34151D01*
X30433Y-34152D01*
X30425Y-34154D01*
X30416Y-34157D01*
X30408Y-34160D01*
X30401Y-34164D01*
X30393Y-34169D01*
X30386Y-34174D01*
X30380Y-34180D01*
X30374Y-34186D01*
X30369Y-34193D01*
X30364Y-34201D01*
X30360Y-34208D01*
X30357Y-34216D01*
X30354Y-34225D01*
X30352Y-34233D01*
X30351Y-34242D01*
X30350Y-34250D01*
X30350Y-35250D02*
X30351Y-35258D01*
X30352Y-35267D01*
X30354Y-35275D01*
X30357Y-35284D01*
X30360Y-35292D01*
X30364Y-35299D01*
X30369Y-35307D01*
X30374Y-35314D01*
X30380Y-35320D01*
X30386Y-35326D01*
X30393Y-35331D01*
X30401Y-35336D01*
X30408Y-35340D01*
X30416Y-35343D01*
X30425Y-35346D01*
X30433Y-35348D01*
X30442Y-35349D01*
X30450Y-35350D01*
X31050Y-35350D02*
X31058Y-35349D01*
X31067Y-35348D01*
X31075Y-35346D01*
X31084Y-35343D01*
X31092Y-35340D01*
X31100Y-35336D01*
X31107Y-35331D01*
X31114Y-35326D01*
X31120Y-35320D01*
X31126Y-35314D01*
X31131Y-35307D01*
X31136Y-35299D01*
X31140Y-35292D01*
X31143Y-35284D01*
X31146Y-35275D01*
X31148Y-35267D01*
X31149Y-35258D01*
X31150Y-35250D01*
X31150Y-34250D02*
X31149Y-34242D01*
X31148Y-34233D01*
X31146Y-34225D01*
X31143Y-34216D01*
X31140Y-34208D01*
X31136Y-34201D01*
X31131Y-34193D01*
X31126Y-34186D01*
X31120Y-34180D01*
X31114Y-34174D01*
X31107Y-34169D01*
X31100Y-34164D01*
X31092Y-34160D01*
X31084Y-34157D01*
X31075Y-34154D01*
X31067Y-34152D01*
X31058Y-34151D01*
X31050Y-34150D01*
X31150Y-38000D02*
X31150Y-39000D01*
X31050Y-37900D02*
X30450Y-37900D01*
X31050Y-39100D02*
X30450Y-39100D01*
X30350Y-39000D02*
X30350Y-38000D01*
X30450Y-37900D02*
X30442Y-37901D01*
X30433Y-37902D01*
X30425Y-37904D01*
X30416Y-37907D01*
X30408Y-37910D01*
X30401Y-37914D01*
X30393Y-37919D01*
X30386Y-37924D01*
X30380Y-37930D01*
X30374Y-37936D01*
X30369Y-37943D01*
X30364Y-37951D01*
X30360Y-37958D01*
X30357Y-37966D01*
X30354Y-37975D01*
X30352Y-37983D01*
X30351Y-37992D01*
X30350Y-38000D01*
X30350Y-39000D02*
X30351Y-39008D01*
X30352Y-39017D01*
X30354Y-39025D01*
X30357Y-39034D01*
X30360Y-39042D01*
X30364Y-39049D01*
X30369Y-39057D01*
X30374Y-39064D01*
X30380Y-39070D01*
X30386Y-39076D01*
X30393Y-39081D01*
X30401Y-39086D01*
X30408Y-39090D01*
X30416Y-39093D01*
X30425Y-39096D01*
X30433Y-39098D01*
X30442Y-39099D01*
X30450Y-39100D01*
X31050Y-39100D02*
X31058Y-39099D01*
X31067Y-39098D01*
X31075Y-39096D01*
X31084Y-39093D01*
X31092Y-39090D01*
X31100Y-39086D01*
X31107Y-39081D01*
X31114Y-39076D01*
X31120Y-39070D01*
X31126Y-39064D01*
X31131Y-39057D01*
X31136Y-39049D01*
X31140Y-39042D01*
X31143Y-39034D01*
X31146Y-39025D01*
X31148Y-39017D01*
X31149Y-39008D01*
X31150Y-39000D01*
X31150Y-38000D02*
X31149Y-37992D01*
X31148Y-37983D01*
X31146Y-37975D01*
X31143Y-37966D01*
X31140Y-37958D01*
X31136Y-37951D01*
X31131Y-37943D01*
X31126Y-37936D01*
X31120Y-37930D01*
X31114Y-37924D01*
X31107Y-37919D01*
X31100Y-37914D01*
X31092Y-37910D01*
X31084Y-37907D01*
X31075Y-37904D01*
X31067Y-37902D01*
X31058Y-37901D01*
X31050Y-37900D01*
G54D13*
X33050Y-35450D02*
X33000Y-35450D01*
X33000Y-35450D02*
X33000Y-37550D01*
X34500Y-37550D02*
X34500Y-35450D01*
X34500Y-35450D02*
X33050Y-35450D01*
X33950Y-35450D02*
X33950Y-35650D01*
X33950Y-35650D02*
X33550Y-35650D01*
X33550Y-35650D02*
X33550Y-35450D01*
X34500Y-37550D02*
X33000Y-37550D01*
X33150Y-35050D02*
X33149Y-35059D01*
X33146Y-35069D01*
X33141Y-35077D01*
X33135Y-35085D01*
X33127Y-35091D01*
X33119Y-35096D01*
X33110Y-35098D01*
X33100Y-35099D01*
X33091Y-35099D01*
X33082Y-35096D01*
X33073Y-35091D01*
X33066Y-35085D01*
X33059Y-35078D01*
X33055Y-35069D01*
X33052Y-35060D01*
X33051Y-35050D01*
X33051Y-35041D01*
X33054Y-35032D01*
X33058Y-35023D01*
X33065Y-35016D01*
X33072Y-35009D01*
X33080Y-35005D01*
X33090Y-35002D01*
X33099Y-35001D01*
X33108Y-35001D01*
X33118Y-35004D01*
X33126Y-35008D01*
X33134Y-35014D01*
X33140Y-35022D01*
X33145Y-35030D01*
X33148Y-35039D01*
X33149Y-35049D01*
X33150Y-35050D01*
X33550Y-35050D02*
X33150Y-35050D01*
X33150Y-35050D02*
X33150Y-34450D01*
X33150Y-34450D02*
X33550Y-34450D01*
X33950Y-34450D02*
X34350Y-34450D01*
X34350Y-34450D02*
X34350Y-35050D01*
X34350Y-35050D02*
X33950Y-35050D01*
G54D14*
X20000Y-46000D02*
X20000Y-38000D01*
X20000Y-38000D02*
X21000Y-38000D01*
X21000Y-38000D02*
X21000Y-46000D01*
X21000Y-46000D02*
X20000Y-46000D01*
X21000Y-45000D02*
X20000Y-45000D01*
X56500Y-32000D02*
X57500Y-32000D01*
X57500Y-32000D02*
X57500Y-38000D01*
X57500Y-38000D02*
X56500Y-38000D01*
X56500Y-38000D02*
X56500Y-32000D01*
X56500Y-33000D02*
X57500Y-33000D01*
X56500Y-39500D02*
X57500Y-39500D01*
X57500Y-39500D02*
X57500Y-45500D01*
X57500Y-45500D02*
X56500Y-45500D01*
X56500Y-45500D02*
X56500Y-39500D01*
X56500Y-40500D02*
X57500Y-40500D01*
X20000Y-31500D02*
X20000Y-30500D01*
X20000Y-30500D02*
X23000Y-30500D01*
X23000Y-30500D02*
X23000Y-31500D01*
X23000Y-31500D02*
X20000Y-31500D01*
X21000Y-30500D02*
X21000Y-31500D01*
X19771Y-28714D02*
X19857Y-28743D01*
X20000Y-28743D01*
X20057Y-28714D01*
X20086Y-28686D01*
X20114Y-28629D01*
X20114Y-28571D01*
X20086Y-28514D01*
X20057Y-28486D01*
X20000Y-28457D01*
X19886Y-28429D01*
X19828Y-28400D01*
X19800Y-28371D01*
X19771Y-28314D01*
X19771Y-28257D01*
X19800Y-28200D01*
X19828Y-28171D01*
X19886Y-28143D01*
X20028Y-28143D01*
X20114Y-28171D01*
X20371Y-28743D02*
X20371Y-28143D01*
X20371Y-28429D02*
X20714Y-28429D01*
X20714Y-28743D02*
X20714Y-28143D01*
X21000Y-28743D02*
X21000Y-28143D01*
X21286Y-28429D02*
X21486Y-28429D01*
X21572Y-28743D02*
X21286Y-28743D01*
X21286Y-28143D01*
X21572Y-28143D01*
X22115Y-28743D02*
X21829Y-28743D01*
X21829Y-28143D01*
X22315Y-28743D02*
X22315Y-28143D01*
X22458Y-28143D01*
X22543Y-28171D01*
X22601Y-28229D01*
X22629Y-28286D01*
X22658Y-28400D01*
X22658Y-28486D01*
X22629Y-28600D01*
X22601Y-28657D01*
X22543Y-28714D01*
X22458Y-28743D01*
X22315Y-28743D01*
X23229Y-28743D02*
X22886Y-28743D01*
X23058Y-28743D02*
X23058Y-28143D01*
X23001Y-28229D01*
X22943Y-28286D01*
X22886Y-28314D01*
G54D15*
X54825Y-37733D02*
X54939Y-37733D01*
X54962Y-37741D01*
X54977Y-37756D01*
X54985Y-37779D01*
X54985Y-37794D01*
X54985Y-37657D02*
X54825Y-37657D01*
X54825Y-37596D01*
X54832Y-37581D01*
X54840Y-37573D01*
X54855Y-37565D01*
X54878Y-37565D01*
X54893Y-37573D01*
X54901Y-37581D01*
X54909Y-37596D01*
X54909Y-37657D01*
X54840Y-37505D02*
X54832Y-37497D01*
X54825Y-37482D01*
X54825Y-37444D01*
X54832Y-37428D01*
X54840Y-37421D01*
X54855Y-37413D01*
X54870Y-37413D01*
X54893Y-37421D01*
X54985Y-37512D01*
X54985Y-37413D01*
G54D16*
X55467Y-37767D02*
X55503Y-37767D01*
X55510Y-37769D01*
X55515Y-37774D01*
X55517Y-37781D01*
X55517Y-37786D01*
X55467Y-37743D02*
X55508Y-37743D01*
X55512Y-37741D01*
X55515Y-37738D01*
X55517Y-37734D01*
X55517Y-37724D01*
X55515Y-37719D01*
X55512Y-37717D01*
X55508Y-37715D01*
X55467Y-37715D01*
X55517Y-37691D02*
X55467Y-37691D01*
X55503Y-37674D01*
X55467Y-37658D01*
X55517Y-37658D01*
X55517Y-37634D02*
X55467Y-37634D01*
X55467Y-37615D01*
X55470Y-37610D01*
X55472Y-37608D01*
X55477Y-37606D01*
X55484Y-37606D01*
X55489Y-37608D01*
X55491Y-37610D01*
X55493Y-37615D01*
X55493Y-37634D01*
X55491Y-37584D02*
X55491Y-37567D01*
X55517Y-37560D02*
X55517Y-37584D01*
X55467Y-37584D01*
X55467Y-37560D01*
X55517Y-37511D02*
X55493Y-37527D01*
X55517Y-37539D02*
X55467Y-37539D01*
X55467Y-37520D01*
X55470Y-37515D01*
X55472Y-37513D01*
X55477Y-37511D01*
X55484Y-37511D01*
X55489Y-37513D01*
X55491Y-37515D01*
X55493Y-37520D01*
X55493Y-37539D01*
X55498Y-37489D02*
X55498Y-37451D01*
X55467Y-37432D02*
X55467Y-37401D01*
X55486Y-37418D01*
X55486Y-37410D01*
X55489Y-37406D01*
X55491Y-37403D01*
X55496Y-37401D01*
X55508Y-37401D01*
X55512Y-37403D01*
X55515Y-37406D01*
X55517Y-37410D01*
X55517Y-37425D01*
X55515Y-37429D01*
X55512Y-37432D01*
X55515Y-37381D02*
X55517Y-37374D01*
X55517Y-37362D01*
X55515Y-37358D01*
X55512Y-37355D01*
X55508Y-37353D01*
X55503Y-37353D01*
X55498Y-37355D01*
X55496Y-37358D01*
X55493Y-37362D01*
X55491Y-37372D01*
X55489Y-37377D01*
X55486Y-37379D01*
X55482Y-37381D01*
X55477Y-37381D01*
X55472Y-37379D01*
X55470Y-37377D01*
X55467Y-37372D01*
X55467Y-37360D01*
X55470Y-37353D01*
X55517Y-37331D02*
X55467Y-37331D01*
X55503Y-37314D01*
X55467Y-37298D01*
X55517Y-37298D01*
X55517Y-37274D02*
X55467Y-37274D01*
X55467Y-37262D01*
X55470Y-37255D01*
X55474Y-37250D01*
X55479Y-37248D01*
X55489Y-37246D01*
X55496Y-37246D01*
X55505Y-37248D01*
X55510Y-37250D01*
X55515Y-37255D01*
X55517Y-37262D01*
X55517Y-37274D01*
G54D15*
X56128Y-37939D02*
X56174Y-37817D01*
X56220Y-37939D01*
X56075Y-37764D02*
X56235Y-37710D01*
X56075Y-37657D01*
X56189Y-37612D02*
X56189Y-37535D01*
X56235Y-37627D02*
X56075Y-37573D01*
X56235Y-37520D01*
X56235Y-37391D02*
X56235Y-37467D01*
X56075Y-37467D01*
X56075Y-37337D02*
X56204Y-37337D01*
X56220Y-37329D01*
X56227Y-37322D01*
X56235Y-37306D01*
X56235Y-37276D01*
X56227Y-37261D01*
X56220Y-37253D01*
X56204Y-37245D01*
X56075Y-37245D01*
X56151Y-37169D02*
X56151Y-37116D01*
X56235Y-37093D02*
X56235Y-37169D01*
X56075Y-37169D01*
X56075Y-37093D01*
X54825Y-36233D02*
X54939Y-36233D01*
X54962Y-36241D01*
X54977Y-36256D01*
X54985Y-36279D01*
X54985Y-36294D01*
X54985Y-36157D02*
X54825Y-36157D01*
X54825Y-36096D01*
X54832Y-36081D01*
X54840Y-36073D01*
X54855Y-36065D01*
X54878Y-36065D01*
X54893Y-36073D01*
X54901Y-36081D01*
X54909Y-36096D01*
X54909Y-36157D01*
X54825Y-36012D02*
X54825Y-35913D01*
X54886Y-35966D01*
X54886Y-35944D01*
X54893Y-35928D01*
X54901Y-35921D01*
X54916Y-35913D01*
X54954Y-35913D01*
X54970Y-35921D01*
X54977Y-35928D01*
X54985Y-35944D01*
X54985Y-35989D01*
X54977Y-36005D01*
X54970Y-36012D01*
G54D16*
X55467Y-36267D02*
X55503Y-36267D01*
X55510Y-36269D01*
X55515Y-36274D01*
X55517Y-36281D01*
X55517Y-36286D01*
X55467Y-36243D02*
X55508Y-36243D01*
X55512Y-36241D01*
X55515Y-36238D01*
X55517Y-36234D01*
X55517Y-36224D01*
X55515Y-36219D01*
X55512Y-36217D01*
X55508Y-36215D01*
X55467Y-36215D01*
X55517Y-36191D02*
X55467Y-36191D01*
X55503Y-36174D01*
X55467Y-36158D01*
X55517Y-36158D01*
X55517Y-36134D02*
X55467Y-36134D01*
X55467Y-36115D01*
X55470Y-36110D01*
X55472Y-36108D01*
X55477Y-36106D01*
X55484Y-36106D01*
X55489Y-36108D01*
X55491Y-36110D01*
X55493Y-36115D01*
X55493Y-36134D01*
X55491Y-36084D02*
X55491Y-36067D01*
X55517Y-36060D02*
X55517Y-36084D01*
X55467Y-36084D01*
X55467Y-36060D01*
X55517Y-36011D02*
X55493Y-36027D01*
X55517Y-36039D02*
X55467Y-36039D01*
X55467Y-36020D01*
X55470Y-36015D01*
X55472Y-36013D01*
X55477Y-36011D01*
X55484Y-36011D01*
X55489Y-36013D01*
X55491Y-36015D01*
X55493Y-36020D01*
X55493Y-36039D01*
X55498Y-35989D02*
X55498Y-35951D01*
X55467Y-35932D02*
X55467Y-35901D01*
X55486Y-35918D01*
X55486Y-35910D01*
X55489Y-35906D01*
X55491Y-35903D01*
X55496Y-35901D01*
X55508Y-35901D01*
X55512Y-35903D01*
X55515Y-35906D01*
X55517Y-35910D01*
X55517Y-35925D01*
X55515Y-35929D01*
X55512Y-35932D01*
X55515Y-35881D02*
X55517Y-35874D01*
X55517Y-35862D01*
X55515Y-35858D01*
X55512Y-35855D01*
X55508Y-35853D01*
X55503Y-35853D01*
X55498Y-35855D01*
X55496Y-35858D01*
X55493Y-35862D01*
X55491Y-35872D01*
X55489Y-35877D01*
X55486Y-35879D01*
X55482Y-35881D01*
X55477Y-35881D01*
X55472Y-35879D01*
X55470Y-35877D01*
X55467Y-35872D01*
X55467Y-35860D01*
X55470Y-35853D01*
X55517Y-35831D02*
X55467Y-35831D01*
X55503Y-35814D01*
X55467Y-35798D01*
X55517Y-35798D01*
X55517Y-35774D02*
X55467Y-35774D01*
X55467Y-35762D01*
X55470Y-35755D01*
X55474Y-35750D01*
X55479Y-35748D01*
X55489Y-35746D01*
X55496Y-35746D01*
X55505Y-35748D01*
X55510Y-35750D01*
X55515Y-35755D01*
X55517Y-35762D01*
X55517Y-35774D01*
G54D15*
X56128Y-36439D02*
X56174Y-36317D01*
X56220Y-36439D01*
X56075Y-36264D02*
X56235Y-36210D01*
X56075Y-36157D01*
X56189Y-36112D02*
X56189Y-36035D01*
X56235Y-36127D02*
X56075Y-36073D01*
X56235Y-36020D01*
X56235Y-35891D02*
X56235Y-35967D01*
X56075Y-35967D01*
X56075Y-35837D02*
X56204Y-35837D01*
X56220Y-35829D01*
X56227Y-35822D01*
X56235Y-35806D01*
X56235Y-35776D01*
X56227Y-35761D01*
X56220Y-35753D01*
X56204Y-35745D01*
X56075Y-35745D01*
X56151Y-35669D02*
X56151Y-35616D01*
X56235Y-35593D02*
X56235Y-35669D01*
X56075Y-35669D01*
X56075Y-35593D01*
X54825Y-45233D02*
X54939Y-45233D01*
X54962Y-45241D01*
X54977Y-45256D01*
X54985Y-45279D01*
X54985Y-45294D01*
X54985Y-45157D02*
X54825Y-45157D01*
X54825Y-45096D01*
X54832Y-45081D01*
X54840Y-45073D01*
X54855Y-45065D01*
X54878Y-45065D01*
X54893Y-45073D01*
X54901Y-45081D01*
X54909Y-45096D01*
X54909Y-45157D01*
X54878Y-44928D02*
X54985Y-44928D01*
X54817Y-44966D02*
X54931Y-45005D01*
X54931Y-44905D01*
G54D16*
X55467Y-45267D02*
X55503Y-45267D01*
X55510Y-45269D01*
X55515Y-45274D01*
X55517Y-45281D01*
X55517Y-45286D01*
X55467Y-45243D02*
X55508Y-45243D01*
X55512Y-45241D01*
X55515Y-45238D01*
X55517Y-45234D01*
X55517Y-45224D01*
X55515Y-45219D01*
X55512Y-45217D01*
X55508Y-45215D01*
X55467Y-45215D01*
X55517Y-45191D02*
X55467Y-45191D01*
X55503Y-45174D01*
X55467Y-45158D01*
X55517Y-45158D01*
X55517Y-45134D02*
X55467Y-45134D01*
X55467Y-45115D01*
X55470Y-45110D01*
X55472Y-45108D01*
X55477Y-45106D01*
X55484Y-45106D01*
X55489Y-45108D01*
X55491Y-45110D01*
X55493Y-45115D01*
X55493Y-45134D01*
X55491Y-45084D02*
X55491Y-45067D01*
X55517Y-45060D02*
X55517Y-45084D01*
X55467Y-45084D01*
X55467Y-45060D01*
X55517Y-45011D02*
X55493Y-45027D01*
X55517Y-45039D02*
X55467Y-45039D01*
X55467Y-45020D01*
X55470Y-45015D01*
X55472Y-45013D01*
X55477Y-45011D01*
X55484Y-45011D01*
X55489Y-45013D01*
X55491Y-45015D01*
X55493Y-45020D01*
X55493Y-45039D01*
X55498Y-44989D02*
X55498Y-44951D01*
X55467Y-44932D02*
X55467Y-44901D01*
X55486Y-44918D01*
X55486Y-44910D01*
X55489Y-44906D01*
X55491Y-44903D01*
X55496Y-44901D01*
X55508Y-44901D01*
X55512Y-44903D01*
X55515Y-44906D01*
X55517Y-44910D01*
X55517Y-44925D01*
X55515Y-44929D01*
X55512Y-44932D01*
X55515Y-44881D02*
X55517Y-44874D01*
X55517Y-44862D01*
X55515Y-44858D01*
X55512Y-44855D01*
X55508Y-44853D01*
X55503Y-44853D01*
X55498Y-44855D01*
X55496Y-44858D01*
X55493Y-44862D01*
X55491Y-44872D01*
X55489Y-44877D01*
X55486Y-44879D01*
X55482Y-44881D01*
X55477Y-44881D01*
X55472Y-44879D01*
X55470Y-44877D01*
X55467Y-44872D01*
X55467Y-44860D01*
X55470Y-44853D01*
X55517Y-44831D02*
X55467Y-44831D01*
X55503Y-44814D01*
X55467Y-44798D01*
X55517Y-44798D01*
X55517Y-44774D02*
X55467Y-44774D01*
X55467Y-44762D01*
X55470Y-44755D01*
X55474Y-44750D01*
X55479Y-44748D01*
X55489Y-44746D01*
X55496Y-44746D01*
X55505Y-44748D01*
X55510Y-44750D01*
X55515Y-44755D01*
X55517Y-44762D01*
X55517Y-44774D01*
G54D15*
X56128Y-45439D02*
X56174Y-45317D01*
X56220Y-45439D01*
X56075Y-45264D02*
X56235Y-45210D01*
X56075Y-45157D01*
X56189Y-45112D02*
X56189Y-45035D01*
X56235Y-45127D02*
X56075Y-45073D01*
X56235Y-45020D01*
X56235Y-44891D02*
X56235Y-44967D01*
X56075Y-44967D01*
X56075Y-44837D02*
X56204Y-44837D01*
X56220Y-44829D01*
X56227Y-44822D01*
X56235Y-44806D01*
X56235Y-44776D01*
X56227Y-44761D01*
X56220Y-44753D01*
X56204Y-44745D01*
X56075Y-44745D01*
X56151Y-44669D02*
X56151Y-44616D01*
X56235Y-44593D02*
X56235Y-44669D01*
X56075Y-44669D01*
X56075Y-44593D01*
X54825Y-43233D02*
X54939Y-43233D01*
X54962Y-43241D01*
X54977Y-43256D01*
X54985Y-43279D01*
X54985Y-43294D01*
X54985Y-43157D02*
X54825Y-43157D01*
X54825Y-43096D01*
X54832Y-43081D01*
X54840Y-43073D01*
X54855Y-43065D01*
X54878Y-43065D01*
X54893Y-43073D01*
X54901Y-43081D01*
X54909Y-43096D01*
X54909Y-43157D01*
X54825Y-42921D02*
X54825Y-42997D01*
X54901Y-43005D01*
X54893Y-42997D01*
X54886Y-42982D01*
X54886Y-42944D01*
X54893Y-42928D01*
X54901Y-42921D01*
X54916Y-42913D01*
X54954Y-42913D01*
X54970Y-42921D01*
X54977Y-42928D01*
X54985Y-42944D01*
X54985Y-42982D01*
X54977Y-42997D01*
X54970Y-43005D01*
G54D16*
X55467Y-43267D02*
X55503Y-43267D01*
X55510Y-43269D01*
X55515Y-43274D01*
X55517Y-43281D01*
X55517Y-43286D01*
X55467Y-43243D02*
X55508Y-43243D01*
X55512Y-43241D01*
X55515Y-43238D01*
X55517Y-43234D01*
X55517Y-43224D01*
X55515Y-43219D01*
X55512Y-43217D01*
X55508Y-43215D01*
X55467Y-43215D01*
X55517Y-43191D02*
X55467Y-43191D01*
X55503Y-43174D01*
X55467Y-43158D01*
X55517Y-43158D01*
X55517Y-43134D02*
X55467Y-43134D01*
X55467Y-43115D01*
X55470Y-43110D01*
X55472Y-43108D01*
X55477Y-43106D01*
X55484Y-43106D01*
X55489Y-43108D01*
X55491Y-43110D01*
X55493Y-43115D01*
X55493Y-43134D01*
X55491Y-43084D02*
X55491Y-43067D01*
X55517Y-43060D02*
X55517Y-43084D01*
X55467Y-43084D01*
X55467Y-43060D01*
X55517Y-43011D02*
X55493Y-43027D01*
X55517Y-43039D02*
X55467Y-43039D01*
X55467Y-43020D01*
X55470Y-43015D01*
X55472Y-43013D01*
X55477Y-43011D01*
X55484Y-43011D01*
X55489Y-43013D01*
X55491Y-43015D01*
X55493Y-43020D01*
X55493Y-43039D01*
X55498Y-42989D02*
X55498Y-42951D01*
X55467Y-42932D02*
X55467Y-42901D01*
X55486Y-42918D01*
X55486Y-42910D01*
X55489Y-42906D01*
X55491Y-42903D01*
X55496Y-42901D01*
X55508Y-42901D01*
X55512Y-42903D01*
X55515Y-42906D01*
X55517Y-42910D01*
X55517Y-42925D01*
X55515Y-42929D01*
X55512Y-42932D01*
X55515Y-42881D02*
X55517Y-42874D01*
X55517Y-42862D01*
X55515Y-42858D01*
X55512Y-42855D01*
X55508Y-42853D01*
X55503Y-42853D01*
X55498Y-42855D01*
X55496Y-42858D01*
X55493Y-42862D01*
X55491Y-42872D01*
X55489Y-42877D01*
X55486Y-42879D01*
X55482Y-42881D01*
X55477Y-42881D01*
X55472Y-42879D01*
X55470Y-42877D01*
X55467Y-42872D01*
X55467Y-42860D01*
X55470Y-42853D01*
X55517Y-42831D02*
X55467Y-42831D01*
X55503Y-42814D01*
X55467Y-42798D01*
X55517Y-42798D01*
X55517Y-42774D02*
X55467Y-42774D01*
X55467Y-42762D01*
X55470Y-42755D01*
X55474Y-42750D01*
X55479Y-42748D01*
X55489Y-42746D01*
X55496Y-42746D01*
X55505Y-42748D01*
X55510Y-42750D01*
X55515Y-42755D01*
X55517Y-42762D01*
X55517Y-42774D01*
G54D15*
X56128Y-43439D02*
X56174Y-43317D01*
X56220Y-43439D01*
X56075Y-43264D02*
X56235Y-43210D01*
X56075Y-43157D01*
X56189Y-43112D02*
X56189Y-43035D01*
X56235Y-43127D02*
X56075Y-43073D01*
X56235Y-43020D01*
X56235Y-42891D02*
X56235Y-42967D01*
X56075Y-42967D01*
X56075Y-42837D02*
X56204Y-42837D01*
X56220Y-42829D01*
X56227Y-42822D01*
X56235Y-42806D01*
X56235Y-42776D01*
X56227Y-42761D01*
X56220Y-42753D01*
X56204Y-42745D01*
X56075Y-42745D01*
X56151Y-42669D02*
X56151Y-42616D01*
X56235Y-42593D02*
X56235Y-42669D01*
X56075Y-42669D01*
X56075Y-42593D01*
X30075Y-36983D02*
X30189Y-36983D01*
X30212Y-36991D01*
X30227Y-37006D01*
X30235Y-37029D01*
X30235Y-37044D01*
X30235Y-36907D02*
X30075Y-36907D01*
X30075Y-36846D01*
X30082Y-36831D01*
X30090Y-36823D01*
X30105Y-36815D01*
X30128Y-36815D01*
X30143Y-36823D01*
X30151Y-36831D01*
X30159Y-36846D01*
X30159Y-36907D01*
X30075Y-36678D02*
X30075Y-36709D01*
X30082Y-36724D01*
X30090Y-36732D01*
X30113Y-36747D01*
X30143Y-36755D01*
X30204Y-36755D01*
X30220Y-36747D01*
X30227Y-36739D01*
X30235Y-36724D01*
X30235Y-36694D01*
X30227Y-36678D01*
X30220Y-36671D01*
X30204Y-36663D01*
X30166Y-36663D01*
X30151Y-36671D01*
X30143Y-36678D01*
X30136Y-36694D01*
X30136Y-36724D01*
X30143Y-36739D01*
X30151Y-36747D01*
X30166Y-36755D01*
G54D16*
X30717Y-37017D02*
X30753Y-37017D01*
X30760Y-37019D01*
X30765Y-37024D01*
X30767Y-37031D01*
X30767Y-37036D01*
X30717Y-36993D02*
X30758Y-36993D01*
X30762Y-36991D01*
X30765Y-36988D01*
X30767Y-36984D01*
X30767Y-36974D01*
X30765Y-36969D01*
X30762Y-36967D01*
X30758Y-36965D01*
X30717Y-36965D01*
X30767Y-36941D02*
X30717Y-36941D01*
X30753Y-36924D01*
X30717Y-36908D01*
X30767Y-36908D01*
X30767Y-36884D02*
X30717Y-36884D01*
X30717Y-36865D01*
X30720Y-36860D01*
X30722Y-36858D01*
X30727Y-36856D01*
X30734Y-36856D01*
X30739Y-36858D01*
X30741Y-36860D01*
X30743Y-36865D01*
X30743Y-36884D01*
X30741Y-36834D02*
X30741Y-36817D01*
X30767Y-36810D02*
X30767Y-36834D01*
X30717Y-36834D01*
X30717Y-36810D01*
X30767Y-36761D02*
X30743Y-36777D01*
X30767Y-36789D02*
X30717Y-36789D01*
X30717Y-36770D01*
X30720Y-36765D01*
X30722Y-36763D01*
X30727Y-36761D01*
X30734Y-36761D01*
X30739Y-36763D01*
X30741Y-36765D01*
X30743Y-36770D01*
X30743Y-36789D01*
X30748Y-36739D02*
X30748Y-36701D01*
X30717Y-36682D02*
X30717Y-36651D01*
X30736Y-36668D01*
X30736Y-36660D01*
X30739Y-36656D01*
X30741Y-36653D01*
X30746Y-36651D01*
X30758Y-36651D01*
X30762Y-36653D01*
X30765Y-36656D01*
X30767Y-36660D01*
X30767Y-36675D01*
X30765Y-36679D01*
X30762Y-36682D01*
X30765Y-36631D02*
X30767Y-36624D01*
X30767Y-36612D01*
X30765Y-36608D01*
X30762Y-36605D01*
X30758Y-36603D01*
X30753Y-36603D01*
X30748Y-36605D01*
X30746Y-36608D01*
X30743Y-36612D01*
X30741Y-36622D01*
X30739Y-36627D01*
X30736Y-36629D01*
X30732Y-36631D01*
X30727Y-36631D01*
X30722Y-36629D01*
X30720Y-36627D01*
X30717Y-36622D01*
X30717Y-36610D01*
X30720Y-36603D01*
X30767Y-36581D02*
X30717Y-36581D01*
X30753Y-36564D01*
X30717Y-36548D01*
X30767Y-36548D01*
X30767Y-36524D02*
X30717Y-36524D01*
X30717Y-36512D01*
X30720Y-36505D01*
X30724Y-36500D01*
X30729Y-36498D01*
X30739Y-36496D01*
X30746Y-36496D01*
X30755Y-36498D01*
X30760Y-36500D01*
X30765Y-36505D01*
X30767Y-36512D01*
X30767Y-36524D01*
G54D15*
X30075Y-34983D02*
X30189Y-34983D01*
X30212Y-34991D01*
X30227Y-35006D01*
X30235Y-35029D01*
X30235Y-35044D01*
X30235Y-34907D02*
X30075Y-34907D01*
X30075Y-34846D01*
X30082Y-34831D01*
X30090Y-34823D01*
X30105Y-34815D01*
X30128Y-34815D01*
X30143Y-34823D01*
X30151Y-34831D01*
X30159Y-34846D01*
X30159Y-34907D01*
X30075Y-34762D02*
X30075Y-34655D01*
X30235Y-34724D01*
G54D16*
X30717Y-35017D02*
X30753Y-35017D01*
X30760Y-35019D01*
X30765Y-35024D01*
X30767Y-35031D01*
X30767Y-35036D01*
X30717Y-34993D02*
X30758Y-34993D01*
X30762Y-34991D01*
X30765Y-34988D01*
X30767Y-34984D01*
X30767Y-34974D01*
X30765Y-34969D01*
X30762Y-34967D01*
X30758Y-34965D01*
X30717Y-34965D01*
X30767Y-34941D02*
X30717Y-34941D01*
X30753Y-34924D01*
X30717Y-34908D01*
X30767Y-34908D01*
X30767Y-34884D02*
X30717Y-34884D01*
X30717Y-34865D01*
X30720Y-34860D01*
X30722Y-34858D01*
X30727Y-34856D01*
X30734Y-34856D01*
X30739Y-34858D01*
X30741Y-34860D01*
X30743Y-34865D01*
X30743Y-34884D01*
X30741Y-34834D02*
X30741Y-34817D01*
X30767Y-34810D02*
X30767Y-34834D01*
X30717Y-34834D01*
X30717Y-34810D01*
X30767Y-34761D02*
X30743Y-34777D01*
X30767Y-34789D02*
X30717Y-34789D01*
X30717Y-34770D01*
X30720Y-34765D01*
X30722Y-34763D01*
X30727Y-34761D01*
X30734Y-34761D01*
X30739Y-34763D01*
X30741Y-34765D01*
X30743Y-34770D01*
X30743Y-34789D01*
X30748Y-34739D02*
X30748Y-34701D01*
X30717Y-34682D02*
X30717Y-34651D01*
X30736Y-34668D01*
X30736Y-34660D01*
X30739Y-34656D01*
X30741Y-34653D01*
X30746Y-34651D01*
X30758Y-34651D01*
X30762Y-34653D01*
X30765Y-34656D01*
X30767Y-34660D01*
X30767Y-34675D01*
X30765Y-34679D01*
X30762Y-34682D01*
X30765Y-34631D02*
X30767Y-34624D01*
X30767Y-34612D01*
X30765Y-34608D01*
X30762Y-34605D01*
X30758Y-34603D01*
X30753Y-34603D01*
X30748Y-34605D01*
X30746Y-34608D01*
X30743Y-34612D01*
X30741Y-34622D01*
X30739Y-34627D01*
X30736Y-34629D01*
X30732Y-34631D01*
X30727Y-34631D01*
X30722Y-34629D01*
X30720Y-34627D01*
X30717Y-34622D01*
X30717Y-34610D01*
X30720Y-34603D01*
X30767Y-34581D02*
X30717Y-34581D01*
X30753Y-34564D01*
X30717Y-34548D01*
X30767Y-34548D01*
X30767Y-34524D02*
X30717Y-34524D01*
X30717Y-34512D01*
X30720Y-34505D01*
X30724Y-34500D01*
X30729Y-34498D01*
X30739Y-34496D01*
X30746Y-34496D01*
X30755Y-34498D01*
X30760Y-34500D01*
X30765Y-34505D01*
X30767Y-34512D01*
X30767Y-34524D01*
G54D15*
X30075Y-38733D02*
X30189Y-38733D01*
X30212Y-38741D01*
X30227Y-38756D01*
X30235Y-38779D01*
X30235Y-38794D01*
X30235Y-38657D02*
X30075Y-38657D01*
X30075Y-38596D01*
X30082Y-38581D01*
X30090Y-38573D01*
X30105Y-38565D01*
X30128Y-38565D01*
X30143Y-38573D01*
X30151Y-38581D01*
X30159Y-38596D01*
X30159Y-38657D01*
X30143Y-38474D02*
X30136Y-38489D01*
X30128Y-38497D01*
X30113Y-38505D01*
X30105Y-38505D01*
X30090Y-38497D01*
X30082Y-38489D01*
X30075Y-38474D01*
X30075Y-38444D01*
X30082Y-38428D01*
X30090Y-38421D01*
X30105Y-38413D01*
X30113Y-38413D01*
X30128Y-38421D01*
X30136Y-38428D01*
X30143Y-38444D01*
X30143Y-38474D01*
X30151Y-38489D01*
X30159Y-38497D01*
X30174Y-38505D01*
X30204Y-38505D01*
X30220Y-38497D01*
X30227Y-38489D01*
X30235Y-38474D01*
X30235Y-38444D01*
X30227Y-38428D01*
X30220Y-38421D01*
X30204Y-38413D01*
X30174Y-38413D01*
X30159Y-38421D01*
X30151Y-38428D01*
X30143Y-38444D01*
G54D16*
X30717Y-38767D02*
X30753Y-38767D01*
X30760Y-38769D01*
X30765Y-38774D01*
X30767Y-38781D01*
X30767Y-38786D01*
X30717Y-38743D02*
X30758Y-38743D01*
X30762Y-38741D01*
X30765Y-38738D01*
X30767Y-38734D01*
X30767Y-38724D01*
X30765Y-38719D01*
X30762Y-38717D01*
X30758Y-38715D01*
X30717Y-38715D01*
X30767Y-38691D02*
X30717Y-38691D01*
X30753Y-38674D01*
X30717Y-38658D01*
X30767Y-38658D01*
X30767Y-38634D02*
X30717Y-38634D01*
X30717Y-38615D01*
X30720Y-38610D01*
X30722Y-38608D01*
X30727Y-38606D01*
X30734Y-38606D01*
X30739Y-38608D01*
X30741Y-38610D01*
X30743Y-38615D01*
X30743Y-38634D01*
X30741Y-38584D02*
X30741Y-38567D01*
X30767Y-38560D02*
X30767Y-38584D01*
X30717Y-38584D01*
X30717Y-38560D01*
X30767Y-38511D02*
X30743Y-38527D01*
X30767Y-38539D02*
X30717Y-38539D01*
X30717Y-38520D01*
X30720Y-38515D01*
X30722Y-38513D01*
X30727Y-38511D01*
X30734Y-38511D01*
X30739Y-38513D01*
X30741Y-38515D01*
X30743Y-38520D01*
X30743Y-38539D01*
X30748Y-38489D02*
X30748Y-38451D01*
X30717Y-38432D02*
X30717Y-38401D01*
X30736Y-38418D01*
X30736Y-38410D01*
X30739Y-38406D01*
X30741Y-38403D01*
X30746Y-38401D01*
X30758Y-38401D01*
X30762Y-38403D01*
X30765Y-38406D01*
X30767Y-38410D01*
X30767Y-38425D01*
X30765Y-38429D01*
X30762Y-38432D01*
X30765Y-38381D02*
X30767Y-38374D01*
X30767Y-38362D01*
X30765Y-38358D01*
X30762Y-38355D01*
X30758Y-38353D01*
X30753Y-38353D01*
X30748Y-38355D01*
X30746Y-38358D01*
X30743Y-38362D01*
X30741Y-38372D01*
X30739Y-38377D01*
X30736Y-38379D01*
X30732Y-38381D01*
X30727Y-38381D01*
X30722Y-38379D01*
X30720Y-38377D01*
X30717Y-38372D01*
X30717Y-38360D01*
X30720Y-38353D01*
X30767Y-38331D02*
X30717Y-38331D01*
X30753Y-38314D01*
X30717Y-38298D01*
X30767Y-38298D01*
X30767Y-38274D02*
X30717Y-38274D01*
X30717Y-38262D01*
X30720Y-38255D01*
X30724Y-38250D01*
X30729Y-38248D01*
X30739Y-38246D01*
X30746Y-38246D01*
X30755Y-38248D01*
X30760Y-38250D01*
X30765Y-38255D01*
X30767Y-38262D01*
X30767Y-38274D01*
G54D15*
G54D10*
X33407Y-37732D02*
X33407Y-38096D01*
X33429Y-38139D01*
X33450Y-38161D01*
X33493Y-38182D01*
X33579Y-38182D01*
X33621Y-38161D01*
X33643Y-38139D01*
X33664Y-38096D01*
X33664Y-37732D01*
X34114Y-38182D02*
X33857Y-38182D01*
X33985Y-38182D02*
X33985Y-37732D01*
X33942Y-37796D01*
X33900Y-37839D01*
X33857Y-37861D01*
G54D13*
X33708Y-34827D02*
X33696Y-34839D01*
X33661Y-34851D01*
X33637Y-34851D01*
X33601Y-34839D01*
X33577Y-34815D01*
X33566Y-34792D01*
X33554Y-34744D01*
X33554Y-34708D01*
X33566Y-34661D01*
X33577Y-34637D01*
X33601Y-34613D01*
X33637Y-34601D01*
X33661Y-34601D01*
X33696Y-34613D01*
X33708Y-34625D01*
X33946Y-34851D02*
X33804Y-34851D01*
X33875Y-34851D02*
X33875Y-34601D01*
X33851Y-34637D01*
X33827Y-34661D01*
X33804Y-34673D01*
G54D17*
X19094Y-45305D02*
X19775Y-45203D01*
X19289Y-45121D01*
X19775Y-45040D01*
X19094Y-44938D01*
X19743Y-44795D02*
X19775Y-44734D01*
X19775Y-44632D01*
X19743Y-44592D01*
X19710Y-44571D01*
X19645Y-44551D01*
X19581Y-44551D01*
X19516Y-44571D01*
X19483Y-44592D01*
X19451Y-44632D01*
X19418Y-44714D01*
X19386Y-44755D01*
X19354Y-44775D01*
X19289Y-44795D01*
X19224Y-44795D01*
X19159Y-44775D01*
X19127Y-44755D01*
X19094Y-44714D01*
X19094Y-44612D01*
X19127Y-44551D01*
X19418Y-44224D02*
X19451Y-44163D01*
X19483Y-44143D01*
X19548Y-44123D01*
X19645Y-44123D01*
X19710Y-44143D01*
X19743Y-44163D01*
X19775Y-44204D01*
X19775Y-44367D01*
X19094Y-44367D01*
X19094Y-44224D01*
X19127Y-44184D01*
X19159Y-44163D01*
X19224Y-44143D01*
X19289Y-44143D01*
X19354Y-44163D01*
X19386Y-44184D01*
X19418Y-44224D01*
X19418Y-44367D01*
X19775Y-43715D02*
X19775Y-43959D01*
X19775Y-43837D02*
X19094Y-43837D01*
X19191Y-43878D01*
X19256Y-43919D01*
X19289Y-43959D01*
G54D11*
X19143Y-40562D02*
X19743Y-40467D01*
X19314Y-40390D01*
X19743Y-40314D01*
X19143Y-40219D01*
X19714Y-40086D02*
X19743Y-40029D01*
X19743Y-39933D01*
X19714Y-39895D01*
X19686Y-39876D01*
X19629Y-39857D01*
X19571Y-39857D01*
X19514Y-39876D01*
X19486Y-39895D01*
X19457Y-39933D01*
X19429Y-40010D01*
X19400Y-40048D01*
X19371Y-40067D01*
X19314Y-40086D01*
X19257Y-40086D01*
X19200Y-40067D01*
X19171Y-40048D01*
X19143Y-40010D01*
X19143Y-39914D01*
X19171Y-39857D01*
X19429Y-39552D02*
X19457Y-39495D01*
X19486Y-39476D01*
X19543Y-39457D01*
X19629Y-39457D01*
X19686Y-39476D01*
X19714Y-39495D01*
X19743Y-39533D01*
X19743Y-39686D01*
X19143Y-39686D01*
X19143Y-39552D01*
X19171Y-39514D01*
X19200Y-39495D01*
X19257Y-39476D01*
X19314Y-39476D01*
X19371Y-39495D01*
X19400Y-39514D01*
X19429Y-39552D01*
X19429Y-39686D01*
G54D17*
X56918Y-39208D02*
X56918Y-39065D01*
X57275Y-39004D02*
X57275Y-39208D01*
X56594Y-39208D01*
X56594Y-39004D01*
X56594Y-38882D02*
X56594Y-38638D01*
X57275Y-38760D02*
X56594Y-38760D01*
X57275Y-38271D02*
X57275Y-38515D01*
X57275Y-38393D02*
X56594Y-38393D01*
X56691Y-38434D01*
X56756Y-38475D01*
X56789Y-38515D01*
X56918Y-46708D02*
X56918Y-46565D01*
X57275Y-46504D02*
X57275Y-46708D01*
X56594Y-46708D01*
X56594Y-46504D01*
X56594Y-46382D02*
X56594Y-46138D01*
X57275Y-46260D02*
X56594Y-46260D01*
X56659Y-46015D02*
X56627Y-45995D01*
X56594Y-45954D01*
X56594Y-45852D01*
X56627Y-45812D01*
X56659Y-45791D01*
X56724Y-45771D01*
X56789Y-45771D01*
X56886Y-45791D01*
X57275Y-46036D01*
X57275Y-45771D01*
G54D18*
X20178Y-30251D02*
X20238Y-30285D01*
X20339Y-30285D01*
X20380Y-30251D01*
X20400Y-30218D01*
X20420Y-30151D01*
X20420Y-30083D01*
X20400Y-30016D01*
X20380Y-29983D01*
X20339Y-29949D01*
X20259Y-29916D01*
X20218Y-29882D01*
X20198Y-29848D01*
X20178Y-29781D01*
X20178Y-29714D01*
X20198Y-29647D01*
X20218Y-29613D01*
X20259Y-29580D01*
X20359Y-29580D01*
X20420Y-29613D01*
X20541Y-29580D02*
X20784Y-29580D01*
X20663Y-30285D02*
X20663Y-29580D01*
X21167Y-30285D02*
X21026Y-29949D01*
X20925Y-30285D02*
X20925Y-29580D01*
X21086Y-29580D01*
X21127Y-29613D01*
X21147Y-29647D01*
X21167Y-29714D01*
X21167Y-29815D01*
X21147Y-29882D01*
X21127Y-29916D01*
X21086Y-29949D01*
X20925Y-29949D01*
X21430Y-29580D02*
X21510Y-29580D01*
X21551Y-29613D01*
X21591Y-29681D01*
X21611Y-29815D01*
X21611Y-30050D01*
X21591Y-30184D01*
X21551Y-30251D01*
X21510Y-30285D01*
X21430Y-30285D01*
X21389Y-30251D01*
X21349Y-30184D01*
X21329Y-30050D01*
X21329Y-29815D01*
X21349Y-29681D01*
X21389Y-29613D01*
X21430Y-29580D01*
X21934Y-29916D02*
X21995Y-29949D01*
X22015Y-29983D01*
X22035Y-30050D01*
X22035Y-30151D01*
X22015Y-30218D01*
X21995Y-30251D01*
X21954Y-30285D01*
X21793Y-30285D01*
X21793Y-29580D01*
X21934Y-29580D01*
X21975Y-29613D01*
X21995Y-29647D01*
X22015Y-29714D01*
X22015Y-29781D01*
X21995Y-29848D01*
X21975Y-29882D01*
X21934Y-29916D01*
X21793Y-29916D01*
X22217Y-29916D02*
X22358Y-29916D01*
X22419Y-30285D02*
X22217Y-30285D01*
X22217Y-29580D01*
X22419Y-29580D01*
X22823Y-30285D02*
X22581Y-30285D01*
X22702Y-30285D02*
X22702Y-29580D01*
X22662Y-29681D01*
X22621Y-29748D01*
X22581Y-29781D01*
M02*
