G04 (created by PCBNEW-RS274X (2011-oct-27)-testing) date Wed 04 Jan 2012 07:42:13 AM EST*
G01*
G70*
G90*
%MOIN*%
G04 Gerber Fmt 3.4, Leading zero omitted, Abs format*
%FSLAX34Y34*%
G04 APERTURE LIST*
%ADD10C,0.006000*%
%ADD11O,0.060000X0.100000*%
%ADD12C,0.155000*%
%ADD13R,0.055000X0.055000*%
%ADD14C,0.055000*%
%ADD15C,0.035000*%
%ADD16C,0.016000*%
%ADD17C,0.032000*%
%ADD18C,0.010000*%
G04 APERTURE END LIST*
G54D10*
G54D11*
X46000Y-31000D03*
X47000Y-31000D03*
X48000Y-31000D03*
X49000Y-31000D03*
X50000Y-31000D03*
X51000Y-31000D03*
X52000Y-31000D03*
X53000Y-31000D03*
X48000Y-50000D03*
X46000Y-50000D03*
X45000Y-50000D03*
X49000Y-50000D03*
X50000Y-50000D03*
X51000Y-50000D03*
X44000Y-50000D03*
X43000Y-50000D03*
X42000Y-50000D03*
X39000Y-50000D03*
X40000Y-50000D03*
X41000Y-50000D03*
X37000Y-50000D03*
X36000Y-50000D03*
X35000Y-50000D03*
X33000Y-50000D03*
X32000Y-50000D03*
X44000Y-31000D03*
X43000Y-31000D03*
X42000Y-31000D03*
X41000Y-31000D03*
X40000Y-31000D03*
X39000Y-31000D03*
X38000Y-31000D03*
X37000Y-31000D03*
X35400Y-31000D03*
X34400Y-31000D03*
X33400Y-31000D03*
X32400Y-31000D03*
X31400Y-31000D03*
X30400Y-31000D03*
X29400Y-31000D03*
X28400Y-31000D03*
X34000Y-50000D03*
G54D12*
X57000Y-50000D03*
X54500Y-31000D03*
X25000Y-31000D03*
X24500Y-50000D03*
G54D13*
X20500Y-45500D03*
G54D14*
X20500Y-44500D03*
X20500Y-43500D03*
X20500Y-42500D03*
X20500Y-41500D03*
X20500Y-40500D03*
X20500Y-39500D03*
X20500Y-38500D03*
G54D13*
X57000Y-32500D03*
G54D14*
X57000Y-33500D03*
X57000Y-34500D03*
X57000Y-35500D03*
X57000Y-36500D03*
X57000Y-37500D03*
G54D13*
X57000Y-40000D03*
G54D14*
X57000Y-41000D03*
X57000Y-42000D03*
X57000Y-43000D03*
X57000Y-44000D03*
X57000Y-45000D03*
G54D13*
X20500Y-31000D03*
G54D14*
X21500Y-31000D03*
X22500Y-31000D03*
G54D15*
X47250Y-38000D03*
X40000Y-42000D03*
X42500Y-42000D03*
X49250Y-42000D03*
X55500Y-38750D03*
X55500Y-32500D03*
X29250Y-44500D03*
X30750Y-44500D03*
X40000Y-41250D03*
X42500Y-41250D03*
X49250Y-41250D03*
X54750Y-33500D03*
X54750Y-38750D03*
X31250Y-43500D03*
X40000Y-40500D03*
X42500Y-40500D03*
X49250Y-40500D03*
X29250Y-43500D03*
X54000Y-34500D03*
X54000Y-38750D03*
X41000Y-37500D03*
X43250Y-37500D03*
X45250Y-37500D03*
X48250Y-37500D03*
X45250Y-36250D03*
X49000Y-36250D03*
X39000Y-45000D03*
X42750Y-45250D03*
X52750Y-43250D03*
X42750Y-43250D03*
X40000Y-43250D03*
X51500Y-43250D03*
X44000Y-35000D03*
X31250Y-40500D03*
X29500Y-40500D03*
X50000Y-45750D03*
X50000Y-44750D03*
X50000Y-43750D03*
X50000Y-42750D03*
X50000Y-39000D03*
X50000Y-35000D03*
X49500Y-46250D03*
X44750Y-34500D03*
X29500Y-41500D03*
X31250Y-41500D03*
X51000Y-45750D03*
X51000Y-44750D03*
X51000Y-43750D03*
X51000Y-42750D03*
X51000Y-39250D03*
X51000Y-34500D03*
X48500Y-32750D03*
X48500Y-35500D03*
X47500Y-35500D03*
X47500Y-32750D03*
X47750Y-37000D03*
X46500Y-35750D03*
X46500Y-32750D03*
X46500Y-37000D03*
X44500Y-32750D03*
X41250Y-32750D03*
X52500Y-32750D03*
X51500Y-32750D03*
X49500Y-32750D03*
X28500Y-39500D03*
X25000Y-39250D03*
X25250Y-42500D03*
X29250Y-42500D03*
X31250Y-42500D03*
X53250Y-48000D03*
X50500Y-48750D03*
X50500Y-47500D03*
X49250Y-48750D03*
X44750Y-48000D03*
X44750Y-45750D03*
X48250Y-45750D03*
X48250Y-44250D03*
X43750Y-44250D03*
X43750Y-42750D03*
X48000Y-42500D03*
X48000Y-39500D03*
X43000Y-38500D03*
X36000Y-38500D03*
X32250Y-42500D03*
X35750Y-42250D03*
X39000Y-39000D03*
X39250Y-35000D03*
X36250Y-35000D03*
X34750Y-33000D03*
X27000Y-36500D03*
X25000Y-36500D03*
X22000Y-35250D03*
X22000Y-33250D03*
X25000Y-33250D03*
X28750Y-33250D03*
X32250Y-33000D03*
X32250Y-34500D03*
X31250Y-39500D03*
X29750Y-35250D03*
X29750Y-37250D03*
G54D16*
X54250Y-42000D02*
X49250Y-42000D01*
G54D17*
X55500Y-40750D02*
X54250Y-42000D01*
X55500Y-40750D02*
X55500Y-38750D01*
G54D16*
X42500Y-42000D02*
X40000Y-42000D01*
G54D17*
X55500Y-38750D02*
X55500Y-32500D01*
X54750Y-38750D02*
X54750Y-40250D01*
X29250Y-44500D02*
X30750Y-44500D01*
X42500Y-41250D02*
X40000Y-41250D01*
X53750Y-41250D02*
X49250Y-41250D01*
X54750Y-40250D02*
X53750Y-41250D01*
X54750Y-38750D02*
X54750Y-33500D01*
X42500Y-40500D02*
X40000Y-40500D01*
X53250Y-40500D02*
X49250Y-40500D01*
X54000Y-39750D02*
X53250Y-40500D01*
X54000Y-39750D02*
X54000Y-38750D01*
X29250Y-43500D02*
X31250Y-43500D01*
X54000Y-38750D02*
X54000Y-34500D01*
G54D16*
X43250Y-37500D02*
X41000Y-37500D01*
X48250Y-37500D02*
X45250Y-37500D01*
X49000Y-36250D02*
X45250Y-36250D01*
X42500Y-45000D02*
X39000Y-45000D01*
X42750Y-45250D02*
X42500Y-45000D01*
X42750Y-43250D02*
X40000Y-43250D01*
X51500Y-43250D02*
X52750Y-43250D01*
X44000Y-35000D02*
X50000Y-35000D01*
X29500Y-40500D02*
X31250Y-40500D01*
X50000Y-45750D02*
X50000Y-44750D01*
X50000Y-43750D02*
X50000Y-42750D01*
X50000Y-39000D02*
X50000Y-35000D01*
X50500Y-46250D02*
X51000Y-45750D01*
X49500Y-46250D02*
X50500Y-46250D01*
X51000Y-34500D02*
X44750Y-34500D01*
X29500Y-41500D02*
X31250Y-41500D01*
X51000Y-45750D02*
X51000Y-44750D01*
X51000Y-43750D02*
X51000Y-42750D01*
X51000Y-39250D02*
X51000Y-34500D01*
X48500Y-32750D02*
X49500Y-32750D01*
X39250Y-35000D02*
X39250Y-34750D01*
X44500Y-32750D02*
X46500Y-32750D01*
X39250Y-34750D02*
X41250Y-32750D01*
X46500Y-32750D02*
X47500Y-32750D01*
X48500Y-32750D02*
X47500Y-32750D01*
X51500Y-32750D02*
X52500Y-32750D01*
X25000Y-36500D02*
X25000Y-39250D01*
X31250Y-42500D02*
X29250Y-42500D01*
X51250Y-48000D02*
X53250Y-48000D01*
X50500Y-48750D02*
X51250Y-48000D01*
X49250Y-48750D02*
X50500Y-47500D01*
X44750Y-45750D02*
X44750Y-48000D01*
X48250Y-44250D02*
X48250Y-45750D01*
X43750Y-42750D02*
X43750Y-44250D01*
X48000Y-39500D02*
X48000Y-42500D01*
X36000Y-38500D02*
X43000Y-38500D01*
X35500Y-42500D02*
X32250Y-42500D01*
X35750Y-42250D02*
X35500Y-42500D01*
X39000Y-35250D02*
X39000Y-39000D01*
X39250Y-35000D02*
X39000Y-35250D01*
X36250Y-34500D02*
X36250Y-35000D01*
X34750Y-33000D02*
X36250Y-34500D01*
X25000Y-36500D02*
X27000Y-36500D01*
X22000Y-33250D02*
X22000Y-35250D01*
X28750Y-33250D02*
X25000Y-33250D01*
X32250Y-34500D02*
X32250Y-33000D01*
G54D10*
G36*
X57675Y-49198D02*
X57668Y-49191D01*
X57618Y-49240D01*
X57561Y-49143D01*
X57525Y-49128D01*
X57525Y-45105D01*
X57525Y-44896D01*
X57445Y-44703D01*
X57298Y-44555D01*
X57164Y-44499D01*
X57297Y-44445D01*
X57445Y-44298D01*
X57525Y-44105D01*
X57525Y-43896D01*
X57525Y-42105D01*
X57525Y-41896D01*
X57445Y-41703D01*
X57298Y-41555D01*
X57164Y-41499D01*
X57297Y-41445D01*
X57445Y-41298D01*
X57525Y-41105D01*
X57525Y-40896D01*
X57525Y-37605D01*
X57525Y-37396D01*
X57445Y-37203D01*
X57298Y-37055D01*
X57164Y-36999D01*
X57297Y-36945D01*
X57445Y-36798D01*
X57525Y-36605D01*
X57525Y-36396D01*
X57525Y-34605D01*
X57525Y-34396D01*
X57445Y-34203D01*
X57298Y-34055D01*
X57164Y-33999D01*
X57297Y-33945D01*
X57445Y-33798D01*
X57525Y-33605D01*
X57525Y-33396D01*
X57445Y-33203D01*
X57298Y-33055D01*
X57223Y-33024D01*
X57324Y-33024D01*
X57416Y-32986D01*
X57486Y-32916D01*
X57524Y-32825D01*
X57524Y-32726D01*
X57524Y-32176D01*
X57486Y-32084D01*
X57416Y-32014D01*
X57325Y-31976D01*
X57226Y-31976D01*
X56676Y-31976D01*
X56584Y-32014D01*
X56514Y-32084D01*
X56476Y-32175D01*
X56476Y-32274D01*
X56476Y-32824D01*
X56514Y-32916D01*
X56584Y-32986D01*
X56675Y-33024D01*
X56774Y-33024D01*
X56703Y-33055D01*
X56555Y-33202D01*
X56475Y-33395D01*
X56475Y-33604D01*
X56555Y-33797D01*
X56702Y-33945D01*
X56835Y-34000D01*
X56703Y-34055D01*
X56555Y-34202D01*
X56475Y-34395D01*
X56475Y-34604D01*
X56555Y-34797D01*
X56702Y-34945D01*
X56842Y-35003D01*
X56733Y-35048D01*
X56710Y-35139D01*
X57000Y-35429D01*
X57290Y-35139D01*
X57267Y-35048D01*
X57148Y-35006D01*
X57297Y-34945D01*
X57445Y-34798D01*
X57525Y-34605D01*
X57525Y-36396D01*
X57519Y-36381D01*
X57519Y-35574D01*
X57508Y-35370D01*
X57452Y-35233D01*
X57361Y-35210D01*
X57071Y-35500D01*
X57361Y-35790D01*
X57452Y-35767D01*
X57519Y-35574D01*
X57519Y-36381D01*
X57445Y-36203D01*
X57298Y-36055D01*
X57157Y-35996D01*
X57267Y-35952D01*
X57290Y-35861D01*
X57000Y-35571D01*
X56929Y-35642D01*
X56929Y-35500D01*
X56639Y-35210D01*
X56548Y-35233D01*
X56481Y-35426D01*
X56492Y-35630D01*
X56548Y-35767D01*
X56639Y-35790D01*
X56929Y-35500D01*
X56929Y-35642D01*
X56710Y-35861D01*
X56733Y-35952D01*
X56851Y-35993D01*
X56703Y-36055D01*
X56555Y-36202D01*
X56475Y-36395D01*
X56475Y-36604D01*
X56555Y-36797D01*
X56702Y-36945D01*
X56835Y-37000D01*
X56703Y-37055D01*
X56555Y-37202D01*
X56475Y-37395D01*
X56475Y-37604D01*
X56555Y-37797D01*
X56702Y-37945D01*
X56895Y-38025D01*
X57104Y-38025D01*
X57297Y-37945D01*
X57445Y-37798D01*
X57525Y-37605D01*
X57525Y-40896D01*
X57445Y-40703D01*
X57298Y-40555D01*
X57223Y-40524D01*
X57324Y-40524D01*
X57416Y-40486D01*
X57486Y-40416D01*
X57524Y-40325D01*
X57524Y-40226D01*
X57524Y-39676D01*
X57486Y-39584D01*
X57416Y-39514D01*
X57325Y-39476D01*
X57226Y-39476D01*
X56676Y-39476D01*
X56584Y-39514D01*
X56514Y-39584D01*
X56476Y-39675D01*
X56476Y-39774D01*
X56476Y-40324D01*
X56514Y-40416D01*
X56584Y-40486D01*
X56675Y-40524D01*
X56774Y-40524D01*
X56703Y-40555D01*
X56555Y-40702D01*
X56475Y-40895D01*
X56475Y-41104D01*
X56555Y-41297D01*
X56702Y-41445D01*
X56835Y-41500D01*
X56703Y-41555D01*
X56555Y-41702D01*
X56475Y-41895D01*
X56475Y-42104D01*
X56555Y-42297D01*
X56702Y-42445D01*
X56842Y-42503D01*
X56733Y-42548D01*
X56710Y-42639D01*
X57000Y-42929D01*
X57290Y-42639D01*
X57267Y-42548D01*
X57148Y-42506D01*
X57297Y-42445D01*
X57445Y-42298D01*
X57525Y-42105D01*
X57525Y-43896D01*
X57519Y-43881D01*
X57519Y-43074D01*
X57508Y-42870D01*
X57452Y-42733D01*
X57361Y-42710D01*
X57071Y-43000D01*
X57361Y-43290D01*
X57452Y-43267D01*
X57519Y-43074D01*
X57519Y-43881D01*
X57445Y-43703D01*
X57298Y-43555D01*
X57157Y-43496D01*
X57267Y-43452D01*
X57290Y-43361D01*
X57000Y-43071D01*
X56929Y-43142D01*
X56929Y-43000D01*
X56639Y-42710D01*
X56548Y-42733D01*
X56481Y-42926D01*
X56492Y-43130D01*
X56548Y-43267D01*
X56639Y-43290D01*
X56929Y-43000D01*
X56929Y-43142D01*
X56710Y-43361D01*
X56733Y-43452D01*
X56851Y-43493D01*
X56703Y-43555D01*
X56555Y-43702D01*
X56475Y-43895D01*
X56475Y-44104D01*
X56555Y-44297D01*
X56702Y-44445D01*
X56835Y-44500D01*
X56703Y-44555D01*
X56555Y-44702D01*
X56475Y-44895D01*
X56475Y-45104D01*
X56555Y-45297D01*
X56702Y-45445D01*
X56895Y-45525D01*
X57104Y-45525D01*
X57297Y-45445D01*
X57445Y-45298D01*
X57525Y-45105D01*
X57525Y-49128D01*
X57191Y-48993D01*
X56791Y-48997D01*
X56439Y-49143D01*
X56356Y-49285D01*
X56965Y-49894D01*
X57000Y-49929D01*
X57071Y-50000D01*
X57000Y-50071D01*
X56929Y-50000D01*
X56894Y-49965D01*
X56285Y-49356D01*
X56143Y-49439D01*
X55993Y-49809D01*
X55997Y-50209D01*
X56143Y-50561D01*
X56240Y-50618D01*
X56191Y-50668D01*
X56198Y-50675D01*
X55925Y-50675D01*
X55925Y-38835D01*
X55925Y-38666D01*
X55910Y-38629D01*
X55910Y-32621D01*
X55925Y-32585D01*
X55925Y-32416D01*
X55861Y-32260D01*
X55741Y-32140D01*
X55585Y-32075D01*
X55507Y-32075D01*
X55416Y-32075D01*
X55260Y-32139D01*
X55144Y-32255D01*
X55144Y-31715D01*
X54500Y-31071D01*
X53856Y-31715D01*
X53939Y-31857D01*
X54309Y-32007D01*
X54709Y-32003D01*
X55061Y-31857D01*
X55144Y-31715D01*
X55144Y-32255D01*
X55140Y-32259D01*
X55075Y-32415D01*
X55075Y-32584D01*
X55090Y-32620D01*
X55090Y-33239D01*
X54991Y-33140D01*
X54835Y-33075D01*
X54666Y-33075D01*
X54510Y-33139D01*
X54390Y-33259D01*
X54325Y-33415D01*
X54325Y-33584D01*
X54340Y-33620D01*
X54340Y-34239D01*
X54241Y-34140D01*
X54085Y-34075D01*
X53916Y-34075D01*
X53760Y-34139D01*
X53640Y-34259D01*
X53575Y-34415D01*
X53575Y-34584D01*
X53590Y-34620D01*
X53590Y-38629D01*
X53575Y-38665D01*
X53575Y-38834D01*
X53590Y-38870D01*
X53590Y-39580D01*
X53080Y-40090D01*
X51425Y-40090D01*
X51425Y-39335D01*
X51425Y-39166D01*
X51361Y-39010D01*
X51330Y-38979D01*
X51330Y-34771D01*
X51360Y-34741D01*
X51425Y-34585D01*
X51425Y-34416D01*
X51361Y-34260D01*
X51241Y-34140D01*
X51085Y-34075D01*
X50916Y-34075D01*
X50760Y-34139D01*
X50729Y-34170D01*
X45021Y-34170D01*
X44991Y-34140D01*
X44835Y-34075D01*
X44666Y-34075D01*
X44510Y-34139D01*
X44390Y-34259D01*
X44325Y-34415D01*
X44325Y-34584D01*
X44360Y-34670D01*
X44271Y-34670D01*
X44241Y-34640D01*
X44085Y-34575D01*
X43916Y-34575D01*
X43760Y-34639D01*
X43640Y-34759D01*
X43575Y-34915D01*
X43575Y-35084D01*
X43639Y-35240D01*
X43759Y-35360D01*
X43915Y-35425D01*
X44084Y-35425D01*
X44240Y-35361D01*
X44271Y-35330D01*
X49670Y-35330D01*
X49670Y-38729D01*
X49640Y-38759D01*
X49575Y-38915D01*
X49575Y-39084D01*
X49639Y-39240D01*
X49759Y-39360D01*
X49915Y-39425D01*
X50084Y-39425D01*
X50240Y-39361D01*
X50360Y-39241D01*
X50425Y-39085D01*
X50425Y-38916D01*
X50361Y-38760D01*
X50330Y-38729D01*
X50330Y-35271D01*
X50360Y-35241D01*
X50425Y-35085D01*
X50425Y-34916D01*
X50389Y-34830D01*
X50670Y-34830D01*
X50670Y-38979D01*
X50640Y-39009D01*
X50575Y-39165D01*
X50575Y-39334D01*
X50639Y-39490D01*
X50759Y-39610D01*
X50915Y-39675D01*
X51084Y-39675D01*
X51240Y-39611D01*
X51360Y-39491D01*
X51425Y-39335D01*
X51425Y-40090D01*
X49425Y-40090D01*
X49425Y-36335D01*
X49425Y-36166D01*
X49361Y-36010D01*
X49241Y-35890D01*
X49085Y-35825D01*
X48916Y-35825D01*
X48760Y-35889D01*
X48729Y-35920D01*
X45521Y-35920D01*
X45491Y-35890D01*
X45335Y-35825D01*
X45166Y-35825D01*
X45010Y-35889D01*
X44890Y-36009D01*
X44825Y-36165D01*
X44825Y-36334D01*
X44889Y-36490D01*
X45009Y-36610D01*
X45165Y-36675D01*
X45334Y-36675D01*
X45490Y-36611D01*
X45521Y-36580D01*
X48729Y-36580D01*
X48759Y-36610D01*
X48915Y-36675D01*
X49084Y-36675D01*
X49240Y-36611D01*
X49360Y-36491D01*
X49425Y-36335D01*
X49425Y-40090D01*
X49371Y-40090D01*
X49335Y-40075D01*
X49166Y-40075D01*
X49010Y-40139D01*
X48890Y-40259D01*
X48825Y-40415D01*
X48825Y-40584D01*
X48889Y-40740D01*
X49009Y-40860D01*
X49044Y-40874D01*
X49010Y-40889D01*
X48890Y-41009D01*
X48825Y-41165D01*
X48825Y-41334D01*
X48889Y-41490D01*
X49009Y-41610D01*
X49044Y-41624D01*
X49010Y-41639D01*
X48890Y-41759D01*
X48825Y-41915D01*
X48825Y-42084D01*
X48889Y-42240D01*
X49009Y-42360D01*
X49165Y-42425D01*
X49334Y-42425D01*
X49490Y-42361D01*
X49521Y-42330D01*
X49903Y-42330D01*
X49760Y-42389D01*
X49640Y-42509D01*
X49575Y-42665D01*
X49575Y-42834D01*
X49639Y-42990D01*
X49670Y-43021D01*
X49670Y-43479D01*
X49640Y-43509D01*
X49575Y-43665D01*
X49575Y-43834D01*
X49639Y-43990D01*
X49759Y-44110D01*
X49915Y-44175D01*
X50084Y-44175D01*
X50240Y-44111D01*
X50360Y-43991D01*
X50425Y-43835D01*
X50425Y-43666D01*
X50361Y-43510D01*
X50330Y-43479D01*
X50330Y-43021D01*
X50360Y-42991D01*
X50425Y-42835D01*
X50425Y-42666D01*
X50361Y-42510D01*
X50241Y-42390D01*
X50097Y-42330D01*
X50903Y-42330D01*
X50760Y-42389D01*
X50640Y-42509D01*
X50575Y-42665D01*
X50575Y-42834D01*
X50639Y-42990D01*
X50670Y-43021D01*
X50670Y-43479D01*
X50640Y-43509D01*
X50575Y-43665D01*
X50575Y-43834D01*
X50639Y-43990D01*
X50759Y-44110D01*
X50915Y-44175D01*
X51084Y-44175D01*
X51240Y-44111D01*
X51360Y-43991D01*
X51425Y-43835D01*
X51425Y-43675D01*
X51584Y-43675D01*
X51740Y-43611D01*
X51771Y-43580D01*
X52479Y-43580D01*
X52509Y-43610D01*
X52665Y-43675D01*
X52834Y-43675D01*
X52990Y-43611D01*
X53110Y-43491D01*
X53175Y-43335D01*
X53175Y-43166D01*
X53111Y-43010D01*
X52991Y-42890D01*
X52835Y-42825D01*
X52666Y-42825D01*
X52510Y-42889D01*
X52479Y-42920D01*
X51771Y-42920D01*
X51741Y-42890D01*
X51585Y-42825D01*
X51425Y-42825D01*
X51425Y-42666D01*
X51361Y-42510D01*
X51241Y-42390D01*
X51097Y-42330D01*
X54019Y-42330D01*
X54093Y-42379D01*
X54250Y-42410D01*
X54407Y-42379D01*
X54540Y-42290D01*
X55786Y-41042D01*
X55789Y-41040D01*
X55790Y-41040D01*
X55878Y-40908D01*
X55879Y-40907D01*
X55903Y-40782D01*
X55910Y-40751D01*
X55909Y-40750D01*
X55910Y-40750D01*
X55910Y-38871D01*
X55925Y-38835D01*
X55925Y-50675D01*
X51298Y-50675D01*
X51306Y-50672D01*
X51457Y-50520D01*
X51540Y-50322D01*
X51540Y-50107D01*
X51540Y-49679D01*
X51458Y-49480D01*
X51425Y-49447D01*
X51425Y-45835D01*
X51425Y-45666D01*
X51361Y-45510D01*
X51330Y-45479D01*
X51330Y-45021D01*
X51360Y-44991D01*
X51425Y-44835D01*
X51425Y-44666D01*
X51361Y-44510D01*
X51241Y-44390D01*
X51085Y-44325D01*
X50916Y-44325D01*
X50760Y-44389D01*
X50640Y-44509D01*
X50575Y-44665D01*
X50575Y-44834D01*
X50639Y-44990D01*
X50670Y-45021D01*
X50670Y-45479D01*
X50640Y-45509D01*
X50575Y-45665D01*
X50575Y-45709D01*
X50407Y-45876D01*
X50425Y-45835D01*
X50425Y-45666D01*
X50361Y-45510D01*
X50330Y-45479D01*
X50330Y-45021D01*
X50360Y-44991D01*
X50425Y-44835D01*
X50425Y-44666D01*
X50361Y-44510D01*
X50241Y-44390D01*
X50085Y-44325D01*
X49916Y-44325D01*
X49760Y-44389D01*
X49640Y-44509D01*
X49575Y-44665D01*
X49575Y-44834D01*
X49639Y-44990D01*
X49670Y-45021D01*
X49670Y-45479D01*
X49640Y-45509D01*
X49575Y-45665D01*
X49575Y-45825D01*
X49416Y-45825D01*
X49260Y-45889D01*
X49140Y-46009D01*
X49075Y-46165D01*
X49075Y-46334D01*
X49139Y-46490D01*
X49259Y-46610D01*
X49415Y-46675D01*
X49584Y-46675D01*
X49740Y-46611D01*
X49771Y-46580D01*
X50500Y-46580D01*
X50626Y-46555D01*
X50627Y-46555D01*
X50733Y-46483D01*
X51041Y-46175D01*
X51084Y-46175D01*
X51240Y-46111D01*
X51360Y-45991D01*
X51425Y-45835D01*
X51425Y-49447D01*
X51306Y-49329D01*
X51108Y-49246D01*
X50893Y-49246D01*
X50694Y-49328D01*
X50543Y-49480D01*
X50500Y-49582D01*
X50458Y-49480D01*
X50306Y-49329D01*
X50108Y-49246D01*
X49893Y-49246D01*
X49694Y-49328D01*
X49543Y-49480D01*
X49500Y-49582D01*
X49458Y-49480D01*
X49306Y-49329D01*
X49108Y-49246D01*
X48893Y-49246D01*
X48694Y-49328D01*
X48675Y-49347D01*
X48675Y-37585D01*
X48675Y-37416D01*
X48611Y-37260D01*
X48491Y-37140D01*
X48335Y-37075D01*
X48166Y-37075D01*
X48010Y-37139D01*
X47979Y-37170D01*
X45521Y-37170D01*
X45491Y-37140D01*
X45335Y-37075D01*
X45166Y-37075D01*
X45010Y-37139D01*
X44890Y-37259D01*
X44825Y-37415D01*
X44825Y-37584D01*
X44889Y-37740D01*
X45009Y-37860D01*
X45165Y-37925D01*
X45334Y-37925D01*
X45490Y-37861D01*
X45521Y-37830D01*
X46860Y-37830D01*
X46825Y-37915D01*
X46825Y-38084D01*
X46889Y-38240D01*
X47009Y-38360D01*
X47165Y-38425D01*
X47334Y-38425D01*
X47490Y-38361D01*
X47610Y-38241D01*
X47675Y-38085D01*
X47675Y-37916D01*
X47639Y-37830D01*
X47979Y-37830D01*
X48009Y-37860D01*
X48165Y-37925D01*
X48334Y-37925D01*
X48490Y-37861D01*
X48610Y-37741D01*
X48675Y-37585D01*
X48675Y-49347D01*
X48543Y-49480D01*
X48500Y-49582D01*
X48458Y-49480D01*
X48306Y-49329D01*
X48108Y-49246D01*
X47893Y-49246D01*
X47694Y-49328D01*
X47543Y-49480D01*
X47460Y-49678D01*
X47460Y-49893D01*
X47460Y-50321D01*
X47542Y-50520D01*
X47694Y-50671D01*
X47703Y-50675D01*
X46298Y-50675D01*
X46306Y-50672D01*
X46457Y-50520D01*
X46540Y-50322D01*
X46540Y-50107D01*
X46540Y-49679D01*
X46458Y-49480D01*
X46306Y-49329D01*
X46108Y-49246D01*
X45893Y-49246D01*
X45694Y-49328D01*
X45543Y-49480D01*
X45500Y-49582D01*
X45458Y-49480D01*
X45306Y-49329D01*
X45108Y-49246D01*
X44893Y-49246D01*
X44694Y-49328D01*
X44543Y-49480D01*
X44500Y-49582D01*
X44458Y-49480D01*
X44306Y-49329D01*
X44108Y-49246D01*
X43893Y-49246D01*
X43694Y-49328D01*
X43675Y-49347D01*
X43675Y-37585D01*
X43675Y-37416D01*
X43611Y-37260D01*
X43491Y-37140D01*
X43335Y-37075D01*
X43166Y-37075D01*
X43010Y-37139D01*
X42979Y-37170D01*
X41271Y-37170D01*
X41241Y-37140D01*
X41085Y-37075D01*
X40916Y-37075D01*
X40760Y-37139D01*
X40640Y-37259D01*
X40575Y-37415D01*
X40575Y-37584D01*
X40639Y-37740D01*
X40759Y-37860D01*
X40915Y-37925D01*
X41084Y-37925D01*
X41240Y-37861D01*
X41271Y-37830D01*
X42979Y-37830D01*
X43009Y-37860D01*
X43165Y-37925D01*
X43334Y-37925D01*
X43490Y-37861D01*
X43610Y-37741D01*
X43675Y-37585D01*
X43675Y-49347D01*
X43543Y-49480D01*
X43500Y-49582D01*
X43458Y-49480D01*
X43306Y-49329D01*
X43175Y-49274D01*
X43175Y-45335D01*
X43175Y-45166D01*
X43175Y-43335D01*
X43175Y-43166D01*
X43111Y-43010D01*
X42991Y-42890D01*
X42925Y-42862D01*
X42925Y-42085D01*
X42925Y-41916D01*
X42861Y-41760D01*
X42741Y-41640D01*
X42705Y-41625D01*
X42740Y-41611D01*
X42860Y-41491D01*
X42925Y-41335D01*
X42925Y-41166D01*
X42861Y-41010D01*
X42741Y-40890D01*
X42705Y-40875D01*
X42740Y-40861D01*
X42860Y-40741D01*
X42925Y-40585D01*
X42925Y-40416D01*
X42861Y-40260D01*
X42741Y-40140D01*
X42585Y-40075D01*
X42416Y-40075D01*
X42379Y-40090D01*
X40121Y-40090D01*
X40085Y-40075D01*
X39916Y-40075D01*
X39760Y-40139D01*
X39640Y-40259D01*
X39575Y-40415D01*
X39575Y-40584D01*
X39639Y-40740D01*
X39759Y-40860D01*
X39794Y-40874D01*
X39760Y-40889D01*
X39640Y-41009D01*
X39575Y-41165D01*
X39575Y-41334D01*
X39639Y-41490D01*
X39759Y-41610D01*
X39794Y-41624D01*
X39760Y-41639D01*
X39640Y-41759D01*
X39575Y-41915D01*
X39575Y-42084D01*
X39639Y-42240D01*
X39759Y-42360D01*
X39915Y-42425D01*
X40084Y-42425D01*
X40240Y-42361D01*
X40271Y-42330D01*
X42229Y-42330D01*
X42259Y-42360D01*
X42415Y-42425D01*
X42584Y-42425D01*
X42740Y-42361D01*
X42860Y-42241D01*
X42925Y-42085D01*
X42925Y-42862D01*
X42835Y-42825D01*
X42666Y-42825D01*
X42510Y-42889D01*
X42479Y-42920D01*
X40271Y-42920D01*
X40241Y-42890D01*
X40085Y-42825D01*
X39916Y-42825D01*
X39760Y-42889D01*
X39640Y-43009D01*
X39575Y-43165D01*
X39575Y-43334D01*
X39639Y-43490D01*
X39759Y-43610D01*
X39915Y-43675D01*
X40084Y-43675D01*
X40240Y-43611D01*
X40271Y-43580D01*
X42479Y-43580D01*
X42509Y-43610D01*
X42665Y-43675D01*
X42834Y-43675D01*
X42990Y-43611D01*
X43110Y-43491D01*
X43175Y-43335D01*
X43175Y-45166D01*
X43111Y-45010D01*
X42991Y-44890D01*
X42835Y-44825D01*
X42791Y-44825D01*
X42733Y-44767D01*
X42627Y-44695D01*
X42500Y-44670D01*
X39271Y-44670D01*
X39241Y-44640D01*
X39085Y-44575D01*
X38916Y-44575D01*
X38760Y-44639D01*
X38640Y-44759D01*
X38575Y-44915D01*
X38575Y-45084D01*
X38639Y-45240D01*
X38759Y-45360D01*
X38915Y-45425D01*
X39084Y-45425D01*
X39240Y-45361D01*
X39271Y-45330D01*
X42325Y-45330D01*
X42325Y-45334D01*
X42389Y-45490D01*
X42509Y-45610D01*
X42665Y-45675D01*
X42834Y-45675D01*
X42990Y-45611D01*
X43110Y-45491D01*
X43175Y-45335D01*
X43175Y-49274D01*
X43108Y-49246D01*
X42893Y-49246D01*
X42694Y-49328D01*
X42543Y-49480D01*
X42500Y-49582D01*
X42458Y-49480D01*
X42306Y-49329D01*
X42108Y-49246D01*
X41893Y-49246D01*
X41694Y-49328D01*
X41543Y-49480D01*
X41500Y-49582D01*
X41458Y-49480D01*
X41306Y-49329D01*
X41108Y-49246D01*
X40893Y-49246D01*
X40694Y-49328D01*
X40543Y-49480D01*
X40500Y-49582D01*
X40458Y-49480D01*
X40306Y-49329D01*
X40108Y-49246D01*
X39893Y-49246D01*
X39694Y-49328D01*
X39543Y-49480D01*
X39500Y-49582D01*
X39458Y-49480D01*
X39306Y-49329D01*
X39108Y-49246D01*
X38893Y-49246D01*
X38694Y-49328D01*
X38543Y-49480D01*
X38460Y-49678D01*
X38460Y-49893D01*
X38460Y-50321D01*
X38542Y-50520D01*
X38694Y-50671D01*
X38703Y-50675D01*
X37298Y-50675D01*
X37306Y-50672D01*
X37457Y-50520D01*
X37540Y-50322D01*
X37540Y-50107D01*
X37540Y-49679D01*
X37458Y-49480D01*
X37306Y-49329D01*
X37108Y-49246D01*
X36893Y-49246D01*
X36694Y-49328D01*
X36543Y-49480D01*
X36500Y-49581D01*
X36489Y-49543D01*
X36353Y-49375D01*
X36163Y-49272D01*
X36135Y-49268D01*
X36050Y-49315D01*
X36050Y-49900D01*
X36050Y-49950D01*
X36050Y-50050D01*
X35950Y-50050D01*
X35950Y-49950D01*
X35950Y-49315D01*
X35865Y-49268D01*
X35837Y-49272D01*
X35647Y-49375D01*
X35511Y-49543D01*
X35500Y-49580D01*
X35489Y-49543D01*
X35353Y-49375D01*
X35163Y-49272D01*
X35135Y-49268D01*
X35050Y-49315D01*
X35050Y-49950D01*
X35450Y-49950D01*
X35550Y-49950D01*
X35950Y-49950D01*
X35950Y-50050D01*
X35900Y-50050D01*
X35550Y-50050D01*
X35450Y-50050D01*
X35100Y-50050D01*
X35050Y-50050D01*
X34950Y-50050D01*
X34950Y-49950D01*
X34950Y-49900D01*
X34950Y-49315D01*
X34865Y-49268D01*
X34837Y-49272D01*
X34647Y-49375D01*
X34511Y-49543D01*
X34499Y-49581D01*
X34458Y-49480D01*
X34306Y-49329D01*
X34108Y-49246D01*
X33893Y-49246D01*
X33694Y-49328D01*
X33543Y-49480D01*
X33500Y-49582D01*
X33458Y-49480D01*
X33306Y-49329D01*
X33108Y-49246D01*
X32893Y-49246D01*
X32694Y-49328D01*
X32543Y-49480D01*
X32500Y-49582D01*
X32458Y-49480D01*
X32306Y-49329D01*
X32108Y-49246D01*
X31893Y-49246D01*
X31694Y-49328D01*
X31675Y-49347D01*
X31675Y-43585D01*
X31675Y-43416D01*
X31675Y-41585D01*
X31675Y-41416D01*
X31675Y-40585D01*
X31675Y-40416D01*
X31611Y-40260D01*
X31491Y-40140D01*
X31335Y-40075D01*
X31166Y-40075D01*
X31010Y-40139D01*
X30979Y-40170D01*
X29771Y-40170D01*
X29741Y-40140D01*
X29585Y-40075D01*
X29416Y-40075D01*
X29260Y-40139D01*
X29140Y-40259D01*
X29075Y-40415D01*
X29075Y-40584D01*
X29139Y-40740D01*
X29259Y-40860D01*
X29415Y-40925D01*
X29584Y-40925D01*
X29740Y-40861D01*
X29771Y-40830D01*
X30979Y-40830D01*
X31009Y-40860D01*
X31165Y-40925D01*
X31334Y-40925D01*
X31490Y-40861D01*
X31610Y-40741D01*
X31675Y-40585D01*
X31675Y-41416D01*
X31611Y-41260D01*
X31491Y-41140D01*
X31335Y-41075D01*
X31166Y-41075D01*
X31010Y-41139D01*
X30979Y-41170D01*
X29771Y-41170D01*
X29741Y-41140D01*
X29585Y-41075D01*
X29416Y-41075D01*
X29260Y-41139D01*
X29140Y-41259D01*
X29075Y-41415D01*
X29075Y-41584D01*
X29139Y-41740D01*
X29259Y-41860D01*
X29415Y-41925D01*
X29584Y-41925D01*
X29740Y-41861D01*
X29771Y-41830D01*
X30979Y-41830D01*
X31009Y-41860D01*
X31165Y-41925D01*
X31334Y-41925D01*
X31490Y-41861D01*
X31610Y-41741D01*
X31675Y-41585D01*
X31675Y-43416D01*
X31611Y-43260D01*
X31491Y-43140D01*
X31335Y-43075D01*
X31166Y-43075D01*
X31129Y-43090D01*
X29371Y-43090D01*
X29335Y-43075D01*
X29166Y-43075D01*
X29010Y-43139D01*
X28890Y-43259D01*
X28825Y-43415D01*
X28825Y-43584D01*
X28889Y-43740D01*
X29009Y-43860D01*
X29165Y-43925D01*
X29334Y-43925D01*
X29370Y-43910D01*
X31129Y-43910D01*
X31165Y-43925D01*
X31334Y-43925D01*
X31490Y-43861D01*
X31610Y-43741D01*
X31675Y-43585D01*
X31675Y-49347D01*
X31543Y-49480D01*
X31460Y-49678D01*
X31460Y-49893D01*
X31460Y-50321D01*
X31542Y-50520D01*
X31694Y-50671D01*
X31703Y-50675D01*
X31175Y-50675D01*
X31175Y-44585D01*
X31175Y-44416D01*
X31111Y-44260D01*
X30991Y-44140D01*
X30835Y-44075D01*
X30666Y-44075D01*
X30629Y-44090D01*
X29371Y-44090D01*
X29335Y-44075D01*
X29166Y-44075D01*
X29010Y-44139D01*
X28890Y-44259D01*
X28825Y-44415D01*
X28825Y-44584D01*
X28889Y-44740D01*
X29009Y-44860D01*
X29165Y-44925D01*
X29334Y-44925D01*
X29370Y-44910D01*
X30629Y-44910D01*
X30665Y-44925D01*
X30834Y-44925D01*
X30990Y-44861D01*
X31110Y-44741D01*
X31175Y-44585D01*
X31175Y-50675D01*
X26007Y-50675D01*
X25644Y-50675D01*
X25644Y-31715D01*
X25000Y-31071D01*
X24929Y-31142D01*
X24356Y-31715D01*
X24439Y-31857D01*
X24809Y-32007D01*
X25209Y-32003D01*
X25561Y-31857D01*
X25644Y-31715D01*
X25644Y-50675D01*
X25507Y-50675D01*
X25302Y-50675D01*
X25309Y-50668D01*
X25259Y-50618D01*
X25357Y-50561D01*
X25507Y-50191D01*
X25503Y-49791D01*
X25357Y-49439D01*
X25215Y-49356D01*
X25144Y-49427D01*
X25144Y-49285D01*
X25061Y-49143D01*
X24691Y-48993D01*
X24291Y-48997D01*
X23939Y-49143D01*
X23856Y-49285D01*
X24500Y-49929D01*
X25144Y-49285D01*
X25144Y-49427D01*
X24606Y-49965D01*
X24571Y-50000D01*
X24500Y-50071D01*
X24429Y-50000D01*
X24394Y-49965D01*
X23785Y-49356D01*
X23643Y-49439D01*
X23493Y-49809D01*
X23497Y-50209D01*
X23643Y-50561D01*
X23740Y-50618D01*
X23691Y-50668D01*
X23698Y-50675D01*
X23025Y-50675D01*
X23025Y-31105D01*
X23025Y-30896D01*
X22945Y-30703D01*
X22798Y-30555D01*
X22605Y-30475D01*
X22396Y-30475D01*
X22203Y-30555D01*
X22055Y-30702D01*
X21996Y-30842D01*
X21952Y-30733D01*
X21861Y-30710D01*
X21790Y-30781D01*
X21790Y-30639D01*
X21767Y-30548D01*
X21574Y-30481D01*
X21370Y-30492D01*
X21233Y-30548D01*
X21210Y-30639D01*
X21500Y-30929D01*
X21790Y-30639D01*
X21790Y-30781D01*
X21571Y-31000D01*
X21861Y-31290D01*
X21952Y-31267D01*
X21993Y-31148D01*
X22055Y-31297D01*
X22202Y-31445D01*
X22395Y-31525D01*
X22604Y-31525D01*
X22797Y-31445D01*
X22945Y-31298D01*
X23025Y-31105D01*
X23025Y-50675D01*
X21790Y-50675D01*
X21790Y-31361D01*
X21500Y-31071D01*
X21429Y-31142D01*
X21429Y-31000D01*
X21139Y-30710D01*
X21048Y-30733D01*
X21024Y-30802D01*
X21024Y-30676D01*
X20986Y-30584D01*
X20916Y-30514D01*
X20825Y-30476D01*
X20726Y-30476D01*
X20176Y-30476D01*
X20084Y-30514D01*
X20014Y-30584D01*
X19976Y-30675D01*
X19976Y-30774D01*
X19976Y-31324D01*
X20014Y-31416D01*
X20084Y-31486D01*
X20175Y-31524D01*
X20274Y-31524D01*
X20824Y-31524D01*
X20916Y-31486D01*
X20986Y-31416D01*
X21024Y-31325D01*
X21024Y-31226D01*
X21024Y-31208D01*
X21048Y-31267D01*
X21139Y-31290D01*
X21429Y-31000D01*
X21429Y-31142D01*
X21210Y-31361D01*
X21233Y-31452D01*
X21426Y-31519D01*
X21630Y-31508D01*
X21767Y-31452D01*
X21790Y-31361D01*
X21790Y-50675D01*
X21025Y-50675D01*
X21025Y-44605D01*
X21025Y-44396D01*
X20945Y-44203D01*
X20798Y-44055D01*
X20664Y-43999D01*
X20797Y-43945D01*
X20945Y-43798D01*
X21025Y-43605D01*
X21025Y-43396D01*
X21025Y-41605D01*
X21025Y-41396D01*
X20945Y-41203D01*
X20798Y-41055D01*
X20664Y-40999D01*
X20797Y-40945D01*
X20945Y-40798D01*
X21025Y-40605D01*
X21025Y-40396D01*
X21025Y-38605D01*
X21025Y-38396D01*
X20945Y-38203D01*
X20798Y-38055D01*
X20605Y-37975D01*
X20396Y-37975D01*
X20203Y-38055D01*
X20055Y-38202D01*
X19975Y-38395D01*
X19975Y-38604D01*
X20055Y-38797D01*
X20202Y-38945D01*
X20342Y-39003D01*
X20233Y-39048D01*
X20210Y-39139D01*
X20500Y-39429D01*
X20790Y-39139D01*
X20767Y-39048D01*
X20648Y-39006D01*
X20797Y-38945D01*
X20945Y-38798D01*
X21025Y-38605D01*
X21025Y-40396D01*
X21019Y-40381D01*
X21019Y-39574D01*
X21008Y-39370D01*
X20952Y-39233D01*
X20861Y-39210D01*
X20571Y-39500D01*
X20861Y-39790D01*
X20952Y-39767D01*
X21019Y-39574D01*
X21019Y-40381D01*
X20945Y-40203D01*
X20798Y-40055D01*
X20657Y-39996D01*
X20767Y-39952D01*
X20790Y-39861D01*
X20500Y-39571D01*
X20429Y-39642D01*
X20429Y-39500D01*
X20139Y-39210D01*
X20048Y-39233D01*
X19981Y-39426D01*
X19992Y-39630D01*
X20048Y-39767D01*
X20139Y-39790D01*
X20429Y-39500D01*
X20429Y-39642D01*
X20210Y-39861D01*
X20233Y-39952D01*
X20351Y-39993D01*
X20203Y-40055D01*
X20055Y-40202D01*
X19975Y-40395D01*
X19975Y-40604D01*
X20055Y-40797D01*
X20202Y-40945D01*
X20335Y-41000D01*
X20203Y-41055D01*
X20055Y-41202D01*
X19975Y-41395D01*
X19975Y-41604D01*
X20055Y-41797D01*
X20202Y-41945D01*
X20342Y-42003D01*
X20233Y-42048D01*
X20210Y-42139D01*
X20500Y-42429D01*
X20790Y-42139D01*
X20767Y-42048D01*
X20648Y-42006D01*
X20797Y-41945D01*
X20945Y-41798D01*
X21025Y-41605D01*
X21025Y-43396D01*
X21019Y-43381D01*
X21019Y-42574D01*
X21008Y-42370D01*
X20952Y-42233D01*
X20861Y-42210D01*
X20571Y-42500D01*
X20861Y-42790D01*
X20952Y-42767D01*
X21019Y-42574D01*
X21019Y-43381D01*
X20945Y-43203D01*
X20798Y-43055D01*
X20657Y-42996D01*
X20767Y-42952D01*
X20790Y-42861D01*
X20500Y-42571D01*
X20429Y-42642D01*
X20429Y-42500D01*
X20139Y-42210D01*
X20048Y-42233D01*
X19981Y-42426D01*
X19992Y-42630D01*
X20048Y-42767D01*
X20139Y-42790D01*
X20429Y-42500D01*
X20429Y-42642D01*
X20210Y-42861D01*
X20233Y-42952D01*
X20351Y-42993D01*
X20203Y-43055D01*
X20055Y-43202D01*
X19975Y-43395D01*
X19975Y-43604D01*
X20055Y-43797D01*
X20202Y-43945D01*
X20335Y-44000D01*
X20203Y-44055D01*
X20055Y-44202D01*
X19975Y-44395D01*
X19975Y-44604D01*
X20055Y-44797D01*
X20202Y-44945D01*
X20276Y-44976D01*
X20176Y-44976D01*
X20084Y-45014D01*
X20014Y-45084D01*
X19976Y-45175D01*
X19976Y-45274D01*
X19976Y-45824D01*
X20014Y-45916D01*
X20084Y-45986D01*
X20175Y-46024D01*
X20274Y-46024D01*
X20824Y-46024D01*
X20916Y-45986D01*
X20986Y-45916D01*
X21024Y-45825D01*
X21024Y-45726D01*
X21024Y-45176D01*
X20986Y-45084D01*
X20916Y-45014D01*
X20825Y-44976D01*
X20726Y-44976D01*
X20722Y-44976D01*
X20797Y-44945D01*
X20945Y-44798D01*
X21025Y-44605D01*
X21025Y-50675D01*
X19325Y-50675D01*
X19325Y-30325D01*
X24198Y-30325D01*
X24191Y-30332D01*
X24240Y-30381D01*
X24143Y-30439D01*
X23993Y-30809D01*
X23997Y-31209D01*
X24143Y-31561D01*
X24285Y-31644D01*
X24894Y-31035D01*
X24929Y-31000D01*
X25000Y-30929D01*
X25071Y-31000D01*
X25106Y-31035D01*
X25715Y-31644D01*
X25857Y-31561D01*
X26007Y-31191D01*
X26003Y-30791D01*
X25857Y-30439D01*
X25759Y-30381D01*
X25809Y-30332D01*
X25802Y-30325D01*
X28101Y-30325D01*
X28094Y-30328D01*
X27943Y-30480D01*
X27860Y-30678D01*
X27860Y-30893D01*
X27860Y-31321D01*
X27942Y-31520D01*
X28094Y-31671D01*
X28292Y-31754D01*
X28507Y-31754D01*
X28706Y-31672D01*
X28857Y-31520D01*
X28899Y-31418D01*
X28911Y-31457D01*
X29047Y-31625D01*
X29237Y-31728D01*
X29265Y-31732D01*
X29350Y-31685D01*
X29350Y-31100D01*
X29350Y-31050D01*
X29350Y-30950D01*
X29450Y-30950D01*
X29450Y-31050D01*
X29450Y-31100D01*
X29450Y-31685D01*
X29535Y-31732D01*
X29563Y-31728D01*
X29753Y-31625D01*
X29889Y-31457D01*
X29900Y-31418D01*
X29942Y-31520D01*
X30094Y-31671D01*
X30292Y-31754D01*
X30507Y-31754D01*
X30706Y-31672D01*
X30857Y-31520D01*
X30899Y-31417D01*
X30942Y-31520D01*
X31094Y-31671D01*
X31292Y-31754D01*
X31507Y-31754D01*
X31706Y-31672D01*
X31857Y-31520D01*
X31899Y-31417D01*
X31942Y-31520D01*
X32094Y-31671D01*
X32292Y-31754D01*
X32507Y-31754D01*
X32706Y-31672D01*
X32857Y-31520D01*
X32899Y-31417D01*
X32942Y-31520D01*
X33094Y-31671D01*
X33292Y-31754D01*
X33507Y-31754D01*
X33706Y-31672D01*
X33857Y-31520D01*
X33899Y-31417D01*
X33942Y-31520D01*
X34094Y-31671D01*
X34292Y-31754D01*
X34507Y-31754D01*
X34706Y-31672D01*
X34857Y-31520D01*
X34899Y-31417D01*
X34942Y-31520D01*
X35094Y-31671D01*
X35292Y-31754D01*
X35507Y-31754D01*
X35706Y-31672D01*
X35857Y-31520D01*
X35940Y-31322D01*
X35940Y-31107D01*
X35940Y-30679D01*
X35858Y-30480D01*
X35706Y-30329D01*
X35696Y-30325D01*
X36701Y-30325D01*
X36694Y-30328D01*
X36543Y-30480D01*
X36460Y-30678D01*
X36460Y-30893D01*
X36460Y-31321D01*
X36542Y-31520D01*
X36694Y-31671D01*
X36892Y-31754D01*
X37107Y-31754D01*
X37306Y-31672D01*
X37457Y-31520D01*
X37499Y-31417D01*
X37542Y-31520D01*
X37694Y-31671D01*
X37892Y-31754D01*
X38107Y-31754D01*
X38306Y-31672D01*
X38457Y-31520D01*
X38499Y-31417D01*
X38542Y-31520D01*
X38694Y-31671D01*
X38892Y-31754D01*
X39107Y-31754D01*
X39306Y-31672D01*
X39457Y-31520D01*
X39499Y-31417D01*
X39542Y-31520D01*
X39694Y-31671D01*
X39892Y-31754D01*
X40107Y-31754D01*
X40306Y-31672D01*
X40457Y-31520D01*
X40499Y-31417D01*
X40542Y-31520D01*
X40694Y-31671D01*
X40892Y-31754D01*
X41107Y-31754D01*
X41306Y-31672D01*
X41457Y-31520D01*
X41499Y-31417D01*
X41542Y-31520D01*
X41694Y-31671D01*
X41892Y-31754D01*
X42107Y-31754D01*
X42306Y-31672D01*
X42457Y-31520D01*
X42499Y-31417D01*
X42542Y-31520D01*
X42694Y-31671D01*
X42892Y-31754D01*
X43107Y-31754D01*
X43306Y-31672D01*
X43457Y-31520D01*
X43499Y-31417D01*
X43542Y-31520D01*
X43694Y-31671D01*
X43892Y-31754D01*
X44107Y-31754D01*
X44306Y-31672D01*
X44457Y-31520D01*
X44540Y-31322D01*
X44540Y-31107D01*
X44540Y-30679D01*
X44458Y-30480D01*
X44306Y-30329D01*
X44296Y-30325D01*
X45701Y-30325D01*
X45694Y-30328D01*
X45543Y-30480D01*
X45460Y-30678D01*
X45460Y-30893D01*
X45460Y-31321D01*
X45542Y-31520D01*
X45694Y-31671D01*
X45892Y-31754D01*
X46107Y-31754D01*
X46306Y-31672D01*
X46457Y-31520D01*
X46499Y-31417D01*
X46542Y-31520D01*
X46694Y-31671D01*
X46892Y-31754D01*
X47107Y-31754D01*
X47306Y-31672D01*
X47457Y-31520D01*
X47499Y-31417D01*
X47542Y-31520D01*
X47694Y-31671D01*
X47892Y-31754D01*
X48107Y-31754D01*
X48306Y-31672D01*
X48457Y-31520D01*
X48499Y-31417D01*
X48542Y-31520D01*
X48694Y-31671D01*
X48892Y-31754D01*
X49107Y-31754D01*
X49306Y-31672D01*
X49457Y-31520D01*
X49499Y-31417D01*
X49542Y-31520D01*
X49694Y-31671D01*
X49892Y-31754D01*
X50107Y-31754D01*
X50306Y-31672D01*
X50457Y-31520D01*
X50499Y-31417D01*
X50542Y-31520D01*
X50694Y-31671D01*
X50892Y-31754D01*
X51107Y-31754D01*
X51306Y-31672D01*
X51457Y-31520D01*
X51499Y-31417D01*
X51542Y-31520D01*
X51694Y-31671D01*
X51892Y-31754D01*
X52107Y-31754D01*
X52306Y-31672D01*
X52457Y-31520D01*
X52499Y-31417D01*
X52542Y-31520D01*
X52694Y-31671D01*
X52892Y-31754D01*
X53107Y-31754D01*
X53306Y-31672D01*
X53457Y-31520D01*
X53540Y-31322D01*
X53540Y-31312D01*
X53643Y-31561D01*
X53785Y-31644D01*
X54394Y-31035D01*
X54429Y-31000D01*
X54500Y-30929D01*
X54571Y-31000D01*
X54606Y-31035D01*
X55215Y-31644D01*
X55357Y-31561D01*
X55507Y-31191D01*
X55503Y-30791D01*
X55357Y-30439D01*
X55259Y-30381D01*
X55309Y-30332D01*
X55302Y-30325D01*
X57365Y-30325D01*
X57675Y-30635D01*
X57675Y-35000D01*
X57675Y-49198D01*
X57675Y-49198D01*
G37*
G54D18*
X57675Y-49198D02*
X57668Y-49191D01*
X57618Y-49240D01*
X57561Y-49143D01*
X57525Y-49128D01*
X57525Y-45105D01*
X57525Y-44896D01*
X57445Y-44703D01*
X57298Y-44555D01*
X57164Y-44499D01*
X57297Y-44445D01*
X57445Y-44298D01*
X57525Y-44105D01*
X57525Y-43896D01*
X57525Y-42105D01*
X57525Y-41896D01*
X57445Y-41703D01*
X57298Y-41555D01*
X57164Y-41499D01*
X57297Y-41445D01*
X57445Y-41298D01*
X57525Y-41105D01*
X57525Y-40896D01*
X57525Y-37605D01*
X57525Y-37396D01*
X57445Y-37203D01*
X57298Y-37055D01*
X57164Y-36999D01*
X57297Y-36945D01*
X57445Y-36798D01*
X57525Y-36605D01*
X57525Y-36396D01*
X57525Y-34605D01*
X57525Y-34396D01*
X57445Y-34203D01*
X57298Y-34055D01*
X57164Y-33999D01*
X57297Y-33945D01*
X57445Y-33798D01*
X57525Y-33605D01*
X57525Y-33396D01*
X57445Y-33203D01*
X57298Y-33055D01*
X57223Y-33024D01*
X57324Y-33024D01*
X57416Y-32986D01*
X57486Y-32916D01*
X57524Y-32825D01*
X57524Y-32726D01*
X57524Y-32176D01*
X57486Y-32084D01*
X57416Y-32014D01*
X57325Y-31976D01*
X57226Y-31976D01*
X56676Y-31976D01*
X56584Y-32014D01*
X56514Y-32084D01*
X56476Y-32175D01*
X56476Y-32274D01*
X56476Y-32824D01*
X56514Y-32916D01*
X56584Y-32986D01*
X56675Y-33024D01*
X56774Y-33024D01*
X56703Y-33055D01*
X56555Y-33202D01*
X56475Y-33395D01*
X56475Y-33604D01*
X56555Y-33797D01*
X56702Y-33945D01*
X56835Y-34000D01*
X56703Y-34055D01*
X56555Y-34202D01*
X56475Y-34395D01*
X56475Y-34604D01*
X56555Y-34797D01*
X56702Y-34945D01*
X56842Y-35003D01*
X56733Y-35048D01*
X56710Y-35139D01*
X57000Y-35429D01*
X57290Y-35139D01*
X57267Y-35048D01*
X57148Y-35006D01*
X57297Y-34945D01*
X57445Y-34798D01*
X57525Y-34605D01*
X57525Y-36396D01*
X57519Y-36381D01*
X57519Y-35574D01*
X57508Y-35370D01*
X57452Y-35233D01*
X57361Y-35210D01*
X57071Y-35500D01*
X57361Y-35790D01*
X57452Y-35767D01*
X57519Y-35574D01*
X57519Y-36381D01*
X57445Y-36203D01*
X57298Y-36055D01*
X57157Y-35996D01*
X57267Y-35952D01*
X57290Y-35861D01*
X57000Y-35571D01*
X56929Y-35642D01*
X56929Y-35500D01*
X56639Y-35210D01*
X56548Y-35233D01*
X56481Y-35426D01*
X56492Y-35630D01*
X56548Y-35767D01*
X56639Y-35790D01*
X56929Y-35500D01*
X56929Y-35642D01*
X56710Y-35861D01*
X56733Y-35952D01*
X56851Y-35993D01*
X56703Y-36055D01*
X56555Y-36202D01*
X56475Y-36395D01*
X56475Y-36604D01*
X56555Y-36797D01*
X56702Y-36945D01*
X56835Y-37000D01*
X56703Y-37055D01*
X56555Y-37202D01*
X56475Y-37395D01*
X56475Y-37604D01*
X56555Y-37797D01*
X56702Y-37945D01*
X56895Y-38025D01*
X57104Y-38025D01*
X57297Y-37945D01*
X57445Y-37798D01*
X57525Y-37605D01*
X57525Y-40896D01*
X57445Y-40703D01*
X57298Y-40555D01*
X57223Y-40524D01*
X57324Y-40524D01*
X57416Y-40486D01*
X57486Y-40416D01*
X57524Y-40325D01*
X57524Y-40226D01*
X57524Y-39676D01*
X57486Y-39584D01*
X57416Y-39514D01*
X57325Y-39476D01*
X57226Y-39476D01*
X56676Y-39476D01*
X56584Y-39514D01*
X56514Y-39584D01*
X56476Y-39675D01*
X56476Y-39774D01*
X56476Y-40324D01*
X56514Y-40416D01*
X56584Y-40486D01*
X56675Y-40524D01*
X56774Y-40524D01*
X56703Y-40555D01*
X56555Y-40702D01*
X56475Y-40895D01*
X56475Y-41104D01*
X56555Y-41297D01*
X56702Y-41445D01*
X56835Y-41500D01*
X56703Y-41555D01*
X56555Y-41702D01*
X56475Y-41895D01*
X56475Y-42104D01*
X56555Y-42297D01*
X56702Y-42445D01*
X56842Y-42503D01*
X56733Y-42548D01*
X56710Y-42639D01*
X57000Y-42929D01*
X57290Y-42639D01*
X57267Y-42548D01*
X57148Y-42506D01*
X57297Y-42445D01*
X57445Y-42298D01*
X57525Y-42105D01*
X57525Y-43896D01*
X57519Y-43881D01*
X57519Y-43074D01*
X57508Y-42870D01*
X57452Y-42733D01*
X57361Y-42710D01*
X57071Y-43000D01*
X57361Y-43290D01*
X57452Y-43267D01*
X57519Y-43074D01*
X57519Y-43881D01*
X57445Y-43703D01*
X57298Y-43555D01*
X57157Y-43496D01*
X57267Y-43452D01*
X57290Y-43361D01*
X57000Y-43071D01*
X56929Y-43142D01*
X56929Y-43000D01*
X56639Y-42710D01*
X56548Y-42733D01*
X56481Y-42926D01*
X56492Y-43130D01*
X56548Y-43267D01*
X56639Y-43290D01*
X56929Y-43000D01*
X56929Y-43142D01*
X56710Y-43361D01*
X56733Y-43452D01*
X56851Y-43493D01*
X56703Y-43555D01*
X56555Y-43702D01*
X56475Y-43895D01*
X56475Y-44104D01*
X56555Y-44297D01*
X56702Y-44445D01*
X56835Y-44500D01*
X56703Y-44555D01*
X56555Y-44702D01*
X56475Y-44895D01*
X56475Y-45104D01*
X56555Y-45297D01*
X56702Y-45445D01*
X56895Y-45525D01*
X57104Y-45525D01*
X57297Y-45445D01*
X57445Y-45298D01*
X57525Y-45105D01*
X57525Y-49128D01*
X57191Y-48993D01*
X56791Y-48997D01*
X56439Y-49143D01*
X56356Y-49285D01*
X56965Y-49894D01*
X57000Y-49929D01*
X57071Y-50000D01*
X57000Y-50071D01*
X56929Y-50000D01*
X56894Y-49965D01*
X56285Y-49356D01*
X56143Y-49439D01*
X55993Y-49809D01*
X55997Y-50209D01*
X56143Y-50561D01*
X56240Y-50618D01*
X56191Y-50668D01*
X56198Y-50675D01*
X55925Y-50675D01*
X55925Y-38835D01*
X55925Y-38666D01*
X55910Y-38629D01*
X55910Y-32621D01*
X55925Y-32585D01*
X55925Y-32416D01*
X55861Y-32260D01*
X55741Y-32140D01*
X55585Y-32075D01*
X55507Y-32075D01*
X55416Y-32075D01*
X55260Y-32139D01*
X55144Y-32255D01*
X55144Y-31715D01*
X54500Y-31071D01*
X53856Y-31715D01*
X53939Y-31857D01*
X54309Y-32007D01*
X54709Y-32003D01*
X55061Y-31857D01*
X55144Y-31715D01*
X55144Y-32255D01*
X55140Y-32259D01*
X55075Y-32415D01*
X55075Y-32584D01*
X55090Y-32620D01*
X55090Y-33239D01*
X54991Y-33140D01*
X54835Y-33075D01*
X54666Y-33075D01*
X54510Y-33139D01*
X54390Y-33259D01*
X54325Y-33415D01*
X54325Y-33584D01*
X54340Y-33620D01*
X54340Y-34239D01*
X54241Y-34140D01*
X54085Y-34075D01*
X53916Y-34075D01*
X53760Y-34139D01*
X53640Y-34259D01*
X53575Y-34415D01*
X53575Y-34584D01*
X53590Y-34620D01*
X53590Y-38629D01*
X53575Y-38665D01*
X53575Y-38834D01*
X53590Y-38870D01*
X53590Y-39580D01*
X53080Y-40090D01*
X51425Y-40090D01*
X51425Y-39335D01*
X51425Y-39166D01*
X51361Y-39010D01*
X51330Y-38979D01*
X51330Y-34771D01*
X51360Y-34741D01*
X51425Y-34585D01*
X51425Y-34416D01*
X51361Y-34260D01*
X51241Y-34140D01*
X51085Y-34075D01*
X50916Y-34075D01*
X50760Y-34139D01*
X50729Y-34170D01*
X45021Y-34170D01*
X44991Y-34140D01*
X44835Y-34075D01*
X44666Y-34075D01*
X44510Y-34139D01*
X44390Y-34259D01*
X44325Y-34415D01*
X44325Y-34584D01*
X44360Y-34670D01*
X44271Y-34670D01*
X44241Y-34640D01*
X44085Y-34575D01*
X43916Y-34575D01*
X43760Y-34639D01*
X43640Y-34759D01*
X43575Y-34915D01*
X43575Y-35084D01*
X43639Y-35240D01*
X43759Y-35360D01*
X43915Y-35425D01*
X44084Y-35425D01*
X44240Y-35361D01*
X44271Y-35330D01*
X49670Y-35330D01*
X49670Y-38729D01*
X49640Y-38759D01*
X49575Y-38915D01*
X49575Y-39084D01*
X49639Y-39240D01*
X49759Y-39360D01*
X49915Y-39425D01*
X50084Y-39425D01*
X50240Y-39361D01*
X50360Y-39241D01*
X50425Y-39085D01*
X50425Y-38916D01*
X50361Y-38760D01*
X50330Y-38729D01*
X50330Y-35271D01*
X50360Y-35241D01*
X50425Y-35085D01*
X50425Y-34916D01*
X50389Y-34830D01*
X50670Y-34830D01*
X50670Y-38979D01*
X50640Y-39009D01*
X50575Y-39165D01*
X50575Y-39334D01*
X50639Y-39490D01*
X50759Y-39610D01*
X50915Y-39675D01*
X51084Y-39675D01*
X51240Y-39611D01*
X51360Y-39491D01*
X51425Y-39335D01*
X51425Y-40090D01*
X49425Y-40090D01*
X49425Y-36335D01*
X49425Y-36166D01*
X49361Y-36010D01*
X49241Y-35890D01*
X49085Y-35825D01*
X48916Y-35825D01*
X48760Y-35889D01*
X48729Y-35920D01*
X45521Y-35920D01*
X45491Y-35890D01*
X45335Y-35825D01*
X45166Y-35825D01*
X45010Y-35889D01*
X44890Y-36009D01*
X44825Y-36165D01*
X44825Y-36334D01*
X44889Y-36490D01*
X45009Y-36610D01*
X45165Y-36675D01*
X45334Y-36675D01*
X45490Y-36611D01*
X45521Y-36580D01*
X48729Y-36580D01*
X48759Y-36610D01*
X48915Y-36675D01*
X49084Y-36675D01*
X49240Y-36611D01*
X49360Y-36491D01*
X49425Y-36335D01*
X49425Y-40090D01*
X49371Y-40090D01*
X49335Y-40075D01*
X49166Y-40075D01*
X49010Y-40139D01*
X48890Y-40259D01*
X48825Y-40415D01*
X48825Y-40584D01*
X48889Y-40740D01*
X49009Y-40860D01*
X49044Y-40874D01*
X49010Y-40889D01*
X48890Y-41009D01*
X48825Y-41165D01*
X48825Y-41334D01*
X48889Y-41490D01*
X49009Y-41610D01*
X49044Y-41624D01*
X49010Y-41639D01*
X48890Y-41759D01*
X48825Y-41915D01*
X48825Y-42084D01*
X48889Y-42240D01*
X49009Y-42360D01*
X49165Y-42425D01*
X49334Y-42425D01*
X49490Y-42361D01*
X49521Y-42330D01*
X49903Y-42330D01*
X49760Y-42389D01*
X49640Y-42509D01*
X49575Y-42665D01*
X49575Y-42834D01*
X49639Y-42990D01*
X49670Y-43021D01*
X49670Y-43479D01*
X49640Y-43509D01*
X49575Y-43665D01*
X49575Y-43834D01*
X49639Y-43990D01*
X49759Y-44110D01*
X49915Y-44175D01*
X50084Y-44175D01*
X50240Y-44111D01*
X50360Y-43991D01*
X50425Y-43835D01*
X50425Y-43666D01*
X50361Y-43510D01*
X50330Y-43479D01*
X50330Y-43021D01*
X50360Y-42991D01*
X50425Y-42835D01*
X50425Y-42666D01*
X50361Y-42510D01*
X50241Y-42390D01*
X50097Y-42330D01*
X50903Y-42330D01*
X50760Y-42389D01*
X50640Y-42509D01*
X50575Y-42665D01*
X50575Y-42834D01*
X50639Y-42990D01*
X50670Y-43021D01*
X50670Y-43479D01*
X50640Y-43509D01*
X50575Y-43665D01*
X50575Y-43834D01*
X50639Y-43990D01*
X50759Y-44110D01*
X50915Y-44175D01*
X51084Y-44175D01*
X51240Y-44111D01*
X51360Y-43991D01*
X51425Y-43835D01*
X51425Y-43675D01*
X51584Y-43675D01*
X51740Y-43611D01*
X51771Y-43580D01*
X52479Y-43580D01*
X52509Y-43610D01*
X52665Y-43675D01*
X52834Y-43675D01*
X52990Y-43611D01*
X53110Y-43491D01*
X53175Y-43335D01*
X53175Y-43166D01*
X53111Y-43010D01*
X52991Y-42890D01*
X52835Y-42825D01*
X52666Y-42825D01*
X52510Y-42889D01*
X52479Y-42920D01*
X51771Y-42920D01*
X51741Y-42890D01*
X51585Y-42825D01*
X51425Y-42825D01*
X51425Y-42666D01*
X51361Y-42510D01*
X51241Y-42390D01*
X51097Y-42330D01*
X54019Y-42330D01*
X54093Y-42379D01*
X54250Y-42410D01*
X54407Y-42379D01*
X54540Y-42290D01*
X55786Y-41042D01*
X55789Y-41040D01*
X55790Y-41040D01*
X55878Y-40908D01*
X55879Y-40907D01*
X55903Y-40782D01*
X55910Y-40751D01*
X55909Y-40750D01*
X55910Y-40750D01*
X55910Y-38871D01*
X55925Y-38835D01*
X55925Y-50675D01*
X51298Y-50675D01*
X51306Y-50672D01*
X51457Y-50520D01*
X51540Y-50322D01*
X51540Y-50107D01*
X51540Y-49679D01*
X51458Y-49480D01*
X51425Y-49447D01*
X51425Y-45835D01*
X51425Y-45666D01*
X51361Y-45510D01*
X51330Y-45479D01*
X51330Y-45021D01*
X51360Y-44991D01*
X51425Y-44835D01*
X51425Y-44666D01*
X51361Y-44510D01*
X51241Y-44390D01*
X51085Y-44325D01*
X50916Y-44325D01*
X50760Y-44389D01*
X50640Y-44509D01*
X50575Y-44665D01*
X50575Y-44834D01*
X50639Y-44990D01*
X50670Y-45021D01*
X50670Y-45479D01*
X50640Y-45509D01*
X50575Y-45665D01*
X50575Y-45709D01*
X50407Y-45876D01*
X50425Y-45835D01*
X50425Y-45666D01*
X50361Y-45510D01*
X50330Y-45479D01*
X50330Y-45021D01*
X50360Y-44991D01*
X50425Y-44835D01*
X50425Y-44666D01*
X50361Y-44510D01*
X50241Y-44390D01*
X50085Y-44325D01*
X49916Y-44325D01*
X49760Y-44389D01*
X49640Y-44509D01*
X49575Y-44665D01*
X49575Y-44834D01*
X49639Y-44990D01*
X49670Y-45021D01*
X49670Y-45479D01*
X49640Y-45509D01*
X49575Y-45665D01*
X49575Y-45825D01*
X49416Y-45825D01*
X49260Y-45889D01*
X49140Y-46009D01*
X49075Y-46165D01*
X49075Y-46334D01*
X49139Y-46490D01*
X49259Y-46610D01*
X49415Y-46675D01*
X49584Y-46675D01*
X49740Y-46611D01*
X49771Y-46580D01*
X50500Y-46580D01*
X50626Y-46555D01*
X50627Y-46555D01*
X50733Y-46483D01*
X51041Y-46175D01*
X51084Y-46175D01*
X51240Y-46111D01*
X51360Y-45991D01*
X51425Y-45835D01*
X51425Y-49447D01*
X51306Y-49329D01*
X51108Y-49246D01*
X50893Y-49246D01*
X50694Y-49328D01*
X50543Y-49480D01*
X50500Y-49582D01*
X50458Y-49480D01*
X50306Y-49329D01*
X50108Y-49246D01*
X49893Y-49246D01*
X49694Y-49328D01*
X49543Y-49480D01*
X49500Y-49582D01*
X49458Y-49480D01*
X49306Y-49329D01*
X49108Y-49246D01*
X48893Y-49246D01*
X48694Y-49328D01*
X48675Y-49347D01*
X48675Y-37585D01*
X48675Y-37416D01*
X48611Y-37260D01*
X48491Y-37140D01*
X48335Y-37075D01*
X48166Y-37075D01*
X48010Y-37139D01*
X47979Y-37170D01*
X45521Y-37170D01*
X45491Y-37140D01*
X45335Y-37075D01*
X45166Y-37075D01*
X45010Y-37139D01*
X44890Y-37259D01*
X44825Y-37415D01*
X44825Y-37584D01*
X44889Y-37740D01*
X45009Y-37860D01*
X45165Y-37925D01*
X45334Y-37925D01*
X45490Y-37861D01*
X45521Y-37830D01*
X46860Y-37830D01*
X46825Y-37915D01*
X46825Y-38084D01*
X46889Y-38240D01*
X47009Y-38360D01*
X47165Y-38425D01*
X47334Y-38425D01*
X47490Y-38361D01*
X47610Y-38241D01*
X47675Y-38085D01*
X47675Y-37916D01*
X47639Y-37830D01*
X47979Y-37830D01*
X48009Y-37860D01*
X48165Y-37925D01*
X48334Y-37925D01*
X48490Y-37861D01*
X48610Y-37741D01*
X48675Y-37585D01*
X48675Y-49347D01*
X48543Y-49480D01*
X48500Y-49582D01*
X48458Y-49480D01*
X48306Y-49329D01*
X48108Y-49246D01*
X47893Y-49246D01*
X47694Y-49328D01*
X47543Y-49480D01*
X47460Y-49678D01*
X47460Y-49893D01*
X47460Y-50321D01*
X47542Y-50520D01*
X47694Y-50671D01*
X47703Y-50675D01*
X46298Y-50675D01*
X46306Y-50672D01*
X46457Y-50520D01*
X46540Y-50322D01*
X46540Y-50107D01*
X46540Y-49679D01*
X46458Y-49480D01*
X46306Y-49329D01*
X46108Y-49246D01*
X45893Y-49246D01*
X45694Y-49328D01*
X45543Y-49480D01*
X45500Y-49582D01*
X45458Y-49480D01*
X45306Y-49329D01*
X45108Y-49246D01*
X44893Y-49246D01*
X44694Y-49328D01*
X44543Y-49480D01*
X44500Y-49582D01*
X44458Y-49480D01*
X44306Y-49329D01*
X44108Y-49246D01*
X43893Y-49246D01*
X43694Y-49328D01*
X43675Y-49347D01*
X43675Y-37585D01*
X43675Y-37416D01*
X43611Y-37260D01*
X43491Y-37140D01*
X43335Y-37075D01*
X43166Y-37075D01*
X43010Y-37139D01*
X42979Y-37170D01*
X41271Y-37170D01*
X41241Y-37140D01*
X41085Y-37075D01*
X40916Y-37075D01*
X40760Y-37139D01*
X40640Y-37259D01*
X40575Y-37415D01*
X40575Y-37584D01*
X40639Y-37740D01*
X40759Y-37860D01*
X40915Y-37925D01*
X41084Y-37925D01*
X41240Y-37861D01*
X41271Y-37830D01*
X42979Y-37830D01*
X43009Y-37860D01*
X43165Y-37925D01*
X43334Y-37925D01*
X43490Y-37861D01*
X43610Y-37741D01*
X43675Y-37585D01*
X43675Y-49347D01*
X43543Y-49480D01*
X43500Y-49582D01*
X43458Y-49480D01*
X43306Y-49329D01*
X43175Y-49274D01*
X43175Y-45335D01*
X43175Y-45166D01*
X43175Y-43335D01*
X43175Y-43166D01*
X43111Y-43010D01*
X42991Y-42890D01*
X42925Y-42862D01*
X42925Y-42085D01*
X42925Y-41916D01*
X42861Y-41760D01*
X42741Y-41640D01*
X42705Y-41625D01*
X42740Y-41611D01*
X42860Y-41491D01*
X42925Y-41335D01*
X42925Y-41166D01*
X42861Y-41010D01*
X42741Y-40890D01*
X42705Y-40875D01*
X42740Y-40861D01*
X42860Y-40741D01*
X42925Y-40585D01*
X42925Y-40416D01*
X42861Y-40260D01*
X42741Y-40140D01*
X42585Y-40075D01*
X42416Y-40075D01*
X42379Y-40090D01*
X40121Y-40090D01*
X40085Y-40075D01*
X39916Y-40075D01*
X39760Y-40139D01*
X39640Y-40259D01*
X39575Y-40415D01*
X39575Y-40584D01*
X39639Y-40740D01*
X39759Y-40860D01*
X39794Y-40874D01*
X39760Y-40889D01*
X39640Y-41009D01*
X39575Y-41165D01*
X39575Y-41334D01*
X39639Y-41490D01*
X39759Y-41610D01*
X39794Y-41624D01*
X39760Y-41639D01*
X39640Y-41759D01*
X39575Y-41915D01*
X39575Y-42084D01*
X39639Y-42240D01*
X39759Y-42360D01*
X39915Y-42425D01*
X40084Y-42425D01*
X40240Y-42361D01*
X40271Y-42330D01*
X42229Y-42330D01*
X42259Y-42360D01*
X42415Y-42425D01*
X42584Y-42425D01*
X42740Y-42361D01*
X42860Y-42241D01*
X42925Y-42085D01*
X42925Y-42862D01*
X42835Y-42825D01*
X42666Y-42825D01*
X42510Y-42889D01*
X42479Y-42920D01*
X40271Y-42920D01*
X40241Y-42890D01*
X40085Y-42825D01*
X39916Y-42825D01*
X39760Y-42889D01*
X39640Y-43009D01*
X39575Y-43165D01*
X39575Y-43334D01*
X39639Y-43490D01*
X39759Y-43610D01*
X39915Y-43675D01*
X40084Y-43675D01*
X40240Y-43611D01*
X40271Y-43580D01*
X42479Y-43580D01*
X42509Y-43610D01*
X42665Y-43675D01*
X42834Y-43675D01*
X42990Y-43611D01*
X43110Y-43491D01*
X43175Y-43335D01*
X43175Y-45166D01*
X43111Y-45010D01*
X42991Y-44890D01*
X42835Y-44825D01*
X42791Y-44825D01*
X42733Y-44767D01*
X42627Y-44695D01*
X42500Y-44670D01*
X39271Y-44670D01*
X39241Y-44640D01*
X39085Y-44575D01*
X38916Y-44575D01*
X38760Y-44639D01*
X38640Y-44759D01*
X38575Y-44915D01*
X38575Y-45084D01*
X38639Y-45240D01*
X38759Y-45360D01*
X38915Y-45425D01*
X39084Y-45425D01*
X39240Y-45361D01*
X39271Y-45330D01*
X42325Y-45330D01*
X42325Y-45334D01*
X42389Y-45490D01*
X42509Y-45610D01*
X42665Y-45675D01*
X42834Y-45675D01*
X42990Y-45611D01*
X43110Y-45491D01*
X43175Y-45335D01*
X43175Y-49274D01*
X43108Y-49246D01*
X42893Y-49246D01*
X42694Y-49328D01*
X42543Y-49480D01*
X42500Y-49582D01*
X42458Y-49480D01*
X42306Y-49329D01*
X42108Y-49246D01*
X41893Y-49246D01*
X41694Y-49328D01*
X41543Y-49480D01*
X41500Y-49582D01*
X41458Y-49480D01*
X41306Y-49329D01*
X41108Y-49246D01*
X40893Y-49246D01*
X40694Y-49328D01*
X40543Y-49480D01*
X40500Y-49582D01*
X40458Y-49480D01*
X40306Y-49329D01*
X40108Y-49246D01*
X39893Y-49246D01*
X39694Y-49328D01*
X39543Y-49480D01*
X39500Y-49582D01*
X39458Y-49480D01*
X39306Y-49329D01*
X39108Y-49246D01*
X38893Y-49246D01*
X38694Y-49328D01*
X38543Y-49480D01*
X38460Y-49678D01*
X38460Y-49893D01*
X38460Y-50321D01*
X38542Y-50520D01*
X38694Y-50671D01*
X38703Y-50675D01*
X37298Y-50675D01*
X37306Y-50672D01*
X37457Y-50520D01*
X37540Y-50322D01*
X37540Y-50107D01*
X37540Y-49679D01*
X37458Y-49480D01*
X37306Y-49329D01*
X37108Y-49246D01*
X36893Y-49246D01*
X36694Y-49328D01*
X36543Y-49480D01*
X36500Y-49581D01*
X36489Y-49543D01*
X36353Y-49375D01*
X36163Y-49272D01*
X36135Y-49268D01*
X36050Y-49315D01*
X36050Y-49900D01*
X36050Y-49950D01*
X36050Y-50050D01*
X35950Y-50050D01*
X35950Y-49950D01*
X35950Y-49315D01*
X35865Y-49268D01*
X35837Y-49272D01*
X35647Y-49375D01*
X35511Y-49543D01*
X35500Y-49580D01*
X35489Y-49543D01*
X35353Y-49375D01*
X35163Y-49272D01*
X35135Y-49268D01*
X35050Y-49315D01*
X35050Y-49950D01*
X35450Y-49950D01*
X35550Y-49950D01*
X35950Y-49950D01*
X35950Y-50050D01*
X35900Y-50050D01*
X35550Y-50050D01*
X35450Y-50050D01*
X35100Y-50050D01*
X35050Y-50050D01*
X34950Y-50050D01*
X34950Y-49950D01*
X34950Y-49900D01*
X34950Y-49315D01*
X34865Y-49268D01*
X34837Y-49272D01*
X34647Y-49375D01*
X34511Y-49543D01*
X34499Y-49581D01*
X34458Y-49480D01*
X34306Y-49329D01*
X34108Y-49246D01*
X33893Y-49246D01*
X33694Y-49328D01*
X33543Y-49480D01*
X33500Y-49582D01*
X33458Y-49480D01*
X33306Y-49329D01*
X33108Y-49246D01*
X32893Y-49246D01*
X32694Y-49328D01*
X32543Y-49480D01*
X32500Y-49582D01*
X32458Y-49480D01*
X32306Y-49329D01*
X32108Y-49246D01*
X31893Y-49246D01*
X31694Y-49328D01*
X31675Y-49347D01*
X31675Y-43585D01*
X31675Y-43416D01*
X31675Y-41585D01*
X31675Y-41416D01*
X31675Y-40585D01*
X31675Y-40416D01*
X31611Y-40260D01*
X31491Y-40140D01*
X31335Y-40075D01*
X31166Y-40075D01*
X31010Y-40139D01*
X30979Y-40170D01*
X29771Y-40170D01*
X29741Y-40140D01*
X29585Y-40075D01*
X29416Y-40075D01*
X29260Y-40139D01*
X29140Y-40259D01*
X29075Y-40415D01*
X29075Y-40584D01*
X29139Y-40740D01*
X29259Y-40860D01*
X29415Y-40925D01*
X29584Y-40925D01*
X29740Y-40861D01*
X29771Y-40830D01*
X30979Y-40830D01*
X31009Y-40860D01*
X31165Y-40925D01*
X31334Y-40925D01*
X31490Y-40861D01*
X31610Y-40741D01*
X31675Y-40585D01*
X31675Y-41416D01*
X31611Y-41260D01*
X31491Y-41140D01*
X31335Y-41075D01*
X31166Y-41075D01*
X31010Y-41139D01*
X30979Y-41170D01*
X29771Y-41170D01*
X29741Y-41140D01*
X29585Y-41075D01*
X29416Y-41075D01*
X29260Y-41139D01*
X29140Y-41259D01*
X29075Y-41415D01*
X29075Y-41584D01*
X29139Y-41740D01*
X29259Y-41860D01*
X29415Y-41925D01*
X29584Y-41925D01*
X29740Y-41861D01*
X29771Y-41830D01*
X30979Y-41830D01*
X31009Y-41860D01*
X31165Y-41925D01*
X31334Y-41925D01*
X31490Y-41861D01*
X31610Y-41741D01*
X31675Y-41585D01*
X31675Y-43416D01*
X31611Y-43260D01*
X31491Y-43140D01*
X31335Y-43075D01*
X31166Y-43075D01*
X31129Y-43090D01*
X29371Y-43090D01*
X29335Y-43075D01*
X29166Y-43075D01*
X29010Y-43139D01*
X28890Y-43259D01*
X28825Y-43415D01*
X28825Y-43584D01*
X28889Y-43740D01*
X29009Y-43860D01*
X29165Y-43925D01*
X29334Y-43925D01*
X29370Y-43910D01*
X31129Y-43910D01*
X31165Y-43925D01*
X31334Y-43925D01*
X31490Y-43861D01*
X31610Y-43741D01*
X31675Y-43585D01*
X31675Y-49347D01*
X31543Y-49480D01*
X31460Y-49678D01*
X31460Y-49893D01*
X31460Y-50321D01*
X31542Y-50520D01*
X31694Y-50671D01*
X31703Y-50675D01*
X31175Y-50675D01*
X31175Y-44585D01*
X31175Y-44416D01*
X31111Y-44260D01*
X30991Y-44140D01*
X30835Y-44075D01*
X30666Y-44075D01*
X30629Y-44090D01*
X29371Y-44090D01*
X29335Y-44075D01*
X29166Y-44075D01*
X29010Y-44139D01*
X28890Y-44259D01*
X28825Y-44415D01*
X28825Y-44584D01*
X28889Y-44740D01*
X29009Y-44860D01*
X29165Y-44925D01*
X29334Y-44925D01*
X29370Y-44910D01*
X30629Y-44910D01*
X30665Y-44925D01*
X30834Y-44925D01*
X30990Y-44861D01*
X31110Y-44741D01*
X31175Y-44585D01*
X31175Y-50675D01*
X26007Y-50675D01*
X25644Y-50675D01*
X25644Y-31715D01*
X25000Y-31071D01*
X24929Y-31142D01*
X24356Y-31715D01*
X24439Y-31857D01*
X24809Y-32007D01*
X25209Y-32003D01*
X25561Y-31857D01*
X25644Y-31715D01*
X25644Y-50675D01*
X25507Y-50675D01*
X25302Y-50675D01*
X25309Y-50668D01*
X25259Y-50618D01*
X25357Y-50561D01*
X25507Y-50191D01*
X25503Y-49791D01*
X25357Y-49439D01*
X25215Y-49356D01*
X25144Y-49427D01*
X25144Y-49285D01*
X25061Y-49143D01*
X24691Y-48993D01*
X24291Y-48997D01*
X23939Y-49143D01*
X23856Y-49285D01*
X24500Y-49929D01*
X25144Y-49285D01*
X25144Y-49427D01*
X24606Y-49965D01*
X24571Y-50000D01*
X24500Y-50071D01*
X24429Y-50000D01*
X24394Y-49965D01*
X23785Y-49356D01*
X23643Y-49439D01*
X23493Y-49809D01*
X23497Y-50209D01*
X23643Y-50561D01*
X23740Y-50618D01*
X23691Y-50668D01*
X23698Y-50675D01*
X23025Y-50675D01*
X23025Y-31105D01*
X23025Y-30896D01*
X22945Y-30703D01*
X22798Y-30555D01*
X22605Y-30475D01*
X22396Y-30475D01*
X22203Y-30555D01*
X22055Y-30702D01*
X21996Y-30842D01*
X21952Y-30733D01*
X21861Y-30710D01*
X21790Y-30781D01*
X21790Y-30639D01*
X21767Y-30548D01*
X21574Y-30481D01*
X21370Y-30492D01*
X21233Y-30548D01*
X21210Y-30639D01*
X21500Y-30929D01*
X21790Y-30639D01*
X21790Y-30781D01*
X21571Y-31000D01*
X21861Y-31290D01*
X21952Y-31267D01*
X21993Y-31148D01*
X22055Y-31297D01*
X22202Y-31445D01*
X22395Y-31525D01*
X22604Y-31525D01*
X22797Y-31445D01*
X22945Y-31298D01*
X23025Y-31105D01*
X23025Y-50675D01*
X21790Y-50675D01*
X21790Y-31361D01*
X21500Y-31071D01*
X21429Y-31142D01*
X21429Y-31000D01*
X21139Y-30710D01*
X21048Y-30733D01*
X21024Y-30802D01*
X21024Y-30676D01*
X20986Y-30584D01*
X20916Y-30514D01*
X20825Y-30476D01*
X20726Y-30476D01*
X20176Y-30476D01*
X20084Y-30514D01*
X20014Y-30584D01*
X19976Y-30675D01*
X19976Y-30774D01*
X19976Y-31324D01*
X20014Y-31416D01*
X20084Y-31486D01*
X20175Y-31524D01*
X20274Y-31524D01*
X20824Y-31524D01*
X20916Y-31486D01*
X20986Y-31416D01*
X21024Y-31325D01*
X21024Y-31226D01*
X21024Y-31208D01*
X21048Y-31267D01*
X21139Y-31290D01*
X21429Y-31000D01*
X21429Y-31142D01*
X21210Y-31361D01*
X21233Y-31452D01*
X21426Y-31519D01*
X21630Y-31508D01*
X21767Y-31452D01*
X21790Y-31361D01*
X21790Y-50675D01*
X21025Y-50675D01*
X21025Y-44605D01*
X21025Y-44396D01*
X20945Y-44203D01*
X20798Y-44055D01*
X20664Y-43999D01*
X20797Y-43945D01*
X20945Y-43798D01*
X21025Y-43605D01*
X21025Y-43396D01*
X21025Y-41605D01*
X21025Y-41396D01*
X20945Y-41203D01*
X20798Y-41055D01*
X20664Y-40999D01*
X20797Y-40945D01*
X20945Y-40798D01*
X21025Y-40605D01*
X21025Y-40396D01*
X21025Y-38605D01*
X21025Y-38396D01*
X20945Y-38203D01*
X20798Y-38055D01*
X20605Y-37975D01*
X20396Y-37975D01*
X20203Y-38055D01*
X20055Y-38202D01*
X19975Y-38395D01*
X19975Y-38604D01*
X20055Y-38797D01*
X20202Y-38945D01*
X20342Y-39003D01*
X20233Y-39048D01*
X20210Y-39139D01*
X20500Y-39429D01*
X20790Y-39139D01*
X20767Y-39048D01*
X20648Y-39006D01*
X20797Y-38945D01*
X20945Y-38798D01*
X21025Y-38605D01*
X21025Y-40396D01*
X21019Y-40381D01*
X21019Y-39574D01*
X21008Y-39370D01*
X20952Y-39233D01*
X20861Y-39210D01*
X20571Y-39500D01*
X20861Y-39790D01*
X20952Y-39767D01*
X21019Y-39574D01*
X21019Y-40381D01*
X20945Y-40203D01*
X20798Y-40055D01*
X20657Y-39996D01*
X20767Y-39952D01*
X20790Y-39861D01*
X20500Y-39571D01*
X20429Y-39642D01*
X20429Y-39500D01*
X20139Y-39210D01*
X20048Y-39233D01*
X19981Y-39426D01*
X19992Y-39630D01*
X20048Y-39767D01*
X20139Y-39790D01*
X20429Y-39500D01*
X20429Y-39642D01*
X20210Y-39861D01*
X20233Y-39952D01*
X20351Y-39993D01*
X20203Y-40055D01*
X20055Y-40202D01*
X19975Y-40395D01*
X19975Y-40604D01*
X20055Y-40797D01*
X20202Y-40945D01*
X20335Y-41000D01*
X20203Y-41055D01*
X20055Y-41202D01*
X19975Y-41395D01*
X19975Y-41604D01*
X20055Y-41797D01*
X20202Y-41945D01*
X20342Y-42003D01*
X20233Y-42048D01*
X20210Y-42139D01*
X20500Y-42429D01*
X20790Y-42139D01*
X20767Y-42048D01*
X20648Y-42006D01*
X20797Y-41945D01*
X20945Y-41798D01*
X21025Y-41605D01*
X21025Y-43396D01*
X21019Y-43381D01*
X21019Y-42574D01*
X21008Y-42370D01*
X20952Y-42233D01*
X20861Y-42210D01*
X20571Y-42500D01*
X20861Y-42790D01*
X20952Y-42767D01*
X21019Y-42574D01*
X21019Y-43381D01*
X20945Y-43203D01*
X20798Y-43055D01*
X20657Y-42996D01*
X20767Y-42952D01*
X20790Y-42861D01*
X20500Y-42571D01*
X20429Y-42642D01*
X20429Y-42500D01*
X20139Y-42210D01*
X20048Y-42233D01*
X19981Y-42426D01*
X19992Y-42630D01*
X20048Y-42767D01*
X20139Y-42790D01*
X20429Y-42500D01*
X20429Y-42642D01*
X20210Y-42861D01*
X20233Y-42952D01*
X20351Y-42993D01*
X20203Y-43055D01*
X20055Y-43202D01*
X19975Y-43395D01*
X19975Y-43604D01*
X20055Y-43797D01*
X20202Y-43945D01*
X20335Y-44000D01*
X20203Y-44055D01*
X20055Y-44202D01*
X19975Y-44395D01*
X19975Y-44604D01*
X20055Y-44797D01*
X20202Y-44945D01*
X20276Y-44976D01*
X20176Y-44976D01*
X20084Y-45014D01*
X20014Y-45084D01*
X19976Y-45175D01*
X19976Y-45274D01*
X19976Y-45824D01*
X20014Y-45916D01*
X20084Y-45986D01*
X20175Y-46024D01*
X20274Y-46024D01*
X20824Y-46024D01*
X20916Y-45986D01*
X20986Y-45916D01*
X21024Y-45825D01*
X21024Y-45726D01*
X21024Y-45176D01*
X20986Y-45084D01*
X20916Y-45014D01*
X20825Y-44976D01*
X20726Y-44976D01*
X20722Y-44976D01*
X20797Y-44945D01*
X20945Y-44798D01*
X21025Y-44605D01*
X21025Y-50675D01*
X19325Y-50675D01*
X19325Y-30325D01*
X24198Y-30325D01*
X24191Y-30332D01*
X24240Y-30381D01*
X24143Y-30439D01*
X23993Y-30809D01*
X23997Y-31209D01*
X24143Y-31561D01*
X24285Y-31644D01*
X24894Y-31035D01*
X24929Y-31000D01*
X25000Y-30929D01*
X25071Y-31000D01*
X25106Y-31035D01*
X25715Y-31644D01*
X25857Y-31561D01*
X26007Y-31191D01*
X26003Y-30791D01*
X25857Y-30439D01*
X25759Y-30381D01*
X25809Y-30332D01*
X25802Y-30325D01*
X28101Y-30325D01*
X28094Y-30328D01*
X27943Y-30480D01*
X27860Y-30678D01*
X27860Y-30893D01*
X27860Y-31321D01*
X27942Y-31520D01*
X28094Y-31671D01*
X28292Y-31754D01*
X28507Y-31754D01*
X28706Y-31672D01*
X28857Y-31520D01*
X28899Y-31418D01*
X28911Y-31457D01*
X29047Y-31625D01*
X29237Y-31728D01*
X29265Y-31732D01*
X29350Y-31685D01*
X29350Y-31100D01*
X29350Y-31050D01*
X29350Y-30950D01*
X29450Y-30950D01*
X29450Y-31050D01*
X29450Y-31100D01*
X29450Y-31685D01*
X29535Y-31732D01*
X29563Y-31728D01*
X29753Y-31625D01*
X29889Y-31457D01*
X29900Y-31418D01*
X29942Y-31520D01*
X30094Y-31671D01*
X30292Y-31754D01*
X30507Y-31754D01*
X30706Y-31672D01*
X30857Y-31520D01*
X30899Y-31417D01*
X30942Y-31520D01*
X31094Y-31671D01*
X31292Y-31754D01*
X31507Y-31754D01*
X31706Y-31672D01*
X31857Y-31520D01*
X31899Y-31417D01*
X31942Y-31520D01*
X32094Y-31671D01*
X32292Y-31754D01*
X32507Y-31754D01*
X32706Y-31672D01*
X32857Y-31520D01*
X32899Y-31417D01*
X32942Y-31520D01*
X33094Y-31671D01*
X33292Y-31754D01*
X33507Y-31754D01*
X33706Y-31672D01*
X33857Y-31520D01*
X33899Y-31417D01*
X33942Y-31520D01*
X34094Y-31671D01*
X34292Y-31754D01*
X34507Y-31754D01*
X34706Y-31672D01*
X34857Y-31520D01*
X34899Y-31417D01*
X34942Y-31520D01*
X35094Y-31671D01*
X35292Y-31754D01*
X35507Y-31754D01*
X35706Y-31672D01*
X35857Y-31520D01*
X35940Y-31322D01*
X35940Y-31107D01*
X35940Y-30679D01*
X35858Y-30480D01*
X35706Y-30329D01*
X35696Y-30325D01*
X36701Y-30325D01*
X36694Y-30328D01*
X36543Y-30480D01*
X36460Y-30678D01*
X36460Y-30893D01*
X36460Y-31321D01*
X36542Y-31520D01*
X36694Y-31671D01*
X36892Y-31754D01*
X37107Y-31754D01*
X37306Y-31672D01*
X37457Y-31520D01*
X37499Y-31417D01*
X37542Y-31520D01*
X37694Y-31671D01*
X37892Y-31754D01*
X38107Y-31754D01*
X38306Y-31672D01*
X38457Y-31520D01*
X38499Y-31417D01*
X38542Y-31520D01*
X38694Y-31671D01*
X38892Y-31754D01*
X39107Y-31754D01*
X39306Y-31672D01*
X39457Y-31520D01*
X39499Y-31417D01*
X39542Y-31520D01*
X39694Y-31671D01*
X39892Y-31754D01*
X40107Y-31754D01*
X40306Y-31672D01*
X40457Y-31520D01*
X40499Y-31417D01*
X40542Y-31520D01*
X40694Y-31671D01*
X40892Y-31754D01*
X41107Y-31754D01*
X41306Y-31672D01*
X41457Y-31520D01*
X41499Y-31417D01*
X41542Y-31520D01*
X41694Y-31671D01*
X41892Y-31754D01*
X42107Y-31754D01*
X42306Y-31672D01*
X42457Y-31520D01*
X42499Y-31417D01*
X42542Y-31520D01*
X42694Y-31671D01*
X42892Y-31754D01*
X43107Y-31754D01*
X43306Y-31672D01*
X43457Y-31520D01*
X43499Y-31417D01*
X43542Y-31520D01*
X43694Y-31671D01*
X43892Y-31754D01*
X44107Y-31754D01*
X44306Y-31672D01*
X44457Y-31520D01*
X44540Y-31322D01*
X44540Y-31107D01*
X44540Y-30679D01*
X44458Y-30480D01*
X44306Y-30329D01*
X44296Y-30325D01*
X45701Y-30325D01*
X45694Y-30328D01*
X45543Y-30480D01*
X45460Y-30678D01*
X45460Y-30893D01*
X45460Y-31321D01*
X45542Y-31520D01*
X45694Y-31671D01*
X45892Y-31754D01*
X46107Y-31754D01*
X46306Y-31672D01*
X46457Y-31520D01*
X46499Y-31417D01*
X46542Y-31520D01*
X46694Y-31671D01*
X46892Y-31754D01*
X47107Y-31754D01*
X47306Y-31672D01*
X47457Y-31520D01*
X47499Y-31417D01*
X47542Y-31520D01*
X47694Y-31671D01*
X47892Y-31754D01*
X48107Y-31754D01*
X48306Y-31672D01*
X48457Y-31520D01*
X48499Y-31417D01*
X48542Y-31520D01*
X48694Y-31671D01*
X48892Y-31754D01*
X49107Y-31754D01*
X49306Y-31672D01*
X49457Y-31520D01*
X49499Y-31417D01*
X49542Y-31520D01*
X49694Y-31671D01*
X49892Y-31754D01*
X50107Y-31754D01*
X50306Y-31672D01*
X50457Y-31520D01*
X50499Y-31417D01*
X50542Y-31520D01*
X50694Y-31671D01*
X50892Y-31754D01*
X51107Y-31754D01*
X51306Y-31672D01*
X51457Y-31520D01*
X51499Y-31417D01*
X51542Y-31520D01*
X51694Y-31671D01*
X51892Y-31754D01*
X52107Y-31754D01*
X52306Y-31672D01*
X52457Y-31520D01*
X52499Y-31417D01*
X52542Y-31520D01*
X52694Y-31671D01*
X52892Y-31754D01*
X53107Y-31754D01*
X53306Y-31672D01*
X53457Y-31520D01*
X53540Y-31322D01*
X53540Y-31312D01*
X53643Y-31561D01*
X53785Y-31644D01*
X54394Y-31035D01*
X54429Y-31000D01*
X54500Y-30929D01*
X54571Y-31000D01*
X54606Y-31035D01*
X55215Y-31644D01*
X55357Y-31561D01*
X55507Y-31191D01*
X55503Y-30791D01*
X55357Y-30439D01*
X55259Y-30381D01*
X55309Y-30332D01*
X55302Y-30325D01*
X57365Y-30325D01*
X57675Y-30635D01*
X57675Y-35000D01*
X57675Y-49198D01*
M02*
