M48
INCH,TZ
T1C0.025
T2C0.032
T3C0.040
T4C0.125
%
G90
G05
T1
X22000Y-33250
X22000Y-35250
X25000Y-33250
X25000Y-36500
X25000Y-39250
X25250Y-42500
X27000Y-36500
X28500Y-39500
X28750Y-33250
X29250Y-42500
X29250Y-43500
X29250Y-44500
X29500Y-40500
X29500Y-41500
X29750Y-35250
X29750Y-37250
X30750Y-44500
X31250Y-39500
X31250Y-40500
X31250Y-41500
X31250Y-42500
X31250Y-43500
X32250Y-33000
X32250Y-34500
X32250Y-42500
X34750Y-33000
X35750Y-42250
X36000Y-38500
X36250Y-35000
X39000Y-39000
X39000Y-45000
X39250Y-35000
X40000Y-40500
X40000Y-41250
X40000Y-42000
X40000Y-43250
X41000Y-37500
X41250Y-32750
X42500Y-40500
X42500Y-41250
X42500Y-42000
X42750Y-43250
X42750Y-45250
X43000Y-38500
X43250Y-37500
X43750Y-42750
X43750Y-44250
X44000Y-35000
X44500Y-32750
X44750Y-34500
X44750Y-45750
X44750Y-48000
X45250Y-36250
X45250Y-37500
X46500Y-32750
X46500Y-35750
X46500Y-37000
X47250Y-38000
X47500Y-32750
X47500Y-35500
X47750Y-37000
X48000Y-39500
X48000Y-42500
X48250Y-37500
X48250Y-44250
X48250Y-45750
X48500Y-32750
X48500Y-35500
X49000Y-36250
X49250Y-40500
X49250Y-41250
X49250Y-42000
X49250Y-48750
X49500Y-32750
X49500Y-46250
X50000Y-35000
X50000Y-39000
X50000Y-42750
X50000Y-43750
X50000Y-44750
X50000Y-45750
X50500Y-47500
X50500Y-48750
X51000Y-34500
X51000Y-39250
X51000Y-42750
X51000Y-43750
X51000Y-44750
X51000Y-45750
X51500Y-32750
X51500Y-43250
X52500Y-32750
X52750Y-43250
X53250Y-48000
X54000Y-34500
X54000Y-38750
X54750Y-33500
X54750Y-38750
X55500Y-32500
X55500Y-38750
T2
X20500Y-31000
X20500Y-38500
X20500Y-39500
X20500Y-40500
X20500Y-41500
X20500Y-42500
X20500Y-43500
X20500Y-44500
X20500Y-45500
X21500Y-31000
X22500Y-31000
X57000Y-32500
X57000Y-33500
X57000Y-34500
X57000Y-35500
X57000Y-36500
X57000Y-37500
X57000Y-40000
X57000Y-41000
X57000Y-42000
X57000Y-43000
X57000Y-44000
X57000Y-45000
T3
X28400Y-31000
X29400Y-31000
X30400Y-31000
X31400Y-31000
X32000Y-50000
X32400Y-31000
X33000Y-50000
X33400Y-31000
X34000Y-50000
X34400Y-31000
X35000Y-50000
X35400Y-31000
X36000Y-50000
X37000Y-31000
X37000Y-50000
X38000Y-31000
X39000Y-31000
X39000Y-50000
X40000Y-31000
X40000Y-50000
X41000Y-31000
X41000Y-50000
X42000Y-31000
X42000Y-50000
X43000Y-31000
X43000Y-50000
X44000Y-31000
X44000Y-50000
X45000Y-50000
X46000Y-31000
X46000Y-50000
X47000Y-31000
X48000Y-31000
X48000Y-50000
X49000Y-31000
X49000Y-50000
X50000Y-31000
X50000Y-50000
X51000Y-31000
X51000Y-50000
X52000Y-31000
X53000Y-31000
T4
X24500Y-50000
X25000Y-31000
X54500Y-31000
X57000Y-50000
T0
M30
